G04 #@! TF.GenerationSoftware,KiCad,Pcbnew,9.0.3*
G04 #@! TF.CreationDate,2025-09-07T18:19:36+02:00*
G04 #@! TF.ProjectId,Design1,44657369-676e-4312-9e6b-696361645f70,rev?*
G04 #@! TF.SameCoordinates,Original*
G04 #@! TF.FileFunction,Copper,L1,Top*
G04 #@! TF.FilePolarity,Positive*
%FSLAX46Y46*%
G04 Gerber Fmt 4.6, Leading zero omitted, Abs format (unit mm)*
G04 Created by KiCad (PCBNEW 9.0.3) date 2025-09-07 18:19:36*
%MOMM*%
%LPD*%
G01*
G04 APERTURE LIST*
G04 #@! TA.AperFunction,ComponentPad*
%ADD10C,1.600000*%
G04 #@! TD*
G04 #@! TA.AperFunction,ComponentPad*
%ADD11C,2.000000*%
G04 #@! TD*
G04 #@! TA.AperFunction,ComponentPad*
%ADD12C,2.540000*%
G04 #@! TD*
G04 #@! TA.AperFunction,ComponentPad*
%ADD13R,2.000000X2.000000*%
G04 #@! TD*
G04 #@! TA.AperFunction,ComponentPad*
%ADD14C,1.800000*%
G04 #@! TD*
G04 #@! TA.AperFunction,ComponentPad*
%ADD15R,1.800000X1.800000*%
G04 #@! TD*
G04 #@! TA.AperFunction,ComponentPad*
%ADD16R,1.600000X1.600000*%
G04 #@! TD*
G04 #@! TA.AperFunction,ComponentPad*
%ADD17O,1.600000X1.600000*%
G04 #@! TD*
G04 #@! TA.AperFunction,ViaPad*
%ADD18C,0.600000*%
G04 #@! TD*
G04 #@! TA.AperFunction,Conductor*
%ADD19C,0.200000*%
G04 #@! TD*
G04 APERTURE END LIST*
D10*
X133250000Y-88620000D03*
X133250000Y-81000000D03*
X125500000Y-109750000D03*
X125500000Y-104750000D03*
D11*
X140000000Y-104750000D03*
X146500000Y-104750000D03*
X140000000Y-109250000D03*
X146500000Y-109250000D03*
D10*
X125750000Y-86750000D03*
X125750000Y-81750000D03*
D11*
X139750000Y-81750000D03*
X146250000Y-81750000D03*
X139750000Y-86250000D03*
X146250000Y-86250000D03*
D10*
X133500000Y-111620000D03*
X133500000Y-104000000D03*
D12*
X90620000Y-69380000D03*
X85540000Y-69380000D03*
X80460000Y-69380000D03*
X75380000Y-69380000D03*
D11*
X80580000Y-104190000D03*
X78040000Y-104190000D03*
X75500000Y-104190000D03*
X72960000Y-104190000D03*
D13*
X70420000Y-104190000D03*
D11*
X146250000Y-98250000D03*
X139750000Y-98250000D03*
X146250000Y-93750000D03*
X139750000Y-93750000D03*
D10*
X131310000Y-73500000D03*
X123690000Y-73500000D03*
X133500000Y-99810000D03*
X133500000Y-92190000D03*
D14*
X140265000Y-73500000D03*
D15*
X137725000Y-73500000D03*
D10*
X126000000Y-93000000D03*
X126000000Y-98000000D03*
D16*
X117740000Y-109000000D03*
D17*
X117740000Y-106460000D03*
X117740000Y-103920000D03*
X117740000Y-101380000D03*
X117740000Y-98840000D03*
X117740000Y-96300000D03*
X117740000Y-93760000D03*
X117740000Y-91220000D03*
X117740000Y-88680000D03*
X117740000Y-86140000D03*
X117740000Y-83600000D03*
X117740000Y-81060000D03*
X117740000Y-78520000D03*
X117740000Y-75980000D03*
X117740000Y-73440000D03*
X102500000Y-73440000D03*
X102500000Y-75980000D03*
X102500000Y-78520000D03*
X102500000Y-81060000D03*
X102500000Y-83600000D03*
X102500000Y-86140000D03*
X102500000Y-88680000D03*
X102500000Y-91220000D03*
X102500000Y-93760000D03*
X102500000Y-96300000D03*
X102500000Y-98840000D03*
X102500000Y-101380000D03*
X102500000Y-103920000D03*
X102500000Y-106460000D03*
X102500000Y-109000000D03*
D18*
X90500000Y-91000000D03*
X85540000Y-93760000D03*
X121500000Y-110000000D03*
X121000000Y-99000000D03*
D19*
X73385000Y-104190000D02*
X72960000Y-104190000D01*
X86575000Y-91000000D02*
X73385000Y-104190000D01*
X90500000Y-91000000D02*
X86575000Y-91000000D01*
X85540000Y-93760000D02*
X102500000Y-93760000D01*
X85540000Y-94150000D02*
X75500000Y-104190000D01*
X85540000Y-93760000D02*
X85540000Y-94150000D01*
X102280000Y-91000000D02*
X90500000Y-91000000D01*
X102500000Y-91220000D02*
X102280000Y-91000000D01*
X103528000Y-102408000D02*
X102500000Y-101380000D01*
X131908000Y-102408000D02*
X103528000Y-102408000D01*
X133500000Y-104000000D02*
X131908000Y-102408000D01*
X140000000Y-109250000D02*
X146500000Y-109250000D01*
X137630000Y-111620000D02*
X140000000Y-109250000D01*
X133500000Y-111620000D02*
X137630000Y-111620000D01*
X131630000Y-109750000D02*
X133500000Y-111620000D01*
X125500000Y-109750000D02*
X131630000Y-109750000D01*
X122750000Y-109750000D02*
X125500000Y-109750000D01*
X122500000Y-110000000D02*
X122750000Y-109750000D01*
X121500000Y-110000000D02*
X122500000Y-110000000D01*
X120840000Y-98840000D02*
X121000000Y-99000000D01*
X117740000Y-98840000D02*
X120840000Y-98840000D01*
X139750000Y-98250000D02*
X146250000Y-98250000D01*
X138190000Y-99810000D02*
X139750000Y-98250000D01*
X133500000Y-99810000D02*
X138190000Y-99810000D01*
X128310000Y-99810000D02*
X133500000Y-99810000D01*
X126500000Y-98000000D02*
X128310000Y-99810000D01*
X126000000Y-98000000D02*
X126500000Y-98000000D01*
X124300000Y-96300000D02*
X126000000Y-98000000D01*
X117740000Y-96300000D02*
X124300000Y-96300000D01*
X139750000Y-86250000D02*
X146250000Y-86250000D01*
X137380000Y-88620000D02*
X139750000Y-86250000D01*
X133250000Y-88620000D02*
X137380000Y-88620000D01*
X128120000Y-88620000D02*
X133250000Y-88620000D01*
X126250000Y-86750000D02*
X128120000Y-88620000D01*
X125750000Y-86750000D02*
X126250000Y-86750000D01*
X124750000Y-86750000D02*
X125750000Y-86750000D01*
X117740000Y-93760000D02*
X124750000Y-86750000D01*
X138765000Y-72000000D02*
X140265000Y-73500000D01*
X131310000Y-73500000D02*
X132810000Y-72000000D01*
X132810000Y-72000000D02*
X138765000Y-72000000D01*
X123630000Y-73440000D02*
X123690000Y-73500000D01*
X117740000Y-73440000D02*
X123630000Y-73440000D01*
X80580000Y-104190000D02*
X83390000Y-101380000D01*
X83390000Y-101380000D02*
X102500000Y-101380000D01*
G04 #@! TA.AperFunction,Conductor*
G36*
X101337437Y-94380185D02*
G01*
X101380883Y-94428205D01*
X101387715Y-94441614D01*
X101508028Y-94607213D01*
X101652786Y-94751971D01*
X101749018Y-94821886D01*
X101818390Y-94872287D01*
X101909840Y-94918883D01*
X101911080Y-94919515D01*
X101961876Y-94967490D01*
X101978671Y-95035311D01*
X101956134Y-95101446D01*
X101911080Y-95140485D01*
X101818386Y-95187715D01*
X101652786Y-95308028D01*
X101508028Y-95452786D01*
X101387715Y-95618386D01*
X101294781Y-95800776D01*
X101231522Y-95995465D01*
X101199500Y-96197648D01*
X101199500Y-96402351D01*
X101231522Y-96604534D01*
X101294781Y-96799223D01*
X101387715Y-96981613D01*
X101508028Y-97147213D01*
X101652786Y-97291971D01*
X101807749Y-97404556D01*
X101818390Y-97412287D01*
X101909840Y-97458883D01*
X101911080Y-97459515D01*
X101961876Y-97507490D01*
X101978671Y-97575311D01*
X101956134Y-97641446D01*
X101911080Y-97680485D01*
X101818386Y-97727715D01*
X101652786Y-97848028D01*
X101508028Y-97992786D01*
X101387715Y-98158386D01*
X101294781Y-98340776D01*
X101231522Y-98535465D01*
X101208375Y-98681613D01*
X101199500Y-98737648D01*
X101199500Y-98942352D01*
X101203878Y-98969995D01*
X101231522Y-99144534D01*
X101294781Y-99339223D01*
X101346385Y-99440500D01*
X101381946Y-99510292D01*
X101387715Y-99521613D01*
X101508028Y-99687213D01*
X101652786Y-99831971D01*
X101807749Y-99944556D01*
X101818390Y-99952287D01*
X101909840Y-99998883D01*
X101911080Y-99999515D01*
X101961876Y-100047490D01*
X101978671Y-100115311D01*
X101956134Y-100181446D01*
X101911080Y-100220485D01*
X101818386Y-100267715D01*
X101652786Y-100388028D01*
X101508028Y-100532786D01*
X101387715Y-100698385D01*
X101380883Y-100711795D01*
X101332909Y-100762591D01*
X101270398Y-100779500D01*
X83469057Y-100779500D01*
X83310943Y-100779500D01*
X83158215Y-100820423D01*
X83158214Y-100820423D01*
X83158212Y-100820424D01*
X83158209Y-100820425D01*
X83108096Y-100849359D01*
X83108095Y-100849360D01*
X83064689Y-100874420D01*
X83021285Y-100899479D01*
X83021282Y-100899481D01*
X82909478Y-101011286D01*
X81183563Y-102737200D01*
X81122240Y-102770685D01*
X81057564Y-102767450D01*
X80931370Y-102726447D01*
X80698097Y-102689500D01*
X80698092Y-102689500D01*
X80461908Y-102689500D01*
X80461903Y-102689500D01*
X80228631Y-102726446D01*
X80004003Y-102799433D01*
X79793566Y-102906657D01*
X79726404Y-102955454D01*
X79602490Y-103045483D01*
X79602488Y-103045485D01*
X79602487Y-103045485D01*
X79435482Y-103212490D01*
X79392451Y-103271717D01*
X79337120Y-103314382D01*
X79282405Y-103322448D01*
X79262658Y-103320893D01*
X78629560Y-103953991D01*
X78602729Y-103889215D01*
X78533236Y-103785211D01*
X78444789Y-103696764D01*
X78340785Y-103627271D01*
X78276006Y-103600438D01*
X78909105Y-102967340D01*
X78909104Y-102967338D01*
X78826174Y-102907087D01*
X78615802Y-102799897D01*
X78391247Y-102726934D01*
X78391248Y-102726934D01*
X78158052Y-102690000D01*
X78148595Y-102690000D01*
X78081556Y-102670315D01*
X78035801Y-102617511D01*
X78025857Y-102548353D01*
X78054882Y-102484797D01*
X78060900Y-102478333D01*
X85898506Y-94640728D01*
X85898511Y-94640724D01*
X85908714Y-94630520D01*
X85908716Y-94630520D01*
X86020520Y-94518716D01*
X86065035Y-94441614D01*
X86076070Y-94422501D01*
X86126636Y-94374285D01*
X86183457Y-94360500D01*
X101270398Y-94360500D01*
X101337437Y-94380185D01*
G37*
G04 #@! TD.AperFunction*
G04 #@! TA.AperFunction,Conductor*
G36*
X150942539Y-64020185D02*
G01*
X150988294Y-64072989D01*
X150999500Y-64124500D01*
X150999500Y-117875500D01*
X150979815Y-117942539D01*
X150927011Y-117988294D01*
X150875500Y-117999500D01*
X64124500Y-117999500D01*
X64057461Y-117979815D01*
X64011706Y-117927011D01*
X64000500Y-117875500D01*
X64000500Y-103142135D01*
X68919500Y-103142135D01*
X68919500Y-105237870D01*
X68919501Y-105237876D01*
X68925908Y-105297483D01*
X68976202Y-105432328D01*
X68976206Y-105432335D01*
X69062452Y-105547544D01*
X69062455Y-105547547D01*
X69177664Y-105633793D01*
X69177671Y-105633797D01*
X69312517Y-105684091D01*
X69312516Y-105684091D01*
X69319444Y-105684835D01*
X69372127Y-105690500D01*
X71467872Y-105690499D01*
X71527483Y-105684091D01*
X71662331Y-105633796D01*
X71777546Y-105547546D01*
X71863796Y-105432331D01*
X71863797Y-105432326D01*
X71868047Y-105424546D01*
X71871380Y-105426366D01*
X71902292Y-105384766D01*
X71967669Y-105360116D01*
X72035994Y-105374725D01*
X72049835Y-105383446D01*
X72173567Y-105473343D01*
X72178629Y-105475922D01*
X72384003Y-105580566D01*
X72384005Y-105580566D01*
X72384008Y-105580568D01*
X72484143Y-105613104D01*
X72608631Y-105653553D01*
X72841903Y-105690500D01*
X72841908Y-105690500D01*
X73078097Y-105690500D01*
X73311368Y-105653553D01*
X73312870Y-105653065D01*
X73535992Y-105580568D01*
X73746433Y-105473343D01*
X73937510Y-105334517D01*
X74104517Y-105167510D01*
X74129682Y-105132872D01*
X74185011Y-105090207D01*
X74254625Y-105084228D01*
X74316420Y-105116833D01*
X74330315Y-105132870D01*
X74355483Y-105167510D01*
X74522490Y-105334517D01*
X74713567Y-105473343D01*
X74718629Y-105475922D01*
X74924003Y-105580566D01*
X74924005Y-105580566D01*
X74924008Y-105580568D01*
X75024143Y-105613104D01*
X75148631Y-105653553D01*
X75381903Y-105690500D01*
X75381908Y-105690500D01*
X75618097Y-105690500D01*
X75851368Y-105653553D01*
X75852870Y-105653065D01*
X76075992Y-105580568D01*
X76286433Y-105473343D01*
X76477510Y-105334517D01*
X76644517Y-105167510D01*
X76691370Y-105103022D01*
X76695713Y-105098199D01*
X76720150Y-105083142D01*
X76742877Y-105065618D01*
X76750393Y-105064509D01*
X76755199Y-105061549D01*
X76768730Y-105061806D01*
X76797594Y-105057551D01*
X76817340Y-105059105D01*
X77450438Y-104426006D01*
X77477271Y-104490785D01*
X77546764Y-104594789D01*
X77635211Y-104683236D01*
X77739215Y-104752729D01*
X77803992Y-104779560D01*
X77170893Y-105412658D01*
X77253828Y-105472914D01*
X77464197Y-105580102D01*
X77688752Y-105653065D01*
X77688751Y-105653065D01*
X77921948Y-105690000D01*
X78158052Y-105690000D01*
X78391247Y-105653065D01*
X78615802Y-105580102D01*
X78826163Y-105472918D01*
X78826169Y-105472914D01*
X78909104Y-105412658D01*
X78909105Y-105412658D01*
X78276007Y-104779561D01*
X78340785Y-104752729D01*
X78444789Y-104683236D01*
X78533236Y-104594789D01*
X78602729Y-104490785D01*
X78629560Y-104426007D01*
X79262657Y-105059104D01*
X79282404Y-105057550D01*
X79350781Y-105071914D01*
X79392451Y-105108282D01*
X79435483Y-105167510D01*
X79602490Y-105334517D01*
X79793567Y-105473343D01*
X79798629Y-105475922D01*
X80004003Y-105580566D01*
X80004005Y-105580566D01*
X80004008Y-105580568D01*
X80104143Y-105613104D01*
X80228631Y-105653553D01*
X80461903Y-105690500D01*
X80461908Y-105690500D01*
X80698097Y-105690500D01*
X80931368Y-105653553D01*
X80932870Y-105653065D01*
X81155992Y-105580568D01*
X81366433Y-105473343D01*
X81557510Y-105334517D01*
X81724517Y-105167510D01*
X81863343Y-104976433D01*
X81970568Y-104765992D01*
X82043553Y-104541368D01*
X82050229Y-104499219D01*
X82080500Y-104308097D01*
X82080500Y-104071902D01*
X82051564Y-103889215D01*
X82043553Y-103838632D01*
X82002547Y-103712433D01*
X82000553Y-103642593D01*
X82032796Y-103586437D01*
X83602416Y-102016819D01*
X83663739Y-101983334D01*
X83690097Y-101980500D01*
X101270398Y-101980500D01*
X101337437Y-102000185D01*
X101380883Y-102048205D01*
X101387715Y-102061614D01*
X101508028Y-102227213D01*
X101652786Y-102371971D01*
X101807749Y-102484556D01*
X101818390Y-102492287D01*
X101909840Y-102538883D01*
X101911080Y-102539515D01*
X101961876Y-102587490D01*
X101978671Y-102655311D01*
X101956134Y-102721446D01*
X101911080Y-102760485D01*
X101818386Y-102807715D01*
X101652786Y-102928028D01*
X101508028Y-103072786D01*
X101387715Y-103238386D01*
X101294781Y-103420776D01*
X101231522Y-103615465D01*
X101199500Y-103817648D01*
X101199500Y-104022351D01*
X101231522Y-104224534D01*
X101294781Y-104419223D01*
X101335542Y-104499219D01*
X101380025Y-104586522D01*
X101387715Y-104601613D01*
X101508028Y-104767213D01*
X101652786Y-104911971D01*
X101807749Y-105024556D01*
X101818390Y-105032287D01*
X101881629Y-105064509D01*
X101911629Y-105079795D01*
X101962425Y-105127770D01*
X101979220Y-105195591D01*
X101956682Y-105261726D01*
X101911629Y-105300765D01*
X101818650Y-105348140D01*
X101653105Y-105468417D01*
X101653104Y-105468417D01*
X101508417Y-105613104D01*
X101508417Y-105613105D01*
X101388140Y-105778650D01*
X101295244Y-105960970D01*
X101232009Y-106155586D01*
X101223391Y-106210000D01*
X102066988Y-106210000D01*
X102034075Y-106267007D01*
X102000000Y-106394174D01*
X102000000Y-106525826D01*
X102034075Y-106652993D01*
X102066988Y-106710000D01*
X101223391Y-106710000D01*
X101232009Y-106764413D01*
X101295244Y-106959029D01*
X101388140Y-107141349D01*
X101508417Y-107306894D01*
X101508417Y-107306895D01*
X101653104Y-107451582D01*
X101818652Y-107571861D01*
X101911628Y-107619234D01*
X101962425Y-107667208D01*
X101979220Y-107735029D01*
X101956683Y-107801164D01*
X101911630Y-107840203D01*
X101818388Y-107887713D01*
X101652786Y-108008028D01*
X101508028Y-108152786D01*
X101387715Y-108318386D01*
X101294781Y-108500776D01*
X101231522Y-108695465D01*
X101199500Y-108897648D01*
X101199500Y-109102351D01*
X101231522Y-109304534D01*
X101294781Y-109499223D01*
X101387715Y-109681613D01*
X101508028Y-109847213D01*
X101652786Y-109991971D01*
X101772362Y-110078846D01*
X101818390Y-110112287D01*
X101907212Y-110157544D01*
X102000776Y-110205218D01*
X102000778Y-110205218D01*
X102000781Y-110205220D01*
X102069383Y-110227510D01*
X102195465Y-110268477D01*
X102296557Y-110284488D01*
X102397648Y-110300500D01*
X102397649Y-110300500D01*
X102602351Y-110300500D01*
X102602352Y-110300500D01*
X102804534Y-110268477D01*
X102999219Y-110205220D01*
X103181610Y-110112287D01*
X103286015Y-110036433D01*
X103347213Y-109991971D01*
X103347215Y-109991968D01*
X103347219Y-109991966D01*
X103491966Y-109847219D01*
X103491968Y-109847215D01*
X103491971Y-109847213D01*
X103550613Y-109766498D01*
X103612287Y-109681610D01*
X103705220Y-109499219D01*
X103768477Y-109304534D01*
X103800500Y-109102352D01*
X103800500Y-108897648D01*
X103768477Y-108695466D01*
X103705220Y-108500781D01*
X103705218Y-108500778D01*
X103705218Y-108500776D01*
X103671503Y-108434607D01*
X103612287Y-108318390D01*
X103578937Y-108272487D01*
X103491971Y-108152786D01*
X103347213Y-108008028D01*
X103181611Y-107887713D01*
X103088369Y-107840203D01*
X103037574Y-107792229D01*
X103020779Y-107724407D01*
X103043317Y-107658273D01*
X103088371Y-107619234D01*
X103181347Y-107571861D01*
X103346894Y-107451582D01*
X103346895Y-107451582D01*
X103491582Y-107306895D01*
X103491582Y-107306894D01*
X103611859Y-107141349D01*
X103704755Y-106959029D01*
X103767990Y-106764413D01*
X103776609Y-106710000D01*
X102933012Y-106710000D01*
X102965925Y-106652993D01*
X103000000Y-106525826D01*
X103000000Y-106394174D01*
X102965925Y-106267007D01*
X102933012Y-106210000D01*
X103776609Y-106210000D01*
X103767990Y-106155586D01*
X103704755Y-105960970D01*
X103611859Y-105778650D01*
X103491582Y-105613105D01*
X103491582Y-105613104D01*
X103346895Y-105468417D01*
X103181349Y-105348140D01*
X103088370Y-105300765D01*
X103037574Y-105252790D01*
X103020779Y-105184969D01*
X103043316Y-105118835D01*
X103088370Y-105079795D01*
X103088920Y-105079515D01*
X103181610Y-105032287D01*
X103202770Y-105016913D01*
X103347213Y-104911971D01*
X103347215Y-104911968D01*
X103347219Y-104911966D01*
X103491966Y-104767219D01*
X103491968Y-104767215D01*
X103491971Y-104767213D01*
X103590246Y-104631947D01*
X103612287Y-104601610D01*
X103705220Y-104419219D01*
X103768477Y-104224534D01*
X103800500Y-104022352D01*
X103800500Y-103817648D01*
X103787755Y-103737181D01*
X103768477Y-103615465D01*
X103739127Y-103525137D01*
X103705220Y-103420781D01*
X103705218Y-103420778D01*
X103705218Y-103420776D01*
X103629268Y-103271717D01*
X103612287Y-103238390D01*
X103588307Y-103205384D01*
X103564828Y-103139579D01*
X103580653Y-103071525D01*
X103630759Y-103022830D01*
X103688626Y-103008500D01*
X116551374Y-103008500D01*
X116618413Y-103028185D01*
X116664168Y-103080989D01*
X116674112Y-103150147D01*
X116651692Y-103205386D01*
X116627713Y-103238389D01*
X116534781Y-103420776D01*
X116471522Y-103615465D01*
X116439500Y-103817648D01*
X116439500Y-104022351D01*
X116471522Y-104224534D01*
X116534781Y-104419223D01*
X116575542Y-104499219D01*
X116620025Y-104586522D01*
X116627715Y-104601613D01*
X116748028Y-104767213D01*
X116892786Y-104911971D01*
X117047749Y-105024556D01*
X117058390Y-105032287D01*
X117149840Y-105078883D01*
X117151080Y-105079515D01*
X117201876Y-105127490D01*
X117218671Y-105195311D01*
X117196134Y-105261446D01*
X117151080Y-105300485D01*
X117058386Y-105347715D01*
X116892786Y-105468028D01*
X116748028Y-105612786D01*
X116627715Y-105778386D01*
X116534781Y-105960776D01*
X116471522Y-106155465D01*
X116439500Y-106357648D01*
X116439500Y-106562351D01*
X116471522Y-106764534D01*
X116534781Y-106959223D01*
X116627715Y-107141613D01*
X116748028Y-107307213D01*
X116892784Y-107451969D01*
X116929068Y-107478330D01*
X116971735Y-107533659D01*
X116977715Y-107603273D01*
X116945109Y-107665068D01*
X116884271Y-107699426D01*
X116869440Y-107701938D01*
X116832519Y-107705907D01*
X116697671Y-107756202D01*
X116697664Y-107756206D01*
X116582455Y-107842452D01*
X116582452Y-107842455D01*
X116496206Y-107957664D01*
X116496202Y-107957671D01*
X116445908Y-108092517D01*
X116439501Y-108152116D01*
X116439501Y-108152123D01*
X116439500Y-108152135D01*
X116439500Y-109847870D01*
X116439501Y-109847876D01*
X116445908Y-109907483D01*
X116496202Y-110042328D01*
X116496206Y-110042335D01*
X116582452Y-110157544D01*
X116582455Y-110157547D01*
X116697664Y-110243793D01*
X116697671Y-110243797D01*
X116832517Y-110294091D01*
X116832516Y-110294091D01*
X116839444Y-110294835D01*
X116892127Y-110300500D01*
X118587872Y-110300499D01*
X118647483Y-110294091D01*
X118782331Y-110243796D01*
X118897546Y-110157546D01*
X118983796Y-110042331D01*
X119028992Y-109921153D01*
X120699500Y-109921153D01*
X120699500Y-110078846D01*
X120730261Y-110233489D01*
X120730264Y-110233501D01*
X120790602Y-110379172D01*
X120790609Y-110379185D01*
X120878210Y-110510288D01*
X120878213Y-110510292D01*
X120989707Y-110621786D01*
X120989711Y-110621789D01*
X121120814Y-110709390D01*
X121120827Y-110709397D01*
X121199457Y-110741966D01*
X121266503Y-110769737D01*
X121421153Y-110800499D01*
X121421156Y-110800500D01*
X121421158Y-110800500D01*
X121578844Y-110800500D01*
X121578845Y-110800499D01*
X121733497Y-110769737D01*
X121879179Y-110709394D01*
X121934323Y-110672548D01*
X122010875Y-110621398D01*
X122077553Y-110600520D01*
X122079766Y-110600500D01*
X122413331Y-110600500D01*
X122413347Y-110600501D01*
X122420943Y-110600501D01*
X122579054Y-110600501D01*
X122579057Y-110600501D01*
X122731785Y-110559577D01*
X122781904Y-110530639D01*
X122868716Y-110480520D01*
X122962418Y-110386817D01*
X123023739Y-110353334D01*
X123050098Y-110350500D01*
X124270398Y-110350500D01*
X124337437Y-110370185D01*
X124380883Y-110418205D01*
X124387715Y-110431614D01*
X124508028Y-110597213D01*
X124652786Y-110741971D01*
X124807749Y-110854556D01*
X124818390Y-110862287D01*
X124934607Y-110921503D01*
X125000776Y-110955218D01*
X125000778Y-110955218D01*
X125000781Y-110955220D01*
X125086836Y-110983181D01*
X125195465Y-111018477D01*
X125296557Y-111034488D01*
X125397648Y-111050500D01*
X125397649Y-111050500D01*
X125602351Y-111050500D01*
X125602352Y-111050500D01*
X125804534Y-111018477D01*
X125999219Y-110955220D01*
X126181610Y-110862287D01*
X126304799Y-110772786D01*
X126347213Y-110741971D01*
X126347215Y-110741968D01*
X126347219Y-110741966D01*
X126491966Y-110597219D01*
X126491968Y-110597215D01*
X126491971Y-110597213D01*
X126612284Y-110431614D01*
X126612283Y-110431614D01*
X126612287Y-110431610D01*
X126619117Y-110418204D01*
X126667091Y-110367409D01*
X126729602Y-110350500D01*
X131329903Y-110350500D01*
X131396942Y-110370185D01*
X131417584Y-110386819D01*
X132205922Y-111175157D01*
X132239407Y-111236480D01*
X132236173Y-111301155D01*
X132231522Y-111315468D01*
X132199500Y-111517648D01*
X132199500Y-111722351D01*
X132231522Y-111924534D01*
X132294781Y-112119223D01*
X132387715Y-112301613D01*
X132508028Y-112467213D01*
X132652786Y-112611971D01*
X132807749Y-112724556D01*
X132818390Y-112732287D01*
X132934607Y-112791503D01*
X133000776Y-112825218D01*
X133000778Y-112825218D01*
X133000781Y-112825220D01*
X133105137Y-112859127D01*
X133195465Y-112888477D01*
X133296557Y-112904488D01*
X133397648Y-112920500D01*
X133397649Y-112920500D01*
X133602351Y-112920500D01*
X133602352Y-112920500D01*
X133804534Y-112888477D01*
X133999219Y-112825220D01*
X134181610Y-112732287D01*
X134274590Y-112664732D01*
X134347213Y-112611971D01*
X134347215Y-112611968D01*
X134347219Y-112611966D01*
X134491966Y-112467219D01*
X134491968Y-112467215D01*
X134491971Y-112467213D01*
X134612284Y-112301614D01*
X134612285Y-112301613D01*
X134612287Y-112301610D01*
X134619117Y-112288204D01*
X134667091Y-112237409D01*
X134729602Y-112220500D01*
X137543331Y-112220500D01*
X137543347Y-112220501D01*
X137550943Y-112220501D01*
X137709054Y-112220501D01*
X137709057Y-112220501D01*
X137861785Y-112179577D01*
X137911904Y-112150639D01*
X137998716Y-112100520D01*
X138110520Y-111988716D01*
X138110520Y-111988714D01*
X138120728Y-111978507D01*
X138120730Y-111978504D01*
X139396437Y-110702796D01*
X139457758Y-110669313D01*
X139522433Y-110672547D01*
X139648632Y-110713553D01*
X139736110Y-110727408D01*
X139881903Y-110750500D01*
X139881908Y-110750500D01*
X140118097Y-110750500D01*
X140351368Y-110713553D01*
X140384468Y-110702798D01*
X140575992Y-110640568D01*
X140786433Y-110533343D01*
X140977510Y-110394517D01*
X141144517Y-110227510D01*
X141283343Y-110036433D01*
X141343583Y-109918204D01*
X141391558Y-109867409D01*
X141454068Y-109850500D01*
X145045932Y-109850500D01*
X145112971Y-109870185D01*
X145156416Y-109918203D01*
X145216657Y-110036433D01*
X145355483Y-110227510D01*
X145522490Y-110394517D01*
X145713567Y-110533343D01*
X145812991Y-110584002D01*
X145924003Y-110640566D01*
X145924005Y-110640566D01*
X145924008Y-110640568D01*
X146012476Y-110669313D01*
X146148631Y-110713553D01*
X146381903Y-110750500D01*
X146381908Y-110750500D01*
X146618097Y-110750500D01*
X146851368Y-110713553D01*
X146884468Y-110702798D01*
X147075992Y-110640568D01*
X147286433Y-110533343D01*
X147477510Y-110394517D01*
X147644517Y-110227510D01*
X147783343Y-110036433D01*
X147890568Y-109825992D01*
X147963553Y-109601368D01*
X147981238Y-109489711D01*
X148000500Y-109368097D01*
X148000500Y-109131902D01*
X147963553Y-108898631D01*
X147890566Y-108674003D01*
X147834002Y-108562991D01*
X147783343Y-108463567D01*
X147644517Y-108272490D01*
X147477510Y-108105483D01*
X147286433Y-107966657D01*
X147268783Y-107957664D01*
X147075996Y-107859433D01*
X146851368Y-107786446D01*
X146618097Y-107749500D01*
X146618092Y-107749500D01*
X146381908Y-107749500D01*
X146381903Y-107749500D01*
X146148631Y-107786446D01*
X145924003Y-107859433D01*
X145713566Y-107966657D01*
X145604550Y-108045862D01*
X145522490Y-108105483D01*
X145522488Y-108105485D01*
X145522487Y-108105485D01*
X145355485Y-108272487D01*
X145355485Y-108272488D01*
X145355483Y-108272490D01*
X145322138Y-108318386D01*
X145216657Y-108463566D01*
X145156417Y-108581795D01*
X145108442Y-108632591D01*
X145045932Y-108649500D01*
X141454068Y-108649500D01*
X141387029Y-108629815D01*
X141343583Y-108581795D01*
X141283343Y-108463567D01*
X141144517Y-108272490D01*
X140977510Y-108105483D01*
X140786433Y-107966657D01*
X140768783Y-107957664D01*
X140575996Y-107859433D01*
X140351368Y-107786446D01*
X140118097Y-107749500D01*
X140118092Y-107749500D01*
X139881908Y-107749500D01*
X139881903Y-107749500D01*
X139648631Y-107786446D01*
X139424003Y-107859433D01*
X139213566Y-107966657D01*
X139104550Y-108045862D01*
X139022490Y-108105483D01*
X139022488Y-108105485D01*
X139022487Y-108105485D01*
X138855485Y-108272487D01*
X138855485Y-108272488D01*
X138855483Y-108272490D01*
X138822138Y-108318386D01*
X138716657Y-108463566D01*
X138609433Y-108674003D01*
X138536446Y-108898631D01*
X138499500Y-109131902D01*
X138499500Y-109368097D01*
X138536447Y-109601369D01*
X138536447Y-109601372D01*
X138577450Y-109727564D01*
X138579445Y-109797405D01*
X138547200Y-109853563D01*
X137417584Y-110983181D01*
X137356261Y-111016666D01*
X137329903Y-111019500D01*
X134729602Y-111019500D01*
X134662563Y-110999815D01*
X134619117Y-110951795D01*
X134612284Y-110938385D01*
X134491971Y-110772786D01*
X134347213Y-110628028D01*
X134181613Y-110507715D01*
X134181612Y-110507714D01*
X134181610Y-110507713D01*
X134124653Y-110478691D01*
X133999223Y-110414781D01*
X133804534Y-110351522D01*
X133629995Y-110323878D01*
X133602352Y-110319500D01*
X133397648Y-110319500D01*
X133359599Y-110325526D01*
X133195468Y-110351522D01*
X133189892Y-110353334D01*
X133181154Y-110356173D01*
X133111313Y-110358167D01*
X133055157Y-110325922D01*
X132117590Y-109388355D01*
X132117588Y-109388352D01*
X131998717Y-109269481D01*
X131998716Y-109269480D01*
X131911904Y-109219360D01*
X131911904Y-109219359D01*
X131911900Y-109219358D01*
X131861785Y-109190423D01*
X131709057Y-109149499D01*
X131550943Y-109149499D01*
X131543347Y-109149499D01*
X131543331Y-109149500D01*
X126729602Y-109149500D01*
X126662563Y-109129815D01*
X126619117Y-109081795D01*
X126612284Y-109068385D01*
X126491971Y-108902786D01*
X126347213Y-108758028D01*
X126181613Y-108637715D01*
X126181612Y-108637714D01*
X126181610Y-108637713D01*
X126124653Y-108608691D01*
X125999223Y-108544781D01*
X125804534Y-108481522D01*
X125629995Y-108453878D01*
X125602352Y-108449500D01*
X125397648Y-108449500D01*
X125373329Y-108453351D01*
X125195465Y-108481522D01*
X125000776Y-108544781D01*
X124818386Y-108637715D01*
X124652786Y-108758028D01*
X124508028Y-108902786D01*
X124387715Y-109068385D01*
X124380883Y-109081795D01*
X124332909Y-109132591D01*
X124270398Y-109149500D01*
X122670940Y-109149500D01*
X122630019Y-109160464D01*
X122630019Y-109160465D01*
X122592751Y-109170451D01*
X122518214Y-109190423D01*
X122518209Y-109190426D01*
X122381290Y-109269475D01*
X122381282Y-109269481D01*
X122287583Y-109363181D01*
X122260655Y-109377884D01*
X122234837Y-109394477D01*
X122228636Y-109395368D01*
X122226260Y-109396666D01*
X122199902Y-109399500D01*
X122079766Y-109399500D01*
X122012727Y-109379815D01*
X122010875Y-109378602D01*
X121879185Y-109290609D01*
X121879172Y-109290602D01*
X121733501Y-109230264D01*
X121733489Y-109230261D01*
X121578845Y-109199500D01*
X121578842Y-109199500D01*
X121421158Y-109199500D01*
X121421155Y-109199500D01*
X121266510Y-109230261D01*
X121266498Y-109230264D01*
X121120827Y-109290602D01*
X121120814Y-109290609D01*
X120989711Y-109378210D01*
X120989707Y-109378213D01*
X120878213Y-109489707D01*
X120878210Y-109489711D01*
X120790609Y-109620814D01*
X120790602Y-109620827D01*
X120730264Y-109766498D01*
X120730261Y-109766510D01*
X120699500Y-109921153D01*
X119028992Y-109921153D01*
X119034091Y-109907483D01*
X119040500Y-109847873D01*
X119040499Y-108152128D01*
X119034091Y-108092517D01*
X118987148Y-107966657D01*
X118983797Y-107957671D01*
X118983793Y-107957664D01*
X118897547Y-107842455D01*
X118897544Y-107842452D01*
X118782335Y-107756206D01*
X118782328Y-107756202D01*
X118647482Y-107705908D01*
X118647483Y-107705908D01*
X118610560Y-107701939D01*
X118546009Y-107675201D01*
X118506160Y-107617809D01*
X118503667Y-107547984D01*
X118539319Y-107487895D01*
X118550930Y-107478331D01*
X118587219Y-107451966D01*
X118731966Y-107307219D01*
X118731968Y-107307215D01*
X118731971Y-107307213D01*
X118784732Y-107234590D01*
X118852287Y-107141610D01*
X118945220Y-106959219D01*
X119008477Y-106764534D01*
X119040500Y-106562352D01*
X119040500Y-106357648D01*
X119017600Y-106213065D01*
X119008477Y-106155465D01*
X118945218Y-105960776D01*
X118882920Y-105838510D01*
X118882919Y-105838506D01*
X118852288Y-105778391D01*
X118852287Y-105778389D01*
X118731971Y-105612786D01*
X118587213Y-105468028D01*
X118421614Y-105347715D01*
X118395711Y-105334517D01*
X118328917Y-105300483D01*
X118278123Y-105252511D01*
X118261328Y-105184690D01*
X118283865Y-105118555D01*
X118328917Y-105079516D01*
X118421610Y-105032287D01*
X118442770Y-105016913D01*
X118587213Y-104911971D01*
X118587215Y-104911968D01*
X118587219Y-104911966D01*
X118731966Y-104767219D01*
X118731968Y-104767215D01*
X118731971Y-104767213D01*
X118818814Y-104647682D01*
X124200000Y-104647682D01*
X124200000Y-104852317D01*
X124232009Y-105054417D01*
X124295244Y-105249031D01*
X124388141Y-105431350D01*
X124388147Y-105431359D01*
X124420523Y-105475921D01*
X124420524Y-105475922D01*
X125100000Y-104796446D01*
X125100000Y-104802661D01*
X125127259Y-104904394D01*
X125179920Y-104995606D01*
X125254394Y-105070080D01*
X125345606Y-105122741D01*
X125447339Y-105150000D01*
X125453553Y-105150000D01*
X124774076Y-105829474D01*
X124818650Y-105861859D01*
X125000968Y-105954755D01*
X125195582Y-106017990D01*
X125397683Y-106050000D01*
X125602317Y-106050000D01*
X125804417Y-106017990D01*
X125999031Y-105954755D01*
X126181349Y-105861859D01*
X126225922Y-105829474D01*
X125546447Y-105150000D01*
X125552661Y-105150000D01*
X125654394Y-105122741D01*
X125745606Y-105070080D01*
X125820080Y-104995606D01*
X125872741Y-104904394D01*
X125900000Y-104802661D01*
X125900000Y-104796447D01*
X126579474Y-105475921D01*
X126611859Y-105431349D01*
X126704755Y-105249031D01*
X126767990Y-105054417D01*
X126800000Y-104852317D01*
X126800000Y-104647682D01*
X126767990Y-104445582D01*
X126704755Y-104250968D01*
X126611859Y-104068650D01*
X126579474Y-104024077D01*
X126579474Y-104024076D01*
X125900000Y-104703551D01*
X125900000Y-104697339D01*
X125872741Y-104595606D01*
X125820080Y-104504394D01*
X125745606Y-104429920D01*
X125654394Y-104377259D01*
X125552661Y-104350000D01*
X125546446Y-104350000D01*
X126225922Y-103670524D01*
X126225921Y-103670523D01*
X126181359Y-103638147D01*
X126181350Y-103638141D01*
X125999031Y-103545244D01*
X125804417Y-103482009D01*
X125602317Y-103450000D01*
X125397683Y-103450000D01*
X125195582Y-103482009D01*
X125000968Y-103545244D01*
X124818644Y-103638143D01*
X124774077Y-103670523D01*
X124774077Y-103670524D01*
X125453554Y-104350000D01*
X125447339Y-104350000D01*
X125345606Y-104377259D01*
X125254394Y-104429920D01*
X125179920Y-104504394D01*
X125127259Y-104595606D01*
X125100000Y-104697339D01*
X125100000Y-104703553D01*
X124420524Y-104024077D01*
X124420523Y-104024077D01*
X124388143Y-104068644D01*
X124295244Y-104250968D01*
X124232009Y-104445582D01*
X124200000Y-104647682D01*
X118818814Y-104647682D01*
X118852286Y-104601611D01*
X118859975Y-104586522D01*
X118859975Y-104586521D01*
X118867996Y-104570780D01*
X118945220Y-104419219D01*
X119008477Y-104224534D01*
X119040500Y-104022352D01*
X119040500Y-103817648D01*
X119018881Y-103681155D01*
X119008477Y-103615465D01*
X118979127Y-103525137D01*
X118945220Y-103420781D01*
X118945218Y-103420778D01*
X118945218Y-103420776D01*
X118869268Y-103271717D01*
X118852287Y-103238390D01*
X118828307Y-103205384D01*
X118804828Y-103139579D01*
X118820653Y-103071525D01*
X118870759Y-103022830D01*
X118928626Y-103008500D01*
X131607903Y-103008500D01*
X131674942Y-103028185D01*
X131695584Y-103044819D01*
X132205922Y-103555157D01*
X132239407Y-103616480D01*
X132236173Y-103681155D01*
X132231522Y-103695468D01*
X132199500Y-103897648D01*
X132199500Y-104102351D01*
X132231522Y-104304534D01*
X132294781Y-104499223D01*
X132346951Y-104601610D01*
X132385665Y-104677591D01*
X132387715Y-104681613D01*
X132508028Y-104847213D01*
X132652786Y-104991971D01*
X132787999Y-105090207D01*
X132818390Y-105112287D01*
X132926763Y-105167506D01*
X133000776Y-105205218D01*
X133000778Y-105205218D01*
X133000781Y-105205220D01*
X133101267Y-105237870D01*
X133195465Y-105268477D01*
X133268344Y-105280020D01*
X133397648Y-105300500D01*
X133397649Y-105300500D01*
X133602351Y-105300500D01*
X133602352Y-105300500D01*
X133804534Y-105268477D01*
X133999219Y-105205220D01*
X134181610Y-105112287D01*
X134274590Y-105044732D01*
X134347213Y-104991971D01*
X134347215Y-104991968D01*
X134347219Y-104991966D01*
X134491966Y-104847219D01*
X134491968Y-104847215D01*
X134491971Y-104847213D01*
X134600859Y-104697339D01*
X134612287Y-104681610D01*
X134637592Y-104631947D01*
X138500000Y-104631947D01*
X138500000Y-104868052D01*
X138536934Y-105101247D01*
X138609897Y-105325802D01*
X138717087Y-105536174D01*
X138777338Y-105619104D01*
X138777340Y-105619105D01*
X139476212Y-104920233D01*
X139487482Y-104962292D01*
X139559890Y-105087708D01*
X139662292Y-105190110D01*
X139787708Y-105262518D01*
X139829765Y-105273787D01*
X139130893Y-105972658D01*
X139213828Y-106032914D01*
X139424197Y-106140102D01*
X139648752Y-106213065D01*
X139648751Y-106213065D01*
X139881948Y-106250000D01*
X140118052Y-106250000D01*
X140351247Y-106213065D01*
X140575802Y-106140102D01*
X140786163Y-106032918D01*
X140786169Y-106032914D01*
X140869104Y-105972658D01*
X140869105Y-105972658D01*
X140170233Y-105273787D01*
X140212292Y-105262518D01*
X140337708Y-105190110D01*
X140440110Y-105087708D01*
X140512518Y-104962292D01*
X140523787Y-104920233D01*
X141222658Y-105619105D01*
X141222658Y-105619104D01*
X141282914Y-105536169D01*
X141282918Y-105536163D01*
X141390102Y-105325802D01*
X141463065Y-105101247D01*
X141500000Y-104868052D01*
X141500000Y-104631947D01*
X145000000Y-104631947D01*
X145000000Y-104868052D01*
X145036934Y-105101247D01*
X145109897Y-105325802D01*
X145217087Y-105536174D01*
X145277338Y-105619104D01*
X145277340Y-105619105D01*
X145976212Y-104920233D01*
X145987482Y-104962292D01*
X146059890Y-105087708D01*
X146162292Y-105190110D01*
X146287708Y-105262518D01*
X146329765Y-105273787D01*
X145630893Y-105972658D01*
X145713828Y-106032914D01*
X145924197Y-106140102D01*
X146148752Y-106213065D01*
X146148751Y-106213065D01*
X146381948Y-106250000D01*
X146618052Y-106250000D01*
X146851247Y-106213065D01*
X147075802Y-106140102D01*
X147286163Y-106032918D01*
X147286169Y-106032914D01*
X147369104Y-105972658D01*
X147369105Y-105972658D01*
X146670233Y-105273787D01*
X146712292Y-105262518D01*
X146837708Y-105190110D01*
X146940110Y-105087708D01*
X147012518Y-104962292D01*
X147023787Y-104920234D01*
X147722658Y-105619105D01*
X147722658Y-105619104D01*
X147782914Y-105536169D01*
X147782918Y-105536163D01*
X147890102Y-105325802D01*
X147963065Y-105101247D01*
X148000000Y-104868052D01*
X148000000Y-104631947D01*
X147963065Y-104398752D01*
X147890102Y-104174197D01*
X147782914Y-103963828D01*
X147722658Y-103880894D01*
X147722658Y-103880893D01*
X147023787Y-104579765D01*
X147012518Y-104537708D01*
X146940110Y-104412292D01*
X146837708Y-104309890D01*
X146712292Y-104237482D01*
X146670234Y-104226212D01*
X147369105Y-103527340D01*
X147369104Y-103527338D01*
X147286174Y-103467087D01*
X147075802Y-103359897D01*
X146851247Y-103286934D01*
X146851248Y-103286934D01*
X146618052Y-103250000D01*
X146381948Y-103250000D01*
X146148752Y-103286934D01*
X145924197Y-103359897D01*
X145713830Y-103467084D01*
X145630894Y-103527340D01*
X146329766Y-104226212D01*
X146287708Y-104237482D01*
X146162292Y-104309890D01*
X146059890Y-104412292D01*
X145987482Y-104537708D01*
X145976212Y-104579766D01*
X145277340Y-103880894D01*
X145217084Y-103963830D01*
X145109897Y-104174197D01*
X145036934Y-104398752D01*
X145000000Y-104631947D01*
X141500000Y-104631947D01*
X141463065Y-104398752D01*
X141390102Y-104174197D01*
X141282914Y-103963828D01*
X141222658Y-103880894D01*
X141222658Y-103880893D01*
X140523787Y-104579765D01*
X140512518Y-104537708D01*
X140440110Y-104412292D01*
X140337708Y-104309890D01*
X140212292Y-104237482D01*
X140170234Y-104226212D01*
X140869105Y-103527340D01*
X140869104Y-103527339D01*
X140786174Y-103467087D01*
X140575802Y-103359897D01*
X140351247Y-103286934D01*
X140351248Y-103286934D01*
X140118052Y-103250000D01*
X139881948Y-103250000D01*
X139648752Y-103286934D01*
X139424197Y-103359897D01*
X139213830Y-103467084D01*
X139130894Y-103527340D01*
X139829766Y-104226212D01*
X139787708Y-104237482D01*
X139662292Y-104309890D01*
X139559890Y-104412292D01*
X139487482Y-104537708D01*
X139476212Y-104579766D01*
X138777340Y-103880894D01*
X138717084Y-103963830D01*
X138609897Y-104174197D01*
X138536934Y-104398752D01*
X138500000Y-104631947D01*
X134637592Y-104631947D01*
X134705220Y-104499219D01*
X134768477Y-104304534D01*
X134800500Y-104102352D01*
X134800500Y-103897648D01*
X134787829Y-103817648D01*
X134768477Y-103695465D01*
X134758224Y-103663912D01*
X134705220Y-103500781D01*
X134612287Y-103318390D01*
X134589433Y-103286934D01*
X134491971Y-103152786D01*
X134347213Y-103008028D01*
X134181613Y-102887715D01*
X134181612Y-102887714D01*
X134181610Y-102887713D01*
X134124653Y-102858691D01*
X133999223Y-102794781D01*
X133804534Y-102731522D01*
X133629995Y-102703878D01*
X133602352Y-102699500D01*
X133397648Y-102699500D01*
X133360094Y-102705448D01*
X133195468Y-102731522D01*
X133186717Y-102734365D01*
X133181154Y-102736173D01*
X133111313Y-102738167D01*
X133055157Y-102705922D01*
X132395590Y-102046355D01*
X132395588Y-102046352D01*
X132276717Y-101927481D01*
X132276709Y-101927475D01*
X132160738Y-101860520D01*
X132160738Y-101860519D01*
X132160733Y-101860518D01*
X132153423Y-101856297D01*
X132139786Y-101848423D01*
X132101603Y-101838192D01*
X131987057Y-101807499D01*
X131828943Y-101807499D01*
X131821347Y-101807499D01*
X131821331Y-101807500D01*
X119133681Y-101807500D01*
X119066642Y-101787815D01*
X119020887Y-101735011D01*
X119010943Y-101665853D01*
X119011208Y-101664102D01*
X119016609Y-101630000D01*
X118173012Y-101630000D01*
X118205925Y-101572993D01*
X118240000Y-101445826D01*
X118240000Y-101314174D01*
X118205925Y-101187007D01*
X118173012Y-101130000D01*
X119016609Y-101130000D01*
X119007990Y-101075586D01*
X118944755Y-100880970D01*
X118851859Y-100698650D01*
X118731582Y-100533105D01*
X118731582Y-100533104D01*
X118586895Y-100388417D01*
X118421349Y-100268140D01*
X118328370Y-100220765D01*
X118277574Y-100172790D01*
X118260779Y-100104969D01*
X118283316Y-100038835D01*
X118328370Y-99999795D01*
X118328920Y-99999515D01*
X118421610Y-99952287D01*
X118442770Y-99936913D01*
X118587213Y-99831971D01*
X118587215Y-99831968D01*
X118587219Y-99831966D01*
X118731966Y-99687219D01*
X118731968Y-99687215D01*
X118731971Y-99687213D01*
X118852284Y-99521614D01*
X118852285Y-99521613D01*
X118852287Y-99521610D01*
X118859117Y-99508204D01*
X118907091Y-99457409D01*
X118969602Y-99440500D01*
X120265300Y-99440500D01*
X120332339Y-99460185D01*
X120368403Y-99495610D01*
X120378212Y-99510291D01*
X120489707Y-99621786D01*
X120489711Y-99621789D01*
X120620814Y-99709390D01*
X120620827Y-99709397D01*
X120720060Y-99750500D01*
X120766503Y-99769737D01*
X120921153Y-99800499D01*
X120921156Y-99800500D01*
X120921158Y-99800500D01*
X121078844Y-99800500D01*
X121078845Y-99800499D01*
X121233497Y-99769737D01*
X121379179Y-99709394D01*
X121510289Y-99621789D01*
X121621789Y-99510289D01*
X121709394Y-99379179D01*
X121769737Y-99233497D01*
X121800500Y-99078842D01*
X121800500Y-98921158D01*
X121800500Y-98921155D01*
X121800499Y-98921153D01*
X121790361Y-98870185D01*
X121769737Y-98766503D01*
X121753608Y-98727564D01*
X121709397Y-98620827D01*
X121709390Y-98620814D01*
X121621789Y-98489711D01*
X121621786Y-98489707D01*
X121510292Y-98378213D01*
X121510288Y-98378210D01*
X121379185Y-98290609D01*
X121379172Y-98290602D01*
X121233501Y-98230264D01*
X121233489Y-98230261D01*
X121078845Y-98199500D01*
X121078842Y-98199500D01*
X120921158Y-98199500D01*
X120921155Y-98199500D01*
X120766510Y-98230261D01*
X120760676Y-98232031D01*
X120760471Y-98231358D01*
X120719538Y-98239500D01*
X118969602Y-98239500D01*
X118902563Y-98219815D01*
X118859117Y-98171795D01*
X118852284Y-98158385D01*
X118731971Y-97992786D01*
X118587213Y-97848028D01*
X118421614Y-97727715D01*
X118415006Y-97724348D01*
X118328917Y-97680483D01*
X118278123Y-97632511D01*
X118261328Y-97564690D01*
X118283865Y-97498555D01*
X118328917Y-97459516D01*
X118421610Y-97412287D01*
X118442770Y-97396913D01*
X118587213Y-97291971D01*
X118587215Y-97291968D01*
X118587219Y-97291966D01*
X118731966Y-97147219D01*
X118731968Y-97147215D01*
X118731971Y-97147213D01*
X118852284Y-96981614D01*
X118852285Y-96981613D01*
X118852287Y-96981610D01*
X118859117Y-96968204D01*
X118907091Y-96917409D01*
X118969602Y-96900500D01*
X123999903Y-96900500D01*
X124066942Y-96920185D01*
X124087584Y-96936819D01*
X124705922Y-97555157D01*
X124739407Y-97616480D01*
X124736173Y-97681155D01*
X124731522Y-97695468D01*
X124699500Y-97897648D01*
X124699500Y-98102351D01*
X124731522Y-98304534D01*
X124794781Y-98499223D01*
X124887715Y-98681613D01*
X125008028Y-98847213D01*
X125152786Y-98991971D01*
X125272359Y-99078844D01*
X125318390Y-99112287D01*
X125434607Y-99171503D01*
X125500776Y-99205218D01*
X125500778Y-99205218D01*
X125500781Y-99205220D01*
X125569383Y-99227510D01*
X125695465Y-99268477D01*
X125796557Y-99284488D01*
X125897648Y-99300500D01*
X125897649Y-99300500D01*
X126102351Y-99300500D01*
X126102352Y-99300500D01*
X126304534Y-99268477D01*
X126499219Y-99205220D01*
X126655292Y-99125696D01*
X126723959Y-99112801D01*
X126788699Y-99139077D01*
X126799265Y-99148500D01*
X127941284Y-100290520D01*
X127941286Y-100290521D01*
X127941290Y-100290524D01*
X128078209Y-100369573D01*
X128078216Y-100369577D01*
X128230943Y-100410501D01*
X128230945Y-100410501D01*
X128396654Y-100410501D01*
X128396670Y-100410500D01*
X132270398Y-100410500D01*
X132337437Y-100430185D01*
X132380883Y-100478205D01*
X132387715Y-100491614D01*
X132508028Y-100657213D01*
X132652786Y-100801971D01*
X132787000Y-100899481D01*
X132818390Y-100922287D01*
X132931464Y-100979901D01*
X133000776Y-101015218D01*
X133000778Y-101015218D01*
X133000781Y-101015220D01*
X133105137Y-101049127D01*
X133195465Y-101078477D01*
X133296557Y-101094488D01*
X133397648Y-101110500D01*
X133397649Y-101110500D01*
X133602351Y-101110500D01*
X133602352Y-101110500D01*
X133804534Y-101078477D01*
X133999219Y-101015220D01*
X134181610Y-100922287D01*
X134281988Y-100849359D01*
X134347213Y-100801971D01*
X134347215Y-100801968D01*
X134347219Y-100801966D01*
X134491966Y-100657219D01*
X134491968Y-100657215D01*
X134491971Y-100657213D01*
X134612284Y-100491614D01*
X134612283Y-100491614D01*
X134612287Y-100491610D01*
X134619117Y-100478204D01*
X134667091Y-100427409D01*
X134729602Y-100410500D01*
X138103331Y-100410500D01*
X138103347Y-100410501D01*
X138110943Y-100410501D01*
X138269054Y-100410501D01*
X138269057Y-100410501D01*
X138421785Y-100369577D01*
X138471904Y-100340639D01*
X138558716Y-100290520D01*
X138670520Y-100178716D01*
X138670520Y-100178714D01*
X138680728Y-100168507D01*
X138680730Y-100168504D01*
X139146437Y-99702796D01*
X139207758Y-99669313D01*
X139272433Y-99672547D01*
X139398632Y-99713553D01*
X139486110Y-99727408D01*
X139631903Y-99750500D01*
X139631908Y-99750500D01*
X139868097Y-99750500D01*
X140101368Y-99713553D01*
X140182415Y-99687219D01*
X140325992Y-99640568D01*
X140536433Y-99533343D01*
X140727510Y-99394517D01*
X140894517Y-99227510D01*
X141033343Y-99036433D01*
X141093583Y-98918204D01*
X141141558Y-98867409D01*
X141204068Y-98850500D01*
X144795932Y-98850500D01*
X144862971Y-98870185D01*
X144906416Y-98918203D01*
X144966657Y-99036433D01*
X145105483Y-99227510D01*
X145272490Y-99394517D01*
X145463567Y-99533343D01*
X145562991Y-99584002D01*
X145674003Y-99640566D01*
X145674005Y-99640566D01*
X145674008Y-99640568D01*
X145762476Y-99669313D01*
X145898631Y-99713553D01*
X146131903Y-99750500D01*
X146131908Y-99750500D01*
X146368097Y-99750500D01*
X146601368Y-99713553D01*
X146682415Y-99687219D01*
X146825992Y-99640568D01*
X147036433Y-99533343D01*
X147227510Y-99394517D01*
X147394517Y-99227510D01*
X147533343Y-99036433D01*
X147640568Y-98825992D01*
X147713553Y-98601368D01*
X147750500Y-98368097D01*
X147750500Y-98131902D01*
X147713553Y-97898631D01*
X147679689Y-97794412D01*
X147640568Y-97674008D01*
X147640566Y-97674005D01*
X147640566Y-97674003D01*
X147533342Y-97463566D01*
X147530399Y-97459515D01*
X147394517Y-97272490D01*
X147227510Y-97105483D01*
X147036433Y-96966657D01*
X146945227Y-96920185D01*
X146825996Y-96859433D01*
X146601368Y-96786446D01*
X146368097Y-96749500D01*
X146368092Y-96749500D01*
X146131908Y-96749500D01*
X146131903Y-96749500D01*
X145898631Y-96786446D01*
X145674003Y-96859433D01*
X145463566Y-96966657D01*
X145354550Y-97045862D01*
X145272490Y-97105483D01*
X145272488Y-97105485D01*
X145272487Y-97105485D01*
X145105485Y-97272487D01*
X145105485Y-97272488D01*
X145105483Y-97272490D01*
X145072138Y-97318386D01*
X144966657Y-97463566D01*
X144944277Y-97507490D01*
X144909721Y-97575311D01*
X144906417Y-97581795D01*
X144858442Y-97632591D01*
X144795932Y-97649500D01*
X141204068Y-97649500D01*
X141137029Y-97629815D01*
X141093583Y-97581795D01*
X141033343Y-97463567D01*
X140894517Y-97272490D01*
X140727510Y-97105483D01*
X140536433Y-96966657D01*
X140445227Y-96920185D01*
X140325996Y-96859433D01*
X140101368Y-96786446D01*
X139868097Y-96749500D01*
X139868092Y-96749500D01*
X139631908Y-96749500D01*
X139631903Y-96749500D01*
X139398631Y-96786446D01*
X139174003Y-96859433D01*
X138963566Y-96966657D01*
X138854550Y-97045862D01*
X138772490Y-97105483D01*
X138772488Y-97105485D01*
X138772487Y-97105485D01*
X138605485Y-97272487D01*
X138605485Y-97272488D01*
X138605483Y-97272490D01*
X138572138Y-97318386D01*
X138466657Y-97463566D01*
X138359433Y-97674003D01*
X138286446Y-97898631D01*
X138249500Y-98131902D01*
X138249500Y-98368097D01*
X138286447Y-98601369D01*
X138286447Y-98601372D01*
X138327450Y-98727564D01*
X138329445Y-98797405D01*
X138297200Y-98853563D01*
X137977582Y-99173182D01*
X137916261Y-99206666D01*
X137889903Y-99209500D01*
X134729602Y-99209500D01*
X134662563Y-99189815D01*
X134619117Y-99141795D01*
X134612284Y-99128385D01*
X134491971Y-98962786D01*
X134347213Y-98818028D01*
X134181613Y-98697715D01*
X134181612Y-98697714D01*
X134181610Y-98697713D01*
X134124653Y-98668691D01*
X133999223Y-98604781D01*
X133804534Y-98541522D01*
X133629995Y-98513878D01*
X133602352Y-98509500D01*
X133397648Y-98509500D01*
X133373329Y-98513351D01*
X133195465Y-98541522D01*
X133000776Y-98604781D01*
X132818386Y-98697715D01*
X132652786Y-98818028D01*
X132508028Y-98962786D01*
X132387715Y-99128385D01*
X132380883Y-99141795D01*
X132332909Y-99192591D01*
X132270398Y-99209500D01*
X128610098Y-99209500D01*
X128543059Y-99189815D01*
X128522417Y-99173181D01*
X127336819Y-97987583D01*
X127303334Y-97926260D01*
X127300500Y-97899902D01*
X127300500Y-97897648D01*
X127268477Y-97695465D01*
X127228205Y-97571523D01*
X127205220Y-97500781D01*
X127205218Y-97500778D01*
X127205218Y-97500776D01*
X127160128Y-97412284D01*
X127112287Y-97318390D01*
X127078937Y-97272487D01*
X126991971Y-97152786D01*
X126847213Y-97008028D01*
X126681613Y-96887715D01*
X126681612Y-96887714D01*
X126681610Y-96887713D01*
X126624653Y-96858691D01*
X126499223Y-96794781D01*
X126304534Y-96731522D01*
X126129995Y-96703878D01*
X126102352Y-96699500D01*
X125897648Y-96699500D01*
X125859599Y-96705526D01*
X125695468Y-96731522D01*
X125686717Y-96734365D01*
X125681154Y-96736173D01*
X125611313Y-96738167D01*
X125555157Y-96705922D01*
X124787590Y-95938355D01*
X124787588Y-95938352D01*
X124668717Y-95819481D01*
X124668716Y-95819480D01*
X124581904Y-95769360D01*
X124581904Y-95769359D01*
X124581900Y-95769358D01*
X124531785Y-95740423D01*
X124379057Y-95699499D01*
X124220943Y-95699499D01*
X124213347Y-95699499D01*
X124213331Y-95699500D01*
X118969602Y-95699500D01*
X118902563Y-95679815D01*
X118859117Y-95631795D01*
X118852284Y-95618385D01*
X118731971Y-95452786D01*
X118587213Y-95308028D01*
X118421614Y-95187715D01*
X118415006Y-95184348D01*
X118328917Y-95140483D01*
X118322893Y-95134794D01*
X118315016Y-95132217D01*
X118297867Y-95111158D01*
X118278123Y-95092511D01*
X118276130Y-95084466D01*
X118270897Y-95078039D01*
X118267855Y-95051049D01*
X118261328Y-95024690D01*
X118264001Y-95016845D01*
X118263073Y-95008609D01*
X118275104Y-94984262D01*
X118283865Y-94958555D01*
X118291156Y-94951779D01*
X118294028Y-94945970D01*
X118312409Y-94932032D01*
X118321395Y-94923684D01*
X118325084Y-94921469D01*
X118421610Y-94872287D01*
X118587219Y-94751966D01*
X118731966Y-94607219D01*
X118731968Y-94607215D01*
X118731971Y-94607213D01*
X118796272Y-94518709D01*
X118852287Y-94441610D01*
X118945220Y-94259219D01*
X119008477Y-94064534D01*
X119040500Y-93862352D01*
X119040500Y-93657648D01*
X119008477Y-93455466D01*
X119003825Y-93441151D01*
X119001832Y-93371312D01*
X119034075Y-93315158D01*
X119451551Y-92897682D01*
X124700000Y-92897682D01*
X124700000Y-93102317D01*
X124732009Y-93304417D01*
X124795244Y-93499031D01*
X124888141Y-93681350D01*
X124888147Y-93681359D01*
X124920523Y-93725921D01*
X124920524Y-93725922D01*
X125600000Y-93046446D01*
X125600000Y-93052661D01*
X125627259Y-93154394D01*
X125679920Y-93245606D01*
X125754394Y-93320080D01*
X125845606Y-93372741D01*
X125947339Y-93400000D01*
X125953553Y-93400000D01*
X125274076Y-94079474D01*
X125318650Y-94111859D01*
X125500968Y-94204755D01*
X125695582Y-94267990D01*
X125897683Y-94300000D01*
X126102317Y-94300000D01*
X126304417Y-94267990D01*
X126499031Y-94204755D01*
X126681349Y-94111859D01*
X126725921Y-94079474D01*
X126046447Y-93400000D01*
X126052661Y-93400000D01*
X126154394Y-93372741D01*
X126245606Y-93320080D01*
X126320080Y-93245606D01*
X126372741Y-93154394D01*
X126400000Y-93052661D01*
X126400000Y-93046448D01*
X127079474Y-93725922D01*
X127079474Y-93725921D01*
X127111861Y-93681347D01*
X127111861Y-93681346D01*
X127137031Y-93631947D01*
X138250000Y-93631947D01*
X138250000Y-93868052D01*
X138286934Y-94101247D01*
X138359897Y-94325802D01*
X138467087Y-94536174D01*
X138527338Y-94619104D01*
X138527340Y-94619105D01*
X139226212Y-93920233D01*
X139237482Y-93962292D01*
X139309890Y-94087708D01*
X139412292Y-94190110D01*
X139537708Y-94262518D01*
X139579765Y-94273787D01*
X138880893Y-94972658D01*
X138963828Y-95032914D01*
X139174197Y-95140102D01*
X139398752Y-95213065D01*
X139398751Y-95213065D01*
X139631948Y-95250000D01*
X139868052Y-95250000D01*
X140101247Y-95213065D01*
X140325802Y-95140102D01*
X140536163Y-95032918D01*
X140536169Y-95032914D01*
X140619104Y-94972658D01*
X140619105Y-94972658D01*
X139920233Y-94273787D01*
X139962292Y-94262518D01*
X140087708Y-94190110D01*
X140190110Y-94087708D01*
X140262518Y-93962292D01*
X140273787Y-93920234D01*
X140972658Y-94619105D01*
X140972658Y-94619104D01*
X141032914Y-94536169D01*
X141032918Y-94536163D01*
X141140102Y-94325802D01*
X141213065Y-94101247D01*
X141250000Y-93868052D01*
X141250000Y-93631947D01*
X144750000Y-93631947D01*
X144750000Y-93868052D01*
X144786934Y-94101247D01*
X144859897Y-94325802D01*
X144967087Y-94536174D01*
X145027338Y-94619104D01*
X145027340Y-94619105D01*
X145726212Y-93920233D01*
X145737482Y-93962292D01*
X145809890Y-94087708D01*
X145912292Y-94190110D01*
X146037708Y-94262518D01*
X146079765Y-94273787D01*
X145380893Y-94972658D01*
X145463828Y-95032914D01*
X145674197Y-95140102D01*
X145898752Y-95213065D01*
X145898751Y-95213065D01*
X146131948Y-95250000D01*
X146368052Y-95250000D01*
X146601247Y-95213065D01*
X146825802Y-95140102D01*
X147036163Y-95032918D01*
X147036169Y-95032914D01*
X147119104Y-94972658D01*
X147119105Y-94972658D01*
X146420233Y-94273787D01*
X146462292Y-94262518D01*
X146587708Y-94190110D01*
X146690110Y-94087708D01*
X146762518Y-93962292D01*
X146773787Y-93920234D01*
X147472658Y-94619105D01*
X147472658Y-94619104D01*
X147532914Y-94536169D01*
X147532918Y-94536163D01*
X147640102Y-94325802D01*
X147713065Y-94101247D01*
X147750000Y-93868052D01*
X147750000Y-93631947D01*
X147713065Y-93398752D01*
X147640102Y-93174197D01*
X147532914Y-92963828D01*
X147472658Y-92880894D01*
X147472658Y-92880893D01*
X146773787Y-93579765D01*
X146762518Y-93537708D01*
X146690110Y-93412292D01*
X146587708Y-93309890D01*
X146462292Y-93237482D01*
X146420234Y-93226212D01*
X147119105Y-92527340D01*
X147119104Y-92527338D01*
X147036174Y-92467087D01*
X146825802Y-92359897D01*
X146601247Y-92286934D01*
X146601248Y-92286934D01*
X146368052Y-92250000D01*
X146131948Y-92250000D01*
X145898752Y-92286934D01*
X145674197Y-92359897D01*
X145463830Y-92467084D01*
X145380894Y-92527340D01*
X146079766Y-93226212D01*
X146037708Y-93237482D01*
X145912292Y-93309890D01*
X145809890Y-93412292D01*
X145737482Y-93537708D01*
X145726212Y-93579766D01*
X145027340Y-92880894D01*
X144967084Y-92963830D01*
X144859897Y-93174197D01*
X144786934Y-93398752D01*
X144750000Y-93631947D01*
X141250000Y-93631947D01*
X141213065Y-93398752D01*
X141140102Y-93174197D01*
X141032914Y-92963828D01*
X140972658Y-92880894D01*
X140972658Y-92880893D01*
X140273787Y-93579765D01*
X140262518Y-93537708D01*
X140190110Y-93412292D01*
X140087708Y-93309890D01*
X139962292Y-93237482D01*
X139920234Y-93226212D01*
X140619105Y-92527340D01*
X140619104Y-92527339D01*
X140536174Y-92467087D01*
X140325802Y-92359897D01*
X140101247Y-92286934D01*
X140101248Y-92286934D01*
X139868052Y-92250000D01*
X139631948Y-92250000D01*
X139398752Y-92286934D01*
X139174197Y-92359897D01*
X138963830Y-92467084D01*
X138880894Y-92527340D01*
X139579766Y-93226212D01*
X139537708Y-93237482D01*
X139412292Y-93309890D01*
X139309890Y-93412292D01*
X139237482Y-93537708D01*
X139226212Y-93579766D01*
X138527340Y-92880894D01*
X138467084Y-92963830D01*
X138359897Y-93174197D01*
X138286934Y-93398752D01*
X138250000Y-93631947D01*
X127137031Y-93631947D01*
X127168197Y-93570781D01*
X127168197Y-93570780D01*
X127204755Y-93499031D01*
X127267990Y-93304417D01*
X127300000Y-93102317D01*
X127300000Y-92897682D01*
X127267990Y-92695582D01*
X127204755Y-92500968D01*
X127111859Y-92318650D01*
X127079474Y-92274077D01*
X127079474Y-92274076D01*
X126400000Y-92953551D01*
X126400000Y-92947339D01*
X126372741Y-92845606D01*
X126320080Y-92754394D01*
X126245606Y-92679920D01*
X126154394Y-92627259D01*
X126052661Y-92600000D01*
X126046446Y-92600000D01*
X126558799Y-92087648D01*
X132199500Y-92087648D01*
X132199500Y-92292351D01*
X132231522Y-92494534D01*
X132294781Y-92689223D01*
X132327988Y-92754394D01*
X132374463Y-92845606D01*
X132387715Y-92871613D01*
X132508028Y-93037213D01*
X132652786Y-93181971D01*
X132761261Y-93260781D01*
X132818390Y-93302287D01*
X132919005Y-93353553D01*
X133000776Y-93395218D01*
X133000778Y-93395218D01*
X133000781Y-93395220D01*
X133105137Y-93429127D01*
X133195465Y-93458477D01*
X133296557Y-93474488D01*
X133397648Y-93490500D01*
X133397649Y-93490500D01*
X133602351Y-93490500D01*
X133602352Y-93490500D01*
X133804534Y-93458477D01*
X133999219Y-93395220D01*
X134181610Y-93302287D01*
X134274590Y-93234732D01*
X134347213Y-93181971D01*
X134347215Y-93181968D01*
X134347219Y-93181966D01*
X134491966Y-93037219D01*
X134491968Y-93037215D01*
X134491971Y-93037213D01*
X134582371Y-92912786D01*
X134612287Y-92871610D01*
X134705220Y-92689219D01*
X134768477Y-92494534D01*
X134800500Y-92292352D01*
X134800500Y-92087648D01*
X134774030Y-91920523D01*
X134768477Y-91885465D01*
X134714459Y-91719216D01*
X134705220Y-91690781D01*
X134705218Y-91690778D01*
X134705218Y-91690776D01*
X134660663Y-91603334D01*
X134612287Y-91508390D01*
X134604556Y-91497749D01*
X134491971Y-91342786D01*
X134347213Y-91198028D01*
X134181613Y-91077715D01*
X134181612Y-91077714D01*
X134181610Y-91077713D01*
X134124653Y-91048691D01*
X133999223Y-90984781D01*
X133804534Y-90921522D01*
X133629995Y-90893878D01*
X133602352Y-90889500D01*
X133397648Y-90889500D01*
X133373329Y-90893351D01*
X133195465Y-90921522D01*
X133000776Y-90984781D01*
X132818386Y-91077715D01*
X132652786Y-91198028D01*
X132508028Y-91342786D01*
X132387715Y-91508386D01*
X132294781Y-91690776D01*
X132231522Y-91885465D01*
X132199500Y-92087648D01*
X126558799Y-92087648D01*
X126651352Y-91995095D01*
X126725922Y-91920524D01*
X126725921Y-91920523D01*
X126681359Y-91888147D01*
X126681350Y-91888141D01*
X126499031Y-91795244D01*
X126304417Y-91732009D01*
X126102317Y-91700000D01*
X125897683Y-91700000D01*
X125695582Y-91732009D01*
X125500968Y-91795244D01*
X125318644Y-91888143D01*
X125274077Y-91920523D01*
X125274077Y-91920524D01*
X125953554Y-92600000D01*
X125947339Y-92600000D01*
X125845606Y-92627259D01*
X125754394Y-92679920D01*
X125679920Y-92754394D01*
X125627259Y-92845606D01*
X125600000Y-92947339D01*
X125600000Y-92953553D01*
X124920524Y-92274077D01*
X124920523Y-92274077D01*
X124888143Y-92318644D01*
X124795244Y-92500968D01*
X124732009Y-92695582D01*
X124700000Y-92897682D01*
X119451551Y-92897682D01*
X124667345Y-87681888D01*
X124728666Y-87648405D01*
X124798358Y-87653389D01*
X124842705Y-87681890D01*
X124902786Y-87741971D01*
X125021218Y-87828015D01*
X125068390Y-87862287D01*
X125184607Y-87921503D01*
X125250776Y-87955218D01*
X125250778Y-87955218D01*
X125250781Y-87955220D01*
X125336836Y-87983181D01*
X125445465Y-88018477D01*
X125546557Y-88034488D01*
X125647648Y-88050500D01*
X125647649Y-88050500D01*
X125852351Y-88050500D01*
X125852352Y-88050500D01*
X126054534Y-88018477D01*
X126249219Y-87955220D01*
X126405292Y-87875696D01*
X126473959Y-87862801D01*
X126538699Y-87889077D01*
X126549266Y-87898501D01*
X127635139Y-88984374D01*
X127635149Y-88984385D01*
X127639479Y-88988715D01*
X127639480Y-88988716D01*
X127751284Y-89100520D01*
X127751286Y-89100521D01*
X127751290Y-89100524D01*
X127887596Y-89179219D01*
X127888216Y-89179577D01*
X128000019Y-89209534D01*
X128040942Y-89220500D01*
X128040943Y-89220500D01*
X132020398Y-89220500D01*
X132087437Y-89240185D01*
X132130883Y-89288205D01*
X132137715Y-89301614D01*
X132258028Y-89467213D01*
X132402786Y-89611971D01*
X132485371Y-89671971D01*
X132568390Y-89732287D01*
X132684607Y-89791503D01*
X132750776Y-89825218D01*
X132750778Y-89825218D01*
X132750781Y-89825220D01*
X132855137Y-89859127D01*
X132945465Y-89888477D01*
X133046557Y-89904488D01*
X133147648Y-89920500D01*
X133147649Y-89920500D01*
X133352351Y-89920500D01*
X133352352Y-89920500D01*
X133554534Y-89888477D01*
X133749219Y-89825220D01*
X133931610Y-89732287D01*
X134024590Y-89664732D01*
X134097213Y-89611971D01*
X134097215Y-89611968D01*
X134097219Y-89611966D01*
X134241966Y-89467219D01*
X134241968Y-89467215D01*
X134241971Y-89467213D01*
X134362284Y-89301614D01*
X134362283Y-89301614D01*
X134362287Y-89301610D01*
X134369117Y-89288204D01*
X134417091Y-89237409D01*
X134479602Y-89220500D01*
X137293331Y-89220500D01*
X137293347Y-89220501D01*
X137300943Y-89220501D01*
X137459054Y-89220501D01*
X137459057Y-89220501D01*
X137611785Y-89179577D01*
X137661904Y-89150639D01*
X137748716Y-89100520D01*
X137860520Y-88988716D01*
X137860520Y-88988714D01*
X137870728Y-88978507D01*
X137870730Y-88978504D01*
X139146437Y-87702796D01*
X139207758Y-87669313D01*
X139272433Y-87672547D01*
X139398632Y-87713553D01*
X139486110Y-87727408D01*
X139631903Y-87750500D01*
X139631908Y-87750500D01*
X139868097Y-87750500D01*
X140101368Y-87713553D01*
X140134468Y-87702798D01*
X140325992Y-87640568D01*
X140536433Y-87533343D01*
X140727510Y-87394517D01*
X140894517Y-87227510D01*
X141033343Y-87036433D01*
X141093583Y-86918204D01*
X141141558Y-86867409D01*
X141204068Y-86850500D01*
X144795932Y-86850500D01*
X144862971Y-86870185D01*
X144906416Y-86918203D01*
X144966657Y-87036433D01*
X145105483Y-87227510D01*
X145272490Y-87394517D01*
X145463567Y-87533343D01*
X145531022Y-87567713D01*
X145674003Y-87640566D01*
X145674005Y-87640566D01*
X145674008Y-87640568D01*
X145762476Y-87669313D01*
X145898631Y-87713553D01*
X146131903Y-87750500D01*
X146131908Y-87750500D01*
X146368097Y-87750500D01*
X146601368Y-87713553D01*
X146634468Y-87702798D01*
X146825992Y-87640568D01*
X147036433Y-87533343D01*
X147227510Y-87394517D01*
X147394517Y-87227510D01*
X147533343Y-87036433D01*
X147640568Y-86825992D01*
X147713553Y-86601368D01*
X147750500Y-86368097D01*
X147750500Y-86131902D01*
X147713553Y-85898631D01*
X147640566Y-85674003D01*
X147584002Y-85562991D01*
X147533343Y-85463567D01*
X147394517Y-85272490D01*
X147227510Y-85105483D01*
X147036433Y-84966657D01*
X146969418Y-84932511D01*
X146825996Y-84859433D01*
X146601368Y-84786446D01*
X146368097Y-84749500D01*
X146368092Y-84749500D01*
X146131908Y-84749500D01*
X146131903Y-84749500D01*
X145898631Y-84786446D01*
X145674003Y-84859433D01*
X145463566Y-84966657D01*
X145444534Y-84980485D01*
X145272490Y-85105483D01*
X145272488Y-85105485D01*
X145272487Y-85105485D01*
X145105485Y-85272487D01*
X145105485Y-85272488D01*
X145105483Y-85272490D01*
X145090741Y-85292781D01*
X144966657Y-85463566D01*
X144906417Y-85581795D01*
X144858442Y-85632591D01*
X144795932Y-85649500D01*
X141204068Y-85649500D01*
X141137029Y-85629815D01*
X141093583Y-85581795D01*
X141033343Y-85463567D01*
X140894517Y-85272490D01*
X140727510Y-85105483D01*
X140536433Y-84966657D01*
X140469418Y-84932511D01*
X140325996Y-84859433D01*
X140101368Y-84786446D01*
X139868097Y-84749500D01*
X139868092Y-84749500D01*
X139631908Y-84749500D01*
X139631903Y-84749500D01*
X139398631Y-84786446D01*
X139174003Y-84859433D01*
X138963566Y-84966657D01*
X138944534Y-84980485D01*
X138772490Y-85105483D01*
X138772488Y-85105485D01*
X138772487Y-85105485D01*
X138605485Y-85272487D01*
X138605485Y-85272488D01*
X138605483Y-85272490D01*
X138590741Y-85292781D01*
X138466657Y-85463566D01*
X138359433Y-85674003D01*
X138286446Y-85898631D01*
X138249500Y-86131902D01*
X138249500Y-86368097D01*
X138286447Y-86601369D01*
X138286447Y-86601372D01*
X138327450Y-86727564D01*
X138329445Y-86797405D01*
X138297200Y-86853563D01*
X137167584Y-87983181D01*
X137106261Y-88016666D01*
X137079903Y-88019500D01*
X134479602Y-88019500D01*
X134412563Y-87999815D01*
X134369117Y-87951795D01*
X134362284Y-87938385D01*
X134241971Y-87772786D01*
X134097213Y-87628028D01*
X133931613Y-87507715D01*
X133931612Y-87507714D01*
X133931610Y-87507713D01*
X133874653Y-87478691D01*
X133749223Y-87414781D01*
X133554534Y-87351522D01*
X133379995Y-87323878D01*
X133352352Y-87319500D01*
X133147648Y-87319500D01*
X133123329Y-87323351D01*
X132945465Y-87351522D01*
X132750776Y-87414781D01*
X132568386Y-87507715D01*
X132402786Y-87628028D01*
X132258028Y-87772786D01*
X132137715Y-87938385D01*
X132130883Y-87951795D01*
X132082909Y-88002591D01*
X132020398Y-88019500D01*
X128420097Y-88019500D01*
X128353058Y-87999815D01*
X128332416Y-87983181D01*
X127086819Y-86737584D01*
X127053334Y-86676261D01*
X127050500Y-86649903D01*
X127050500Y-86647648D01*
X127018477Y-86445465D01*
X126961296Y-86269481D01*
X126955220Y-86250781D01*
X126955218Y-86250778D01*
X126955218Y-86250776D01*
X126894648Y-86131902D01*
X126862287Y-86068390D01*
X126839952Y-86037648D01*
X126741971Y-85902786D01*
X126597213Y-85758028D01*
X126431613Y-85637715D01*
X126431612Y-85637714D01*
X126431610Y-85637713D01*
X126374653Y-85608691D01*
X126249223Y-85544781D01*
X126054534Y-85481522D01*
X125879995Y-85453878D01*
X125852352Y-85449500D01*
X125647648Y-85449500D01*
X125623329Y-85453351D01*
X125445465Y-85481522D01*
X125250776Y-85544781D01*
X125068386Y-85637715D01*
X124902786Y-85758028D01*
X124758028Y-85902786D01*
X124637714Y-86068386D01*
X124609659Y-86123447D01*
X124561684Y-86174242D01*
X124552975Y-86178871D01*
X124542497Y-86183916D01*
X124518215Y-86190423D01*
X124468095Y-86219360D01*
X124464085Y-86221675D01*
X124464077Y-86221679D01*
X124381285Y-86269479D01*
X124381282Y-86269481D01*
X119252181Y-91398583D01*
X119190858Y-91432068D01*
X119121166Y-91427084D01*
X119065233Y-91385212D01*
X119040816Y-91319748D01*
X119040500Y-91310902D01*
X119040500Y-91117648D01*
X119008477Y-90915465D01*
X118945218Y-90720776D01*
X118899619Y-90631284D01*
X118852287Y-90538390D01*
X118838548Y-90519480D01*
X118731971Y-90372786D01*
X118587213Y-90228028D01*
X118421614Y-90107715D01*
X118415006Y-90104348D01*
X118328917Y-90060483D01*
X118278123Y-90012511D01*
X118261328Y-89944690D01*
X118283865Y-89878555D01*
X118328917Y-89839516D01*
X118421610Y-89792287D01*
X118504198Y-89732284D01*
X118587213Y-89671971D01*
X118587215Y-89671968D01*
X118587219Y-89671966D01*
X118731966Y-89527219D01*
X118731968Y-89527215D01*
X118731971Y-89527213D01*
X118784732Y-89454590D01*
X118852287Y-89361610D01*
X118945220Y-89179219D01*
X119008477Y-88984534D01*
X119040500Y-88782352D01*
X119040500Y-88577648D01*
X119008477Y-88375466D01*
X118945220Y-88180781D01*
X118945218Y-88180778D01*
X118945218Y-88180776D01*
X118878838Y-88050500D01*
X118852287Y-87998390D01*
X118841237Y-87983181D01*
X118731971Y-87832786D01*
X118587213Y-87688028D01*
X118421614Y-87567715D01*
X118415006Y-87564348D01*
X118328917Y-87520483D01*
X118278123Y-87472511D01*
X118261328Y-87404690D01*
X118283865Y-87338555D01*
X118328917Y-87299516D01*
X118421610Y-87252287D01*
X118455713Y-87227510D01*
X118587213Y-87131971D01*
X118587215Y-87131968D01*
X118587219Y-87131966D01*
X118731966Y-86987219D01*
X118731968Y-86987215D01*
X118731971Y-86987213D01*
X118819012Y-86867409D01*
X118852287Y-86821610D01*
X118945220Y-86639219D01*
X119008477Y-86444534D01*
X119040500Y-86242352D01*
X119040500Y-86037648D01*
X119008477Y-85835466D01*
X118945220Y-85640781D01*
X118945218Y-85640778D01*
X118945218Y-85640776D01*
X118896305Y-85544780D01*
X118852287Y-85458390D01*
X118844556Y-85447749D01*
X118731971Y-85292786D01*
X118587213Y-85148028D01*
X118421614Y-85027715D01*
X118415006Y-85024348D01*
X118328917Y-84980483D01*
X118278123Y-84932511D01*
X118261328Y-84864690D01*
X118283865Y-84798555D01*
X118328917Y-84759516D01*
X118421610Y-84712287D01*
X118442770Y-84696913D01*
X118587213Y-84591971D01*
X118587215Y-84591968D01*
X118587219Y-84591966D01*
X118731966Y-84447219D01*
X118731968Y-84447215D01*
X118731971Y-84447213D01*
X118784732Y-84374590D01*
X118852287Y-84281610D01*
X118945220Y-84099219D01*
X119008477Y-83904534D01*
X119040500Y-83702352D01*
X119040500Y-83497648D01*
X119008477Y-83295466D01*
X118945220Y-83100781D01*
X118945218Y-83100778D01*
X118945218Y-83100776D01*
X118903036Y-83017990D01*
X118852287Y-82918390D01*
X118731966Y-82752781D01*
X118587219Y-82608034D01*
X118587213Y-82608028D01*
X118421614Y-82487715D01*
X118398467Y-82475921D01*
X118328917Y-82440483D01*
X118278123Y-82392511D01*
X118261328Y-82324690D01*
X118283865Y-82258555D01*
X118328917Y-82219516D01*
X118421610Y-82172287D01*
X118519389Y-82101247D01*
X118587213Y-82051971D01*
X118587215Y-82051968D01*
X118587219Y-82051966D01*
X118731966Y-81907219D01*
X118731968Y-81907215D01*
X118731971Y-81907213D01*
X118784732Y-81834590D01*
X118852287Y-81741610D01*
X118900146Y-81647682D01*
X124450000Y-81647682D01*
X124450000Y-81852317D01*
X124482009Y-82054417D01*
X124545244Y-82249031D01*
X124638141Y-82431350D01*
X124638147Y-82431359D01*
X124670523Y-82475921D01*
X124670524Y-82475922D01*
X125350000Y-81796446D01*
X125350000Y-81802661D01*
X125377259Y-81904394D01*
X125429920Y-81995606D01*
X125504394Y-82070080D01*
X125595606Y-82122741D01*
X125697339Y-82150000D01*
X125703553Y-82150000D01*
X125024076Y-82829474D01*
X125068650Y-82861859D01*
X125250968Y-82954755D01*
X125445582Y-83017990D01*
X125647683Y-83050000D01*
X125852317Y-83050000D01*
X126054417Y-83017990D01*
X126249031Y-82954755D01*
X126431349Y-82861859D01*
X126475922Y-82829474D01*
X125796447Y-82150000D01*
X125802661Y-82150000D01*
X125904394Y-82122741D01*
X125995606Y-82070080D01*
X126070080Y-81995606D01*
X126122741Y-81904394D01*
X126150000Y-81802661D01*
X126150000Y-81796447D01*
X126829474Y-82475921D01*
X126861859Y-82431349D01*
X126954755Y-82249031D01*
X127017990Y-82054417D01*
X127050000Y-81852317D01*
X127050000Y-81647682D01*
X127017990Y-81445582D01*
X126954755Y-81250968D01*
X126861859Y-81068650D01*
X126829474Y-81024077D01*
X126829474Y-81024076D01*
X126150000Y-81703551D01*
X126150000Y-81697339D01*
X126122741Y-81595606D01*
X126070080Y-81504394D01*
X125995606Y-81429920D01*
X125904394Y-81377259D01*
X125802661Y-81350000D01*
X125796446Y-81350000D01*
X126248799Y-80897648D01*
X131949500Y-80897648D01*
X131949500Y-81102351D01*
X131981522Y-81304534D01*
X132044781Y-81499223D01*
X132108691Y-81624653D01*
X132135665Y-81677591D01*
X132137715Y-81681613D01*
X132258028Y-81847213D01*
X132402786Y-81991971D01*
X132553195Y-82101247D01*
X132568390Y-82112287D01*
X132684607Y-82171503D01*
X132750776Y-82205218D01*
X132750778Y-82205218D01*
X132750781Y-82205220D01*
X132855137Y-82239127D01*
X132945465Y-82268477D01*
X133046557Y-82284488D01*
X133147648Y-82300500D01*
X133147649Y-82300500D01*
X133352351Y-82300500D01*
X133352352Y-82300500D01*
X133554534Y-82268477D01*
X133749219Y-82205220D01*
X133931610Y-82112287D01*
X134024590Y-82044732D01*
X134097213Y-81991971D01*
X134097215Y-81991968D01*
X134097219Y-81991966D01*
X134241966Y-81847219D01*
X134241968Y-81847215D01*
X134241971Y-81847213D01*
X134312600Y-81749999D01*
X134362287Y-81681610D01*
X134387592Y-81631947D01*
X138250000Y-81631947D01*
X138250000Y-81868052D01*
X138286934Y-82101247D01*
X138359897Y-82325802D01*
X138467087Y-82536174D01*
X138527338Y-82619104D01*
X138527340Y-82619105D01*
X139226212Y-81920233D01*
X139237482Y-81962292D01*
X139309890Y-82087708D01*
X139412292Y-82190110D01*
X139537708Y-82262518D01*
X139579765Y-82273787D01*
X138880893Y-82972658D01*
X138963828Y-83032914D01*
X139174197Y-83140102D01*
X139398752Y-83213065D01*
X139398751Y-83213065D01*
X139631948Y-83250000D01*
X139868052Y-83250000D01*
X140101247Y-83213065D01*
X140325802Y-83140102D01*
X140536163Y-83032918D01*
X140536169Y-83032914D01*
X140619104Y-82972658D01*
X140619105Y-82972658D01*
X139920233Y-82273787D01*
X139962292Y-82262518D01*
X140087708Y-82190110D01*
X140190110Y-82087708D01*
X140262518Y-81962292D01*
X140273787Y-81920234D01*
X140972658Y-82619105D01*
X140972658Y-82619104D01*
X141032914Y-82536169D01*
X141032918Y-82536163D01*
X141140102Y-82325802D01*
X141213065Y-82101247D01*
X141250000Y-81868052D01*
X141250000Y-81631947D01*
X144750000Y-81631947D01*
X144750000Y-81868052D01*
X144786934Y-82101247D01*
X144859897Y-82325802D01*
X144967087Y-82536174D01*
X145027338Y-82619104D01*
X145027340Y-82619105D01*
X145726212Y-81920233D01*
X145737482Y-81962292D01*
X145809890Y-82087708D01*
X145912292Y-82190110D01*
X146037708Y-82262518D01*
X146079765Y-82273787D01*
X145380893Y-82972658D01*
X145463828Y-83032914D01*
X145674197Y-83140102D01*
X145898752Y-83213065D01*
X145898751Y-83213065D01*
X146131948Y-83250000D01*
X146368052Y-83250000D01*
X146601247Y-83213065D01*
X146825802Y-83140102D01*
X147036163Y-83032918D01*
X147036169Y-83032914D01*
X147119104Y-82972658D01*
X147119105Y-82972658D01*
X146420233Y-82273787D01*
X146462292Y-82262518D01*
X146587708Y-82190110D01*
X146690110Y-82087708D01*
X146762518Y-81962292D01*
X146773787Y-81920234D01*
X147472658Y-82619105D01*
X147472658Y-82619104D01*
X147532914Y-82536169D01*
X147532918Y-82536163D01*
X147640102Y-82325802D01*
X147713065Y-82101247D01*
X147750000Y-81868052D01*
X147750000Y-81631947D01*
X147713065Y-81398752D01*
X147640102Y-81174197D01*
X147532914Y-80963828D01*
X147472658Y-80880894D01*
X147472658Y-80880893D01*
X146773787Y-81579765D01*
X146762518Y-81537708D01*
X146690110Y-81412292D01*
X146587708Y-81309890D01*
X146462292Y-81237482D01*
X146420234Y-81226212D01*
X147119105Y-80527340D01*
X147119104Y-80527338D01*
X147036174Y-80467087D01*
X146825802Y-80359897D01*
X146601247Y-80286934D01*
X146601248Y-80286934D01*
X146368052Y-80250000D01*
X146131948Y-80250000D01*
X145898752Y-80286934D01*
X145674197Y-80359897D01*
X145463830Y-80467084D01*
X145380894Y-80527340D01*
X146079766Y-81226212D01*
X146037708Y-81237482D01*
X145912292Y-81309890D01*
X145809890Y-81412292D01*
X145737482Y-81537708D01*
X145726212Y-81579766D01*
X145027340Y-80880894D01*
X144967084Y-80963830D01*
X144859897Y-81174197D01*
X144786934Y-81398752D01*
X144750000Y-81631947D01*
X141250000Y-81631947D01*
X141213065Y-81398752D01*
X141140102Y-81174197D01*
X141032914Y-80963828D01*
X140972658Y-80880894D01*
X140972658Y-80880893D01*
X140273787Y-81579765D01*
X140262518Y-81537708D01*
X140190110Y-81412292D01*
X140087708Y-81309890D01*
X139962292Y-81237482D01*
X139920234Y-81226212D01*
X140619105Y-80527340D01*
X140619104Y-80527339D01*
X140536174Y-80467087D01*
X140325802Y-80359897D01*
X140101247Y-80286934D01*
X140101248Y-80286934D01*
X139868052Y-80250000D01*
X139631948Y-80250000D01*
X139398752Y-80286934D01*
X139174197Y-80359897D01*
X138963830Y-80467084D01*
X138880894Y-80527340D01*
X139579766Y-81226212D01*
X139537708Y-81237482D01*
X139412292Y-81309890D01*
X139309890Y-81412292D01*
X139237482Y-81537708D01*
X139226212Y-81579766D01*
X138527340Y-80880894D01*
X138467084Y-80963830D01*
X138359897Y-81174197D01*
X138286934Y-81398752D01*
X138250000Y-81631947D01*
X134387592Y-81631947D01*
X134424647Y-81559223D01*
X134455218Y-81499223D01*
X134455218Y-81499222D01*
X134455220Y-81499219D01*
X134518477Y-81304534D01*
X134550500Y-81102352D01*
X134550500Y-80897648D01*
X134518477Y-80695466D01*
X134455220Y-80500781D01*
X134362287Y-80318390D01*
X134339433Y-80286934D01*
X134241971Y-80152786D01*
X134097213Y-80008028D01*
X133931613Y-79887715D01*
X133931612Y-79887714D01*
X133931610Y-79887713D01*
X133874653Y-79858691D01*
X133749223Y-79794781D01*
X133554534Y-79731522D01*
X133379995Y-79703878D01*
X133352352Y-79699500D01*
X133147648Y-79699500D01*
X133123329Y-79703351D01*
X132945465Y-79731522D01*
X132750776Y-79794781D01*
X132568386Y-79887715D01*
X132402786Y-80008028D01*
X132258028Y-80152786D01*
X132137715Y-80318386D01*
X132044781Y-80500776D01*
X131981522Y-80695465D01*
X131949500Y-80897648D01*
X126248799Y-80897648D01*
X126341352Y-80805095D01*
X126475922Y-80670524D01*
X126475921Y-80670523D01*
X126431359Y-80638147D01*
X126431350Y-80638141D01*
X126249031Y-80545244D01*
X126054417Y-80482009D01*
X125852317Y-80450000D01*
X125647683Y-80450000D01*
X125445582Y-80482009D01*
X125250968Y-80545244D01*
X125068644Y-80638143D01*
X125024077Y-80670523D01*
X125024077Y-80670524D01*
X125703554Y-81350000D01*
X125697339Y-81350000D01*
X125595606Y-81377259D01*
X125504394Y-81429920D01*
X125429920Y-81504394D01*
X125377259Y-81595606D01*
X125350000Y-81697339D01*
X125350000Y-81703553D01*
X124670524Y-81024077D01*
X124670523Y-81024077D01*
X124638143Y-81068644D01*
X124545244Y-81250968D01*
X124482009Y-81445582D01*
X124450000Y-81647682D01*
X118900146Y-81647682D01*
X118945220Y-81559219D01*
X119008477Y-81364534D01*
X119040500Y-81162352D01*
X119040500Y-80957648D01*
X119008477Y-80755466D01*
X118945220Y-80560781D01*
X118945218Y-80560778D01*
X118945218Y-80560776D01*
X118911503Y-80494607D01*
X118852287Y-80378390D01*
X118808692Y-80318386D01*
X118731971Y-80212786D01*
X118587213Y-80068028D01*
X118421614Y-79947715D01*
X118415006Y-79944348D01*
X118328917Y-79900483D01*
X118278123Y-79852511D01*
X118261328Y-79784690D01*
X118283865Y-79718555D01*
X118328917Y-79679516D01*
X118421610Y-79632287D01*
X118442770Y-79616913D01*
X118587213Y-79511971D01*
X118587215Y-79511968D01*
X118587219Y-79511966D01*
X118731966Y-79367219D01*
X118731968Y-79367215D01*
X118731971Y-79367213D01*
X118784732Y-79294590D01*
X118852287Y-79201610D01*
X118945220Y-79019219D01*
X119008477Y-78824534D01*
X119040500Y-78622352D01*
X119040500Y-78417648D01*
X119008477Y-78215466D01*
X118945220Y-78020781D01*
X118945218Y-78020778D01*
X118945218Y-78020776D01*
X118911503Y-77954607D01*
X118852287Y-77838390D01*
X118844556Y-77827749D01*
X118731971Y-77672786D01*
X118587213Y-77528028D01*
X118421614Y-77407715D01*
X118415006Y-77404348D01*
X118328917Y-77360483D01*
X118278123Y-77312511D01*
X118261328Y-77244690D01*
X118283865Y-77178555D01*
X118328917Y-77139516D01*
X118421610Y-77092287D01*
X118442770Y-77076913D01*
X118587213Y-76971971D01*
X118587215Y-76971968D01*
X118587219Y-76971966D01*
X118731966Y-76827219D01*
X118731968Y-76827215D01*
X118731971Y-76827213D01*
X118784732Y-76754590D01*
X118852287Y-76661610D01*
X118945220Y-76479219D01*
X119008477Y-76284534D01*
X119040500Y-76082352D01*
X119040500Y-75877648D01*
X119008477Y-75675466D01*
X118945220Y-75480781D01*
X118945218Y-75480778D01*
X118945218Y-75480776D01*
X118911503Y-75414607D01*
X118852287Y-75298390D01*
X118844556Y-75287749D01*
X118731971Y-75132786D01*
X118587213Y-74988028D01*
X118421614Y-74867715D01*
X118415006Y-74864348D01*
X118328917Y-74820483D01*
X118278123Y-74772511D01*
X118261328Y-74704690D01*
X118283865Y-74638555D01*
X118328917Y-74599516D01*
X118421610Y-74552287D01*
X118485186Y-74506097D01*
X118587213Y-74431971D01*
X118587215Y-74431968D01*
X118587219Y-74431966D01*
X118731966Y-74287219D01*
X118731968Y-74287215D01*
X118731971Y-74287213D01*
X118852284Y-74121614D01*
X118852285Y-74121613D01*
X118852287Y-74121610D01*
X118859117Y-74108204D01*
X118907091Y-74057409D01*
X118969602Y-74040500D01*
X122429826Y-74040500D01*
X122496865Y-74060185D01*
X122540311Y-74108205D01*
X122577715Y-74181613D01*
X122698028Y-74347213D01*
X122842786Y-74491971D01*
X122990811Y-74599515D01*
X123008390Y-74612287D01*
X123073025Y-74645220D01*
X123190776Y-74705218D01*
X123190778Y-74705218D01*
X123190781Y-74705220D01*
X123295137Y-74739127D01*
X123385465Y-74768477D01*
X123467348Y-74781446D01*
X123587648Y-74800500D01*
X123587649Y-74800500D01*
X123792351Y-74800500D01*
X123792352Y-74800500D01*
X123994534Y-74768477D01*
X124189219Y-74705220D01*
X124371610Y-74612287D01*
X124464590Y-74544732D01*
X124537213Y-74491971D01*
X124537215Y-74491968D01*
X124537219Y-74491966D01*
X124681966Y-74347219D01*
X124681968Y-74347215D01*
X124681971Y-74347213D01*
X124734732Y-74274590D01*
X124802287Y-74181610D01*
X124895220Y-73999219D01*
X124958477Y-73804534D01*
X124990500Y-73602352D01*
X124990500Y-73397648D01*
X130009500Y-73397648D01*
X130009500Y-73602351D01*
X130041522Y-73804534D01*
X130104781Y-73999223D01*
X130197715Y-74181613D01*
X130318028Y-74347213D01*
X130462786Y-74491971D01*
X130610811Y-74599515D01*
X130628390Y-74612287D01*
X130693025Y-74645220D01*
X130810776Y-74705218D01*
X130810778Y-74705218D01*
X130810781Y-74705220D01*
X130915137Y-74739127D01*
X131005465Y-74768477D01*
X131087348Y-74781446D01*
X131207648Y-74800500D01*
X131207649Y-74800500D01*
X131412351Y-74800500D01*
X131412352Y-74800500D01*
X131614534Y-74768477D01*
X131809219Y-74705220D01*
X131991610Y-74612287D01*
X132084590Y-74544732D01*
X132157213Y-74491971D01*
X132157215Y-74491968D01*
X132157219Y-74491966D01*
X132301966Y-74347219D01*
X132301968Y-74347215D01*
X132301971Y-74347213D01*
X132354732Y-74274590D01*
X132422287Y-74181610D01*
X132515220Y-73999219D01*
X132578477Y-73804534D01*
X132582948Y-73776306D01*
X132598322Y-73679240D01*
X132610500Y-73602351D01*
X132610500Y-73397648D01*
X132578477Y-73195469D01*
X132578477Y-73195466D01*
X132573826Y-73181154D01*
X132571832Y-73111315D01*
X132604077Y-73055157D01*
X133022416Y-72636819D01*
X133083739Y-72603334D01*
X133110097Y-72600500D01*
X136201000Y-72600500D01*
X136268039Y-72620185D01*
X136313794Y-72672989D01*
X136325000Y-72724500D01*
X136325000Y-73250000D01*
X137349722Y-73250000D01*
X137305667Y-73326306D01*
X137275000Y-73440756D01*
X137275000Y-73559244D01*
X137305667Y-73673694D01*
X137349722Y-73750000D01*
X136325000Y-73750000D01*
X136325000Y-74447844D01*
X136331401Y-74507372D01*
X136331403Y-74507379D01*
X136381645Y-74642086D01*
X136381649Y-74642093D01*
X136467809Y-74757187D01*
X136467812Y-74757190D01*
X136582906Y-74843350D01*
X136582913Y-74843354D01*
X136717620Y-74893596D01*
X136717627Y-74893598D01*
X136777155Y-74899999D01*
X136777172Y-74900000D01*
X137475000Y-74900000D01*
X137475000Y-73875277D01*
X137551306Y-73919333D01*
X137665756Y-73950000D01*
X137784244Y-73950000D01*
X137898694Y-73919333D01*
X137975000Y-73875277D01*
X137975000Y-74900000D01*
X138672828Y-74900000D01*
X138672844Y-74899999D01*
X138732372Y-74893598D01*
X138732379Y-74893596D01*
X138867086Y-74843354D01*
X138867093Y-74843350D01*
X138982187Y-74757190D01*
X138982190Y-74757187D01*
X139068350Y-74642093D01*
X139068354Y-74642086D01*
X139098213Y-74562031D01*
X139140084Y-74506097D01*
X139205548Y-74481680D01*
X139273821Y-74496531D01*
X139302076Y-74517683D01*
X139352636Y-74568243D01*
X139352641Y-74568247D01*
X139461711Y-74647490D01*
X139530978Y-74697815D01*
X139647501Y-74757187D01*
X139727393Y-74797895D01*
X139727396Y-74797896D01*
X139796920Y-74820485D01*
X139937049Y-74866015D01*
X140154778Y-74900500D01*
X140154779Y-74900500D01*
X140375221Y-74900500D01*
X140375222Y-74900500D01*
X140592951Y-74866015D01*
X140802606Y-74797895D01*
X140999022Y-74697815D01*
X141177365Y-74568242D01*
X141333242Y-74412365D01*
X141462815Y-74234022D01*
X141562895Y-74037606D01*
X141631015Y-73827951D01*
X141665500Y-73610222D01*
X141665500Y-73389778D01*
X141631015Y-73172049D01*
X141593035Y-73055157D01*
X141562896Y-72962396D01*
X141562895Y-72962393D01*
X141528237Y-72894375D01*
X141462815Y-72765978D01*
X141380577Y-72652786D01*
X141333247Y-72587641D01*
X141333243Y-72587636D01*
X141177363Y-72431756D01*
X141177358Y-72431752D01*
X140999025Y-72302187D01*
X140999024Y-72302186D01*
X140999022Y-72302185D01*
X140869468Y-72236173D01*
X140802606Y-72202104D01*
X140802603Y-72202103D01*
X140592952Y-72133985D01*
X140484086Y-72116742D01*
X140375222Y-72099500D01*
X140154778Y-72099500D01*
X140111232Y-72106397D01*
X139937045Y-72133985D01*
X139866794Y-72156811D01*
X139796953Y-72158806D01*
X139740796Y-72126561D01*
X139252590Y-71638355D01*
X139252588Y-71638352D01*
X139133717Y-71519481D01*
X139133716Y-71519480D01*
X139046904Y-71469360D01*
X139046904Y-71469359D01*
X139046900Y-71469358D01*
X138996785Y-71440423D01*
X138844057Y-71399499D01*
X138685943Y-71399499D01*
X138678347Y-71399499D01*
X138678331Y-71399500D01*
X132730940Y-71399500D01*
X132690019Y-71410464D01*
X132690019Y-71410465D01*
X132652751Y-71420451D01*
X132578214Y-71440423D01*
X132578209Y-71440426D01*
X132441290Y-71519475D01*
X132441282Y-71519481D01*
X132329478Y-71631286D01*
X131754842Y-72205921D01*
X131693519Y-72239406D01*
X131628848Y-72236173D01*
X131614534Y-72231522D01*
X131428799Y-72202105D01*
X131412352Y-72199500D01*
X131207648Y-72199500D01*
X131191201Y-72202105D01*
X131005465Y-72231522D01*
X130810776Y-72294781D01*
X130628386Y-72387715D01*
X130462786Y-72508028D01*
X130318028Y-72652786D01*
X130197715Y-72818386D01*
X130104781Y-73000776D01*
X130041522Y-73195465D01*
X130009500Y-73397648D01*
X124990500Y-73397648D01*
X124958477Y-73195465D01*
X124929127Y-73105137D01*
X124895220Y-73000781D01*
X124895218Y-73000778D01*
X124895218Y-73000776D01*
X124861503Y-72934607D01*
X124802287Y-72818390D01*
X124758692Y-72758386D01*
X124681971Y-72652786D01*
X124537213Y-72508028D01*
X124371613Y-72387715D01*
X124371612Y-72387714D01*
X124371610Y-72387713D01*
X124314653Y-72358691D01*
X124189223Y-72294781D01*
X123994534Y-72231522D01*
X123808799Y-72202105D01*
X123792352Y-72199500D01*
X123587648Y-72199500D01*
X123571201Y-72202105D01*
X123385465Y-72231522D01*
X123190776Y-72294781D01*
X123008386Y-72387715D01*
X122842786Y-72508028D01*
X122698030Y-72652784D01*
X122622140Y-72757240D01*
X122599512Y-72788384D01*
X122544184Y-72831051D01*
X122499195Y-72839500D01*
X118969602Y-72839500D01*
X118902563Y-72819815D01*
X118859117Y-72771795D01*
X118852284Y-72758385D01*
X118731971Y-72592786D01*
X118587213Y-72448028D01*
X118421613Y-72327715D01*
X118421612Y-72327714D01*
X118421610Y-72327713D01*
X118364653Y-72298691D01*
X118239223Y-72234781D01*
X118044534Y-72171522D01*
X117869995Y-72143878D01*
X117842352Y-72139500D01*
X117637648Y-72139500D01*
X117613329Y-72143351D01*
X117435465Y-72171522D01*
X117240776Y-72234781D01*
X117058386Y-72327715D01*
X116892786Y-72448028D01*
X116748028Y-72592786D01*
X116627715Y-72758386D01*
X116534781Y-72940776D01*
X116471522Y-73135465D01*
X116453382Y-73250000D01*
X116439500Y-73337648D01*
X116439500Y-73542352D01*
X116443878Y-73569995D01*
X116471522Y-73744534D01*
X116534781Y-73939223D01*
X116627715Y-74121613D01*
X116748028Y-74287213D01*
X116892786Y-74431971D01*
X117010761Y-74517683D01*
X117058390Y-74552287D01*
X117149840Y-74598883D01*
X117151080Y-74599515D01*
X117201876Y-74647490D01*
X117218671Y-74715311D01*
X117196134Y-74781446D01*
X117151080Y-74820485D01*
X117058386Y-74867715D01*
X116892786Y-74988028D01*
X116748028Y-75132786D01*
X116627715Y-75298386D01*
X116534781Y-75480776D01*
X116471522Y-75675465D01*
X116439500Y-75877648D01*
X116439500Y-76082351D01*
X116471522Y-76284534D01*
X116534781Y-76479223D01*
X116627715Y-76661613D01*
X116748028Y-76827213D01*
X116892786Y-76971971D01*
X117047749Y-77084556D01*
X117058390Y-77092287D01*
X117149840Y-77138883D01*
X117151080Y-77139515D01*
X117201876Y-77187490D01*
X117218671Y-77255311D01*
X117196134Y-77321446D01*
X117151080Y-77360485D01*
X117058386Y-77407715D01*
X116892786Y-77528028D01*
X116748028Y-77672786D01*
X116627715Y-77838386D01*
X116534781Y-78020776D01*
X116471522Y-78215465D01*
X116439500Y-78417648D01*
X116439500Y-78622351D01*
X116471522Y-78824534D01*
X116534781Y-79019223D01*
X116627715Y-79201613D01*
X116748028Y-79367213D01*
X116892786Y-79511971D01*
X117047749Y-79624556D01*
X117058390Y-79632287D01*
X117149840Y-79678883D01*
X117151080Y-79679515D01*
X117201876Y-79727490D01*
X117218671Y-79795311D01*
X117196134Y-79861446D01*
X117151080Y-79900485D01*
X117058386Y-79947715D01*
X116892786Y-80068028D01*
X116748028Y-80212786D01*
X116627715Y-80378386D01*
X116534781Y-80560776D01*
X116471522Y-80755465D01*
X116439500Y-80957648D01*
X116439500Y-81162351D01*
X116471522Y-81364534D01*
X116534781Y-81559223D01*
X116627715Y-81741613D01*
X116748028Y-81907213D01*
X116892786Y-82051971D01*
X116975806Y-82112287D01*
X117058390Y-82172287D01*
X117123021Y-82205218D01*
X117151080Y-82219515D01*
X117201876Y-82267490D01*
X117218671Y-82335311D01*
X117196134Y-82401446D01*
X117151080Y-82440485D01*
X117058386Y-82487715D01*
X116892786Y-82608028D01*
X116748028Y-82752786D01*
X116627715Y-82918386D01*
X116534781Y-83100776D01*
X116471522Y-83295465D01*
X116439500Y-83497648D01*
X116439500Y-83702351D01*
X116471522Y-83904534D01*
X116534781Y-84099223D01*
X116627715Y-84281613D01*
X116748028Y-84447213D01*
X116892786Y-84591971D01*
X117047749Y-84704556D01*
X117058390Y-84712287D01*
X117131425Y-84749500D01*
X117151080Y-84759515D01*
X117201876Y-84807490D01*
X117218671Y-84875311D01*
X117196134Y-84941446D01*
X117151080Y-84980485D01*
X117058386Y-85027715D01*
X116892786Y-85148028D01*
X116748028Y-85292786D01*
X116627715Y-85458386D01*
X116534781Y-85640776D01*
X116471522Y-85835465D01*
X116439500Y-86037648D01*
X116439500Y-86242351D01*
X116471522Y-86444534D01*
X116534781Y-86639223D01*
X116627715Y-86821613D01*
X116748028Y-86987213D01*
X116892786Y-87131971D01*
X117024287Y-87227510D01*
X117058390Y-87252287D01*
X117149840Y-87298883D01*
X117151080Y-87299515D01*
X117201876Y-87347490D01*
X117218671Y-87415311D01*
X117196134Y-87481446D01*
X117151080Y-87520485D01*
X117058386Y-87567715D01*
X116892786Y-87688028D01*
X116748028Y-87832786D01*
X116627715Y-87998386D01*
X116534781Y-88180776D01*
X116471522Y-88375465D01*
X116439500Y-88577648D01*
X116439500Y-88782351D01*
X116471522Y-88984534D01*
X116534781Y-89179223D01*
X116627715Y-89361613D01*
X116748028Y-89527213D01*
X116892786Y-89671971D01*
X116975806Y-89732287D01*
X117058390Y-89792287D01*
X117123021Y-89825218D01*
X117151080Y-89839515D01*
X117201876Y-89887490D01*
X117218671Y-89955311D01*
X117196134Y-90021446D01*
X117151080Y-90060485D01*
X117058386Y-90107715D01*
X116892786Y-90228028D01*
X116748028Y-90372786D01*
X116627715Y-90538386D01*
X116534781Y-90720776D01*
X116471522Y-90915465D01*
X116460544Y-90984781D01*
X116439500Y-91117648D01*
X116439500Y-91322352D01*
X116443878Y-91349995D01*
X116471522Y-91524534D01*
X116534781Y-91719223D01*
X116598691Y-91844653D01*
X116620853Y-91888147D01*
X116627715Y-91901613D01*
X116748028Y-92067213D01*
X116892786Y-92211971D01*
X117039612Y-92318644D01*
X117058390Y-92332287D01*
X117112578Y-92359897D01*
X117151080Y-92379515D01*
X117201876Y-92427490D01*
X117218671Y-92495311D01*
X117196134Y-92561446D01*
X117151080Y-92600485D01*
X117058386Y-92647715D01*
X116892786Y-92768028D01*
X116748028Y-92912786D01*
X116627715Y-93078386D01*
X116534781Y-93260776D01*
X116471522Y-93455465D01*
X116439500Y-93657648D01*
X116439500Y-93862351D01*
X116471522Y-94064534D01*
X116534781Y-94259223D01*
X116586385Y-94360500D01*
X116617976Y-94422501D01*
X116627715Y-94441613D01*
X116748028Y-94607213D01*
X116892786Y-94751971D01*
X116989018Y-94821886D01*
X117058390Y-94872287D01*
X117149840Y-94918883D01*
X117151080Y-94919515D01*
X117201876Y-94967490D01*
X117218671Y-95035311D01*
X117196134Y-95101446D01*
X117151080Y-95140485D01*
X117058386Y-95187715D01*
X116892786Y-95308028D01*
X116748028Y-95452786D01*
X116627715Y-95618386D01*
X116534781Y-95800776D01*
X116471522Y-95995465D01*
X116439500Y-96197648D01*
X116439500Y-96402351D01*
X116471522Y-96604534D01*
X116534781Y-96799223D01*
X116627715Y-96981613D01*
X116748028Y-97147213D01*
X116892786Y-97291971D01*
X117047749Y-97404556D01*
X117058390Y-97412287D01*
X117149840Y-97458883D01*
X117151080Y-97459515D01*
X117201876Y-97507490D01*
X117218671Y-97575311D01*
X117196134Y-97641446D01*
X117151080Y-97680485D01*
X117058386Y-97727715D01*
X116892786Y-97848028D01*
X116748028Y-97992786D01*
X116627715Y-98158386D01*
X116534781Y-98340776D01*
X116471522Y-98535465D01*
X116448375Y-98681613D01*
X116439500Y-98737648D01*
X116439500Y-98942352D01*
X116443878Y-98969995D01*
X116471522Y-99144534D01*
X116534781Y-99339223D01*
X116586385Y-99440500D01*
X116621946Y-99510292D01*
X116627715Y-99521613D01*
X116748028Y-99687213D01*
X116892786Y-99831971D01*
X117047749Y-99944556D01*
X117058390Y-99952287D01*
X117130424Y-99988990D01*
X117151629Y-99999795D01*
X117202425Y-100047770D01*
X117219220Y-100115591D01*
X117196682Y-100181726D01*
X117151629Y-100220765D01*
X117058650Y-100268140D01*
X116893105Y-100388417D01*
X116893104Y-100388417D01*
X116748417Y-100533104D01*
X116748417Y-100533105D01*
X116628140Y-100698650D01*
X116535244Y-100880970D01*
X116472009Y-101075586D01*
X116463391Y-101130000D01*
X117306988Y-101130000D01*
X117274075Y-101187007D01*
X117240000Y-101314174D01*
X117240000Y-101445826D01*
X117274075Y-101572993D01*
X117306988Y-101630000D01*
X116463391Y-101630000D01*
X116468792Y-101664102D01*
X116459838Y-101733395D01*
X116414841Y-101786847D01*
X116348090Y-101807487D01*
X116346319Y-101807500D01*
X103894186Y-101807500D01*
X103827147Y-101787815D01*
X103781392Y-101735011D01*
X103771448Y-101665853D01*
X103771713Y-101664102D01*
X103786144Y-101572993D01*
X103800500Y-101482352D01*
X103800500Y-101277648D01*
X103786144Y-101187007D01*
X103768477Y-101075465D01*
X103711296Y-100899481D01*
X103705220Y-100880781D01*
X103705218Y-100880778D01*
X103705218Y-100880776D01*
X103665062Y-100801966D01*
X103612287Y-100698390D01*
X103582375Y-100657219D01*
X103491971Y-100532786D01*
X103347213Y-100388028D01*
X103181614Y-100267715D01*
X103175006Y-100264348D01*
X103088917Y-100220483D01*
X103038123Y-100172511D01*
X103021328Y-100104690D01*
X103043865Y-100038555D01*
X103088917Y-99999516D01*
X103181610Y-99952287D01*
X103202770Y-99936913D01*
X103347213Y-99831971D01*
X103347215Y-99831968D01*
X103347219Y-99831966D01*
X103491966Y-99687219D01*
X103491968Y-99687215D01*
X103491971Y-99687213D01*
X103544732Y-99614590D01*
X103612287Y-99521610D01*
X103705220Y-99339219D01*
X103768477Y-99144534D01*
X103800500Y-98942352D01*
X103800500Y-98737648D01*
X103779456Y-98604781D01*
X103768477Y-98535465D01*
X103717381Y-98378210D01*
X103705220Y-98340781D01*
X103705218Y-98340778D01*
X103705218Y-98340776D01*
X103671503Y-98274607D01*
X103612287Y-98158390D01*
X103593047Y-98131908D01*
X103491971Y-97992786D01*
X103347213Y-97848028D01*
X103181614Y-97727715D01*
X103175006Y-97724348D01*
X103088917Y-97680483D01*
X103038123Y-97632511D01*
X103021328Y-97564690D01*
X103043865Y-97498555D01*
X103088917Y-97459516D01*
X103181610Y-97412287D01*
X103202770Y-97396913D01*
X103347213Y-97291971D01*
X103347215Y-97291968D01*
X103347219Y-97291966D01*
X103491966Y-97147219D01*
X103491968Y-97147215D01*
X103491971Y-97147213D01*
X103544732Y-97074590D01*
X103612287Y-96981610D01*
X103705220Y-96799219D01*
X103768477Y-96604534D01*
X103800500Y-96402352D01*
X103800500Y-96197648D01*
X103768477Y-95995466D01*
X103705220Y-95800781D01*
X103705218Y-95800778D01*
X103705218Y-95800776D01*
X103671503Y-95734607D01*
X103612287Y-95618390D01*
X103604556Y-95607749D01*
X103491971Y-95452786D01*
X103347213Y-95308028D01*
X103181614Y-95187715D01*
X103175006Y-95184348D01*
X103088917Y-95140483D01*
X103038123Y-95092511D01*
X103021328Y-95024690D01*
X103043865Y-94958555D01*
X103088917Y-94919516D01*
X103181610Y-94872287D01*
X103250982Y-94821886D01*
X103347213Y-94751971D01*
X103347215Y-94751968D01*
X103347219Y-94751966D01*
X103491966Y-94607219D01*
X103491968Y-94607215D01*
X103491971Y-94607213D01*
X103556272Y-94518709D01*
X103612287Y-94441610D01*
X103705220Y-94259219D01*
X103768477Y-94064534D01*
X103800500Y-93862352D01*
X103800500Y-93657648D01*
X103768477Y-93455466D01*
X103705220Y-93260781D01*
X103705218Y-93260778D01*
X103705218Y-93260776D01*
X103661103Y-93174197D01*
X103612287Y-93078390D01*
X103582375Y-93037219D01*
X103491971Y-92912786D01*
X103347213Y-92768028D01*
X103181614Y-92647715D01*
X103175006Y-92644348D01*
X103088917Y-92600483D01*
X103038123Y-92552511D01*
X103021328Y-92484690D01*
X103043865Y-92418555D01*
X103088917Y-92379516D01*
X103181610Y-92332287D01*
X103261730Y-92274077D01*
X103347213Y-92211971D01*
X103347215Y-92211968D01*
X103347219Y-92211966D01*
X103491966Y-92067219D01*
X103491968Y-92067215D01*
X103491971Y-92067213D01*
X103598545Y-91920524D01*
X103612287Y-91901610D01*
X103705220Y-91719219D01*
X103768477Y-91524534D01*
X103800500Y-91322352D01*
X103800500Y-91117648D01*
X103779456Y-90984781D01*
X103768477Y-90915465D01*
X103705218Y-90720776D01*
X103659619Y-90631284D01*
X103612287Y-90538390D01*
X103598548Y-90519480D01*
X103491971Y-90372786D01*
X103347213Y-90228028D01*
X103181614Y-90107715D01*
X103175006Y-90104348D01*
X103088917Y-90060483D01*
X103038123Y-90012511D01*
X103021328Y-89944690D01*
X103043865Y-89878555D01*
X103088917Y-89839516D01*
X103181610Y-89792287D01*
X103264198Y-89732284D01*
X103347213Y-89671971D01*
X103347215Y-89671968D01*
X103347219Y-89671966D01*
X103491966Y-89527219D01*
X103491968Y-89527215D01*
X103491971Y-89527213D01*
X103544732Y-89454590D01*
X103612287Y-89361610D01*
X103705220Y-89179219D01*
X103768477Y-88984534D01*
X103800500Y-88782352D01*
X103800500Y-88577648D01*
X103768477Y-88375466D01*
X103705220Y-88180781D01*
X103705218Y-88180778D01*
X103705218Y-88180776D01*
X103638838Y-88050500D01*
X103612287Y-87998390D01*
X103601237Y-87983181D01*
X103491971Y-87832786D01*
X103347213Y-87688028D01*
X103181614Y-87567715D01*
X103175006Y-87564348D01*
X103088917Y-87520483D01*
X103038123Y-87472511D01*
X103021328Y-87404690D01*
X103043865Y-87338555D01*
X103088917Y-87299516D01*
X103181610Y-87252287D01*
X103215713Y-87227510D01*
X103347213Y-87131971D01*
X103347215Y-87131968D01*
X103347219Y-87131966D01*
X103491966Y-86987219D01*
X103491968Y-86987215D01*
X103491971Y-86987213D01*
X103579012Y-86867409D01*
X103612287Y-86821610D01*
X103705220Y-86639219D01*
X103768477Y-86444534D01*
X103800500Y-86242352D01*
X103800500Y-86037648D01*
X103768477Y-85835466D01*
X103705220Y-85640781D01*
X103705218Y-85640778D01*
X103705218Y-85640776D01*
X103656305Y-85544780D01*
X103612287Y-85458390D01*
X103604556Y-85447749D01*
X103491971Y-85292786D01*
X103347213Y-85148028D01*
X103181614Y-85027715D01*
X103175006Y-85024348D01*
X103088917Y-84980483D01*
X103038123Y-84932511D01*
X103021328Y-84864690D01*
X103043865Y-84798555D01*
X103088917Y-84759516D01*
X103181610Y-84712287D01*
X103202770Y-84696913D01*
X103347213Y-84591971D01*
X103347215Y-84591968D01*
X103347219Y-84591966D01*
X103491966Y-84447219D01*
X103491968Y-84447215D01*
X103491971Y-84447213D01*
X103544732Y-84374590D01*
X103612287Y-84281610D01*
X103705220Y-84099219D01*
X103768477Y-83904534D01*
X103800500Y-83702352D01*
X103800500Y-83497648D01*
X103768477Y-83295466D01*
X103705220Y-83100781D01*
X103705218Y-83100778D01*
X103705218Y-83100776D01*
X103663036Y-83017990D01*
X103612287Y-82918390D01*
X103604556Y-82907749D01*
X103491971Y-82752786D01*
X103347213Y-82608028D01*
X103181614Y-82487715D01*
X103158467Y-82475921D01*
X103088917Y-82440483D01*
X103038123Y-82392511D01*
X103021328Y-82324690D01*
X103043865Y-82258555D01*
X103088917Y-82219516D01*
X103181610Y-82172287D01*
X103279389Y-82101247D01*
X103347213Y-82051971D01*
X103347215Y-82051968D01*
X103347219Y-82051966D01*
X103491966Y-81907219D01*
X103491968Y-81907215D01*
X103491971Y-81907213D01*
X103544732Y-81834590D01*
X103612287Y-81741610D01*
X103705220Y-81559219D01*
X103768477Y-81364534D01*
X103800500Y-81162352D01*
X103800500Y-80957648D01*
X103768477Y-80755466D01*
X103768476Y-80755464D01*
X103705218Y-80560776D01*
X103671503Y-80494607D01*
X103612287Y-80378390D01*
X103568692Y-80318386D01*
X103491971Y-80212786D01*
X103347213Y-80068028D01*
X103181614Y-79947715D01*
X103175006Y-79944348D01*
X103088917Y-79900483D01*
X103038123Y-79852511D01*
X103021328Y-79784690D01*
X103043865Y-79718555D01*
X103088917Y-79679516D01*
X103181610Y-79632287D01*
X103202770Y-79616913D01*
X103347213Y-79511971D01*
X103347215Y-79511968D01*
X103347219Y-79511966D01*
X103491966Y-79367219D01*
X103491968Y-79367215D01*
X103491971Y-79367213D01*
X103544732Y-79294590D01*
X103612287Y-79201610D01*
X103705220Y-79019219D01*
X103768477Y-78824534D01*
X103800500Y-78622352D01*
X103800500Y-78417648D01*
X103768477Y-78215466D01*
X103705220Y-78020781D01*
X103705218Y-78020778D01*
X103705218Y-78020776D01*
X103671503Y-77954607D01*
X103612287Y-77838390D01*
X103604556Y-77827749D01*
X103491971Y-77672786D01*
X103347213Y-77528028D01*
X103181614Y-77407715D01*
X103175006Y-77404348D01*
X103088917Y-77360483D01*
X103038123Y-77312511D01*
X103021328Y-77244690D01*
X103043865Y-77178555D01*
X103088917Y-77139516D01*
X103181610Y-77092287D01*
X103202770Y-77076913D01*
X103347213Y-76971971D01*
X103347215Y-76971968D01*
X103347219Y-76971966D01*
X103491966Y-76827219D01*
X103491968Y-76827215D01*
X103491971Y-76827213D01*
X103544732Y-76754590D01*
X103612287Y-76661610D01*
X103705220Y-76479219D01*
X103768477Y-76284534D01*
X103800500Y-76082352D01*
X103800500Y-75877648D01*
X103768477Y-75675466D01*
X103705220Y-75480781D01*
X103705218Y-75480778D01*
X103705218Y-75480776D01*
X103671503Y-75414607D01*
X103612287Y-75298390D01*
X103604556Y-75287749D01*
X103491971Y-75132786D01*
X103347213Y-74988028D01*
X103181614Y-74867715D01*
X103175006Y-74864348D01*
X103088917Y-74820483D01*
X103038123Y-74772511D01*
X103021328Y-74704690D01*
X103043865Y-74638555D01*
X103088917Y-74599516D01*
X103181610Y-74552287D01*
X103245186Y-74506097D01*
X103347213Y-74431971D01*
X103347215Y-74431968D01*
X103347219Y-74431966D01*
X103491966Y-74287219D01*
X103491968Y-74287215D01*
X103491971Y-74287213D01*
X103544732Y-74214590D01*
X103612287Y-74121610D01*
X103705220Y-73939219D01*
X103768477Y-73744534D01*
X103800500Y-73542352D01*
X103800500Y-73337648D01*
X103768477Y-73135466D01*
X103759841Y-73108888D01*
X103724715Y-73000781D01*
X103705220Y-72940781D01*
X103705218Y-72940778D01*
X103705218Y-72940776D01*
X103671503Y-72874607D01*
X103612287Y-72758390D01*
X103587665Y-72724500D01*
X103491971Y-72592786D01*
X103347213Y-72448028D01*
X103181613Y-72327715D01*
X103181612Y-72327714D01*
X103181610Y-72327713D01*
X103124653Y-72298691D01*
X102999223Y-72234781D01*
X102804534Y-72171522D01*
X102629995Y-72143878D01*
X102602352Y-72139500D01*
X102397648Y-72139500D01*
X102373329Y-72143351D01*
X102195465Y-72171522D01*
X102000776Y-72234781D01*
X101818386Y-72327715D01*
X101652786Y-72448028D01*
X101508028Y-72592786D01*
X101387715Y-72758386D01*
X101294781Y-72940776D01*
X101231522Y-73135465D01*
X101213382Y-73250000D01*
X101199500Y-73337648D01*
X101199500Y-73542352D01*
X101203878Y-73569995D01*
X101231522Y-73744534D01*
X101294781Y-73939223D01*
X101387715Y-74121613D01*
X101508028Y-74287213D01*
X101652786Y-74431971D01*
X101770761Y-74517683D01*
X101818390Y-74552287D01*
X101909840Y-74598883D01*
X101911080Y-74599515D01*
X101961876Y-74647490D01*
X101978671Y-74715311D01*
X101956134Y-74781446D01*
X101911080Y-74820485D01*
X101818386Y-74867715D01*
X101652786Y-74988028D01*
X101508028Y-75132786D01*
X101387715Y-75298386D01*
X101294781Y-75480776D01*
X101231522Y-75675465D01*
X101199500Y-75877648D01*
X101199500Y-76082351D01*
X101231522Y-76284534D01*
X101294781Y-76479223D01*
X101387715Y-76661613D01*
X101508028Y-76827213D01*
X101652786Y-76971971D01*
X101807749Y-77084556D01*
X101818390Y-77092287D01*
X101909840Y-77138883D01*
X101911080Y-77139515D01*
X101961876Y-77187490D01*
X101978671Y-77255311D01*
X101956134Y-77321446D01*
X101911080Y-77360485D01*
X101818386Y-77407715D01*
X101652786Y-77528028D01*
X101508028Y-77672786D01*
X101387715Y-77838386D01*
X101294781Y-78020776D01*
X101231522Y-78215465D01*
X101199500Y-78417648D01*
X101199500Y-78622351D01*
X101231522Y-78824534D01*
X101294781Y-79019223D01*
X101387715Y-79201613D01*
X101508028Y-79367213D01*
X101652786Y-79511971D01*
X101807749Y-79624556D01*
X101818390Y-79632287D01*
X101909840Y-79678883D01*
X101911080Y-79679515D01*
X101961876Y-79727490D01*
X101978671Y-79795311D01*
X101956134Y-79861446D01*
X101911080Y-79900485D01*
X101818386Y-79947715D01*
X101652786Y-80068028D01*
X101508028Y-80212786D01*
X101387715Y-80378386D01*
X101294781Y-80560776D01*
X101231522Y-80755465D01*
X101199500Y-80957648D01*
X101199500Y-81162351D01*
X101231522Y-81364534D01*
X101294781Y-81559223D01*
X101387715Y-81741613D01*
X101508028Y-81907213D01*
X101652786Y-82051971D01*
X101735806Y-82112287D01*
X101818390Y-82172287D01*
X101883021Y-82205218D01*
X101911080Y-82219515D01*
X101961876Y-82267490D01*
X101978671Y-82335311D01*
X101956134Y-82401446D01*
X101911080Y-82440485D01*
X101818386Y-82487715D01*
X101652786Y-82608028D01*
X101508028Y-82752786D01*
X101387715Y-82918386D01*
X101294781Y-83100776D01*
X101231522Y-83295465D01*
X101199500Y-83497648D01*
X101199500Y-83702351D01*
X101231522Y-83904534D01*
X101294781Y-84099223D01*
X101387715Y-84281613D01*
X101508028Y-84447213D01*
X101652786Y-84591971D01*
X101807749Y-84704556D01*
X101818390Y-84712287D01*
X101891425Y-84749500D01*
X101911080Y-84759515D01*
X101961876Y-84807490D01*
X101978671Y-84875311D01*
X101956134Y-84941446D01*
X101911080Y-84980485D01*
X101818386Y-85027715D01*
X101652786Y-85148028D01*
X101508028Y-85292786D01*
X101387715Y-85458386D01*
X101294781Y-85640776D01*
X101231522Y-85835465D01*
X101199500Y-86037648D01*
X101199500Y-86242351D01*
X101231522Y-86444534D01*
X101294781Y-86639223D01*
X101387715Y-86821613D01*
X101508028Y-86987213D01*
X101652786Y-87131971D01*
X101784287Y-87227510D01*
X101818390Y-87252287D01*
X101909840Y-87298883D01*
X101911080Y-87299515D01*
X101961876Y-87347490D01*
X101978671Y-87415311D01*
X101956134Y-87481446D01*
X101911080Y-87520485D01*
X101818386Y-87567715D01*
X101652786Y-87688028D01*
X101508028Y-87832786D01*
X101387715Y-87998386D01*
X101294781Y-88180776D01*
X101231522Y-88375465D01*
X101199500Y-88577648D01*
X101199500Y-88782351D01*
X101231522Y-88984534D01*
X101294781Y-89179223D01*
X101387715Y-89361613D01*
X101508028Y-89527213D01*
X101652786Y-89671971D01*
X101735806Y-89732287D01*
X101818390Y-89792287D01*
X101883021Y-89825218D01*
X101911080Y-89839515D01*
X101961876Y-89887490D01*
X101978671Y-89955311D01*
X101956134Y-90021446D01*
X101911080Y-90060485D01*
X101818386Y-90107715D01*
X101652788Y-90228027D01*
X101517633Y-90363182D01*
X101456310Y-90396666D01*
X101429952Y-90399500D01*
X91079766Y-90399500D01*
X91012727Y-90379815D01*
X91010875Y-90378602D01*
X90879185Y-90290609D01*
X90879172Y-90290602D01*
X90733501Y-90230264D01*
X90733489Y-90230261D01*
X90578845Y-90199500D01*
X90578842Y-90199500D01*
X90421158Y-90199500D01*
X90421155Y-90199500D01*
X90266510Y-90230261D01*
X90266498Y-90230264D01*
X90120827Y-90290602D01*
X90120814Y-90290609D01*
X89989125Y-90378602D01*
X89922447Y-90399480D01*
X89920234Y-90399500D01*
X86661669Y-90399500D01*
X86661653Y-90399499D01*
X86654057Y-90399499D01*
X86495943Y-90399499D01*
X86388587Y-90428265D01*
X86343210Y-90440424D01*
X86343209Y-90440425D01*
X86293096Y-90469359D01*
X86293095Y-90469360D01*
X86249689Y-90494420D01*
X86206285Y-90519479D01*
X86206282Y-90519481D01*
X86094478Y-90631286D01*
X73858280Y-102867483D01*
X73796957Y-102900968D01*
X73727265Y-102895984D01*
X73714311Y-102890290D01*
X73653567Y-102859339D01*
X73535996Y-102799433D01*
X73311368Y-102726446D01*
X73078097Y-102689500D01*
X73078092Y-102689500D01*
X72841908Y-102689500D01*
X72841903Y-102689500D01*
X72608631Y-102726446D01*
X72384003Y-102799433D01*
X72173563Y-102906659D01*
X72049840Y-102996549D01*
X71984034Y-103020029D01*
X71915980Y-103004203D01*
X71868410Y-102955255D01*
X71868047Y-102955454D01*
X71867334Y-102954148D01*
X71867285Y-102954098D01*
X71867187Y-102953880D01*
X71863793Y-102947664D01*
X71777547Y-102832455D01*
X71777544Y-102832452D01*
X71662335Y-102746206D01*
X71662328Y-102746202D01*
X71527482Y-102695908D01*
X71527483Y-102695908D01*
X71467883Y-102689501D01*
X71467881Y-102689500D01*
X71467873Y-102689500D01*
X71467864Y-102689500D01*
X69372129Y-102689500D01*
X69372123Y-102689501D01*
X69312516Y-102695908D01*
X69177671Y-102746202D01*
X69177664Y-102746206D01*
X69062455Y-102832452D01*
X69062452Y-102832455D01*
X68976206Y-102947664D01*
X68976202Y-102947671D01*
X68925908Y-103082517D01*
X68919501Y-103142116D01*
X68919500Y-103142135D01*
X64000500Y-103142135D01*
X64000500Y-69263994D01*
X73610000Y-69263994D01*
X73610000Y-69496005D01*
X73610001Y-69496022D01*
X73640283Y-69726040D01*
X73640286Y-69726053D01*
X73700336Y-69950167D01*
X73789124Y-70164521D01*
X73789132Y-70164538D01*
X73905136Y-70365461D01*
X73905142Y-70365469D01*
X73964117Y-70442327D01*
X74790438Y-69616006D01*
X74817271Y-69680785D01*
X74886764Y-69784789D01*
X74975211Y-69873236D01*
X75079215Y-69942729D01*
X75143992Y-69969561D01*
X74317671Y-70795881D01*
X74394530Y-70854857D01*
X74394538Y-70854863D01*
X74595461Y-70970867D01*
X74595478Y-70970875D01*
X74809832Y-71059663D01*
X75033946Y-71119713D01*
X75033959Y-71119716D01*
X75263977Y-71149998D01*
X75263995Y-71150000D01*
X75496005Y-71150000D01*
X75496022Y-71149998D01*
X75726040Y-71119716D01*
X75726053Y-71119713D01*
X75950167Y-71059663D01*
X76164521Y-70970875D01*
X76164538Y-70970867D01*
X76365475Y-70854855D01*
X76442327Y-70795883D01*
X76442327Y-70795880D01*
X75616007Y-69969561D01*
X75680785Y-69942729D01*
X75784789Y-69873236D01*
X75873236Y-69784789D01*
X75942729Y-69680785D01*
X75969561Y-69616007D01*
X76795880Y-70442327D01*
X76795883Y-70442327D01*
X76854855Y-70365475D01*
X76970867Y-70164538D01*
X76970875Y-70164521D01*
X77059663Y-69950167D01*
X77119713Y-69726053D01*
X77119716Y-69726040D01*
X77149998Y-69496022D01*
X77150000Y-69496005D01*
X77150000Y-69263986D01*
X77149995Y-69263947D01*
X78689500Y-69263947D01*
X78689500Y-69496052D01*
X78719794Y-69726148D01*
X78779862Y-69950328D01*
X78868677Y-70164745D01*
X78868685Y-70164762D01*
X78984720Y-70365743D01*
X78984721Y-70365745D01*
X79126009Y-70549875D01*
X79126015Y-70549882D01*
X79290117Y-70713984D01*
X79290124Y-70713990D01*
X79474254Y-70855278D01*
X79474256Y-70855279D01*
X79675237Y-70971314D01*
X79675240Y-70971315D01*
X79675248Y-70971320D01*
X79889670Y-71060137D01*
X80113851Y-71120206D01*
X80343955Y-71150500D01*
X80343962Y-71150500D01*
X80576038Y-71150500D01*
X80576045Y-71150500D01*
X80806149Y-71120206D01*
X81030330Y-71060137D01*
X81244752Y-70971320D01*
X81445748Y-70855276D01*
X81629877Y-70713989D01*
X81793989Y-70549877D01*
X81935276Y-70365748D01*
X82051320Y-70164752D01*
X82140137Y-69950330D01*
X82200206Y-69726149D01*
X82230500Y-69496045D01*
X82230500Y-69263955D01*
X82230499Y-69263947D01*
X83769500Y-69263947D01*
X83769500Y-69496052D01*
X83799794Y-69726148D01*
X83859862Y-69950328D01*
X83948677Y-70164745D01*
X83948685Y-70164762D01*
X84064720Y-70365743D01*
X84064721Y-70365745D01*
X84206009Y-70549875D01*
X84206015Y-70549882D01*
X84370117Y-70713984D01*
X84370124Y-70713990D01*
X84554254Y-70855278D01*
X84554256Y-70855279D01*
X84755237Y-70971314D01*
X84755240Y-70971315D01*
X84755248Y-70971320D01*
X84969670Y-71060137D01*
X85193851Y-71120206D01*
X85423955Y-71150500D01*
X85423962Y-71150500D01*
X85656038Y-71150500D01*
X85656045Y-71150500D01*
X85886149Y-71120206D01*
X86110330Y-71060137D01*
X86324752Y-70971320D01*
X86525748Y-70855276D01*
X86709877Y-70713989D01*
X86873989Y-70549877D01*
X87015276Y-70365748D01*
X87131320Y-70164752D01*
X87220137Y-69950330D01*
X87280206Y-69726149D01*
X87310500Y-69496045D01*
X87310500Y-69263955D01*
X87310499Y-69263947D01*
X88849500Y-69263947D01*
X88849500Y-69496052D01*
X88879794Y-69726148D01*
X88939862Y-69950328D01*
X89028677Y-70164745D01*
X89028685Y-70164762D01*
X89144720Y-70365743D01*
X89144721Y-70365745D01*
X89286009Y-70549875D01*
X89286015Y-70549882D01*
X89450117Y-70713984D01*
X89450124Y-70713990D01*
X89634254Y-70855278D01*
X89634256Y-70855279D01*
X89835237Y-70971314D01*
X89835240Y-70971315D01*
X89835248Y-70971320D01*
X90049670Y-71060137D01*
X90273851Y-71120206D01*
X90503955Y-71150500D01*
X90503962Y-71150500D01*
X90736038Y-71150500D01*
X90736045Y-71150500D01*
X90966149Y-71120206D01*
X91190330Y-71060137D01*
X91404752Y-70971320D01*
X91605748Y-70855276D01*
X91789877Y-70713989D01*
X91953989Y-70549877D01*
X92095276Y-70365748D01*
X92211320Y-70164752D01*
X92300137Y-69950330D01*
X92360206Y-69726149D01*
X92390500Y-69496045D01*
X92390500Y-69263955D01*
X92360206Y-69033851D01*
X92300137Y-68809670D01*
X92211320Y-68595248D01*
X92211314Y-68595237D01*
X92095279Y-68394256D01*
X92095278Y-68394254D01*
X91953990Y-68210124D01*
X91953984Y-68210117D01*
X91789882Y-68046015D01*
X91789875Y-68046009D01*
X91605745Y-67904721D01*
X91605743Y-67904720D01*
X91404762Y-67788685D01*
X91404754Y-67788681D01*
X91404752Y-67788680D01*
X91190330Y-67699863D01*
X91190331Y-67699863D01*
X91190328Y-67699862D01*
X91048203Y-67661780D01*
X90966149Y-67639794D01*
X90937386Y-67636007D01*
X90736052Y-67609500D01*
X90736045Y-67609500D01*
X90503955Y-67609500D01*
X90503947Y-67609500D01*
X90273851Y-67639794D01*
X90049671Y-67699862D01*
X89835254Y-67788677D01*
X89835237Y-67788685D01*
X89634256Y-67904720D01*
X89634254Y-67904721D01*
X89450124Y-68046009D01*
X89450117Y-68046015D01*
X89286015Y-68210117D01*
X89286009Y-68210124D01*
X89144721Y-68394254D01*
X89144720Y-68394256D01*
X89028685Y-68595237D01*
X89028677Y-68595254D01*
X88939862Y-68809671D01*
X88879794Y-69033851D01*
X88849500Y-69263947D01*
X87310499Y-69263947D01*
X87280206Y-69033851D01*
X87220137Y-68809670D01*
X87131320Y-68595248D01*
X87131314Y-68595237D01*
X87015279Y-68394256D01*
X87015278Y-68394254D01*
X86873990Y-68210124D01*
X86873984Y-68210117D01*
X86709882Y-68046015D01*
X86709875Y-68046009D01*
X86525745Y-67904721D01*
X86525743Y-67904720D01*
X86324762Y-67788685D01*
X86324754Y-67788681D01*
X86324752Y-67788680D01*
X86110330Y-67699863D01*
X86110331Y-67699863D01*
X86110328Y-67699862D01*
X85968203Y-67661780D01*
X85886149Y-67639794D01*
X85857386Y-67636007D01*
X85656052Y-67609500D01*
X85656045Y-67609500D01*
X85423955Y-67609500D01*
X85423947Y-67609500D01*
X85193851Y-67639794D01*
X84969671Y-67699862D01*
X84755254Y-67788677D01*
X84755237Y-67788685D01*
X84554256Y-67904720D01*
X84554254Y-67904721D01*
X84370124Y-68046009D01*
X84370117Y-68046015D01*
X84206015Y-68210117D01*
X84206009Y-68210124D01*
X84064721Y-68394254D01*
X84064720Y-68394256D01*
X83948685Y-68595237D01*
X83948677Y-68595254D01*
X83859862Y-68809671D01*
X83799794Y-69033851D01*
X83769500Y-69263947D01*
X82230499Y-69263947D01*
X82200206Y-69033851D01*
X82140137Y-68809670D01*
X82051320Y-68595248D01*
X82051314Y-68595237D01*
X81935279Y-68394256D01*
X81935278Y-68394254D01*
X81793990Y-68210124D01*
X81793984Y-68210117D01*
X81629882Y-68046015D01*
X81629875Y-68046009D01*
X81445745Y-67904721D01*
X81445743Y-67904720D01*
X81244762Y-67788685D01*
X81244754Y-67788681D01*
X81244752Y-67788680D01*
X81030330Y-67699863D01*
X81030331Y-67699863D01*
X81030328Y-67699862D01*
X80888203Y-67661780D01*
X80806149Y-67639794D01*
X80777386Y-67636007D01*
X80576052Y-67609500D01*
X80576045Y-67609500D01*
X80343955Y-67609500D01*
X80343947Y-67609500D01*
X80113851Y-67639794D01*
X79889671Y-67699862D01*
X79675254Y-67788677D01*
X79675237Y-67788685D01*
X79474256Y-67904720D01*
X79474254Y-67904721D01*
X79290124Y-68046009D01*
X79290117Y-68046015D01*
X79126015Y-68210117D01*
X79126009Y-68210124D01*
X78984721Y-68394254D01*
X78984720Y-68394256D01*
X78868685Y-68595237D01*
X78868677Y-68595254D01*
X78779862Y-68809671D01*
X78719794Y-69033851D01*
X78689500Y-69263947D01*
X77149995Y-69263947D01*
X77119716Y-69033959D01*
X77119713Y-69033946D01*
X77059663Y-68809832D01*
X76970875Y-68595478D01*
X76970867Y-68595461D01*
X76854863Y-68394538D01*
X76854857Y-68394530D01*
X76795881Y-68317671D01*
X75969560Y-69143991D01*
X75942729Y-69079215D01*
X75873236Y-68975211D01*
X75784789Y-68886764D01*
X75680785Y-68817271D01*
X75616007Y-68790438D01*
X76442327Y-67964117D01*
X76365469Y-67905142D01*
X76365461Y-67905136D01*
X76164538Y-67789132D01*
X76164521Y-67789124D01*
X75950167Y-67700336D01*
X75726053Y-67640286D01*
X75726040Y-67640283D01*
X75496022Y-67610001D01*
X75496005Y-67610000D01*
X75263995Y-67610000D01*
X75263977Y-67610001D01*
X75033959Y-67640283D01*
X75033946Y-67640286D01*
X74809832Y-67700336D01*
X74595478Y-67789124D01*
X74595461Y-67789132D01*
X74394541Y-67905134D01*
X74394533Y-67905140D01*
X74317671Y-67964116D01*
X74317671Y-67964117D01*
X75143992Y-68790438D01*
X75079215Y-68817271D01*
X74975211Y-68886764D01*
X74886764Y-68975211D01*
X74817271Y-69079215D01*
X74790438Y-69143992D01*
X73964117Y-68317671D01*
X73964116Y-68317671D01*
X73905140Y-68394533D01*
X73905134Y-68394541D01*
X73789132Y-68595461D01*
X73789124Y-68595478D01*
X73700336Y-68809832D01*
X73640286Y-69033946D01*
X73640283Y-69033959D01*
X73610001Y-69263977D01*
X73610000Y-69263994D01*
X64000500Y-69263994D01*
X64000500Y-64124500D01*
X64020185Y-64057461D01*
X64072989Y-64011706D01*
X64124500Y-64000500D01*
X150875500Y-64000500D01*
X150942539Y-64020185D01*
G37*
G04 #@! TD.AperFunction*
M02*
