G04 #@! TF.GenerationSoftware,KiCad,Pcbnew,9.0.3*
G04 #@! TF.CreationDate,2025-09-07T18:19:37+02:00*
G04 #@! TF.ProjectId,Design1,44657369-676e-4312-9e6b-696361645f70,rev?*
G04 #@! TF.SameCoordinates,Original*
G04 #@! TF.FileFunction,Legend,Top*
G04 #@! TF.FilePolarity,Positive*
%FSLAX46Y46*%
G04 Gerber Fmt 4.6, Leading zero omitted, Abs format (unit mm)*
G04 Created by KiCad (PCBNEW 9.0.3) date 2025-09-07 18:19:37*
%MOMM*%
%LPD*%
G01*
G04 APERTURE LIST*
%ADD10C,0.152400*%
%ADD11C,0.150000*%
%ADD12C,0.100000*%
%ADD13C,0.120000*%
G04 APERTURE END LIST*
D10*
X77793786Y-78392603D02*
X77793786Y-77579803D01*
X77793786Y-77579803D02*
X78064720Y-78160375D01*
X78064720Y-78160375D02*
X78335653Y-77579803D01*
X78335653Y-77579803D02*
X78335653Y-78392603D01*
X79071043Y-78392603D02*
X79071043Y-77966851D01*
X79071043Y-77966851D02*
X79032338Y-77889441D01*
X79032338Y-77889441D02*
X78954929Y-77850737D01*
X78954929Y-77850737D02*
X78800110Y-77850737D01*
X78800110Y-77850737D02*
X78722700Y-77889441D01*
X79071043Y-78353899D02*
X78993634Y-78392603D01*
X78993634Y-78392603D02*
X78800110Y-78392603D01*
X78800110Y-78392603D02*
X78722700Y-78353899D01*
X78722700Y-78353899D02*
X78683996Y-78276489D01*
X78683996Y-78276489D02*
X78683996Y-78199079D01*
X78683996Y-78199079D02*
X78722700Y-78121670D01*
X78722700Y-78121670D02*
X78800110Y-78082965D01*
X78800110Y-78082965D02*
X78993634Y-78082965D01*
X78993634Y-78082965D02*
X79071043Y-78044260D01*
X79458090Y-77850737D02*
X79458090Y-78392603D01*
X79458090Y-77928146D02*
X79496795Y-77889441D01*
X79496795Y-77889441D02*
X79574205Y-77850737D01*
X79574205Y-77850737D02*
X79690319Y-77850737D01*
X79690319Y-77850737D02*
X79767728Y-77889441D01*
X79767728Y-77889441D02*
X79806433Y-77966851D01*
X79806433Y-77966851D02*
X79806433Y-78392603D01*
X80541823Y-77850737D02*
X80541823Y-78392603D01*
X80193480Y-77850737D02*
X80193480Y-78276489D01*
X80193480Y-78276489D02*
X80232185Y-78353899D01*
X80232185Y-78353899D02*
X80309595Y-78392603D01*
X80309595Y-78392603D02*
X80425709Y-78392603D01*
X80425709Y-78392603D02*
X80503118Y-78353899D01*
X80503118Y-78353899D02*
X80541823Y-78315194D01*
X80812756Y-77850737D02*
X81122394Y-77850737D01*
X80928870Y-78392603D02*
X80928870Y-77695918D01*
X80928870Y-77695918D02*
X80967575Y-77618508D01*
X80967575Y-77618508D02*
X81044985Y-77579803D01*
X81044985Y-77579803D02*
X81122394Y-77579803D01*
X81741670Y-78392603D02*
X81741670Y-77966851D01*
X81741670Y-77966851D02*
X81702965Y-77889441D01*
X81702965Y-77889441D02*
X81625556Y-77850737D01*
X81625556Y-77850737D02*
X81470737Y-77850737D01*
X81470737Y-77850737D02*
X81393327Y-77889441D01*
X81741670Y-78353899D02*
X81664261Y-78392603D01*
X81664261Y-78392603D02*
X81470737Y-78392603D01*
X81470737Y-78392603D02*
X81393327Y-78353899D01*
X81393327Y-78353899D02*
X81354623Y-78276489D01*
X81354623Y-78276489D02*
X81354623Y-78199079D01*
X81354623Y-78199079D02*
X81393327Y-78121670D01*
X81393327Y-78121670D02*
X81470737Y-78082965D01*
X81470737Y-78082965D02*
X81664261Y-78082965D01*
X81664261Y-78082965D02*
X81741670Y-78044260D01*
X82477060Y-78353899D02*
X82399651Y-78392603D01*
X82399651Y-78392603D02*
X82244832Y-78392603D01*
X82244832Y-78392603D02*
X82167422Y-78353899D01*
X82167422Y-78353899D02*
X82128717Y-78315194D01*
X82128717Y-78315194D02*
X82090013Y-78237784D01*
X82090013Y-78237784D02*
X82090013Y-78005556D01*
X82090013Y-78005556D02*
X82128717Y-77928146D01*
X82128717Y-77928146D02*
X82167422Y-77889441D01*
X82167422Y-77889441D02*
X82244832Y-77850737D01*
X82244832Y-77850737D02*
X82399651Y-77850737D01*
X82399651Y-77850737D02*
X82477060Y-77889441D01*
X82709289Y-77850737D02*
X83018927Y-77850737D01*
X82825403Y-77579803D02*
X82825403Y-78276489D01*
X82825403Y-78276489D02*
X82864108Y-78353899D01*
X82864108Y-78353899D02*
X82941518Y-78392603D01*
X82941518Y-78392603D02*
X83018927Y-78392603D01*
X83638203Y-77850737D02*
X83638203Y-78392603D01*
X83289860Y-77850737D02*
X83289860Y-78276489D01*
X83289860Y-78276489D02*
X83328565Y-78353899D01*
X83328565Y-78353899D02*
X83405975Y-78392603D01*
X83405975Y-78392603D02*
X83522089Y-78392603D01*
X83522089Y-78392603D02*
X83599498Y-78353899D01*
X83599498Y-78353899D02*
X83638203Y-78315194D01*
X84025250Y-78392603D02*
X84025250Y-77850737D01*
X84025250Y-78005556D02*
X84063955Y-77928146D01*
X84063955Y-77928146D02*
X84102660Y-77889441D01*
X84102660Y-77889441D02*
X84180069Y-77850737D01*
X84180069Y-77850737D02*
X84257479Y-77850737D01*
X84838050Y-78353899D02*
X84760641Y-78392603D01*
X84760641Y-78392603D02*
X84605822Y-78392603D01*
X84605822Y-78392603D02*
X84528412Y-78353899D01*
X84528412Y-78353899D02*
X84489708Y-78276489D01*
X84489708Y-78276489D02*
X84489708Y-77966851D01*
X84489708Y-77966851D02*
X84528412Y-77889441D01*
X84528412Y-77889441D02*
X84605822Y-77850737D01*
X84605822Y-77850737D02*
X84760641Y-77850737D01*
X84760641Y-77850737D02*
X84838050Y-77889441D01*
X84838050Y-77889441D02*
X84876755Y-77966851D01*
X84876755Y-77966851D02*
X84876755Y-78044260D01*
X84876755Y-78044260D02*
X84489708Y-78121670D01*
X85186394Y-78353899D02*
X85263803Y-78392603D01*
X85263803Y-78392603D02*
X85418622Y-78392603D01*
X85418622Y-78392603D02*
X85496032Y-78353899D01*
X85496032Y-78353899D02*
X85534736Y-78276489D01*
X85534736Y-78276489D02*
X85534736Y-78237784D01*
X85534736Y-78237784D02*
X85496032Y-78160375D01*
X85496032Y-78160375D02*
X85418622Y-78121670D01*
X85418622Y-78121670D02*
X85302508Y-78121670D01*
X85302508Y-78121670D02*
X85225098Y-78082965D01*
X85225098Y-78082965D02*
X85186394Y-78005556D01*
X85186394Y-78005556D02*
X85186394Y-77966851D01*
X85186394Y-77966851D02*
X85225098Y-77889441D01*
X85225098Y-77889441D02*
X85302508Y-77850737D01*
X85302508Y-77850737D02*
X85418622Y-77850737D01*
X85418622Y-77850737D02*
X85496032Y-77889441D01*
X85883079Y-78392603D02*
X85883079Y-77850737D01*
X85883079Y-78005556D02*
X85921784Y-77928146D01*
X85921784Y-77928146D02*
X85960489Y-77889441D01*
X85960489Y-77889441D02*
X86037898Y-77850737D01*
X86037898Y-77850737D02*
X86115308Y-77850737D01*
X86347537Y-78353899D02*
X86424946Y-78392603D01*
X86424946Y-78392603D02*
X86579765Y-78392603D01*
X86579765Y-78392603D02*
X86657175Y-78353899D01*
X86657175Y-78353899D02*
X86695879Y-78276489D01*
X86695879Y-78276489D02*
X86695879Y-78237784D01*
X86695879Y-78237784D02*
X86657175Y-78160375D01*
X86657175Y-78160375D02*
X86579765Y-78121670D01*
X86579765Y-78121670D02*
X86463651Y-78121670D01*
X86463651Y-78121670D02*
X86386241Y-78082965D01*
X86386241Y-78082965D02*
X86347537Y-78005556D01*
X86347537Y-78005556D02*
X86347537Y-77966851D01*
X86347537Y-77966851D02*
X86386241Y-77889441D01*
X86386241Y-77889441D02*
X86463651Y-77850737D01*
X86463651Y-77850737D02*
X86579765Y-77850737D01*
X86579765Y-77850737D02*
X86657175Y-77889441D01*
X87315156Y-77966851D02*
X87044222Y-77966851D01*
X87044222Y-78392603D02*
X87044222Y-77579803D01*
X87044222Y-77579803D02*
X87431270Y-77579803D01*
X87740908Y-78392603D02*
X87740908Y-77850737D01*
X87740908Y-77579803D02*
X87702204Y-77618508D01*
X87702204Y-77618508D02*
X87740908Y-77657213D01*
X87740908Y-77657213D02*
X87779613Y-77618508D01*
X87779613Y-77618508D02*
X87740908Y-77579803D01*
X87740908Y-77579803D02*
X87740908Y-77657213D01*
X88437594Y-78353899D02*
X88360185Y-78392603D01*
X88360185Y-78392603D02*
X88205366Y-78392603D01*
X88205366Y-78392603D02*
X88127956Y-78353899D01*
X88127956Y-78353899D02*
X88089252Y-78276489D01*
X88089252Y-78276489D02*
X88089252Y-77966851D01*
X88089252Y-77966851D02*
X88127956Y-77889441D01*
X88127956Y-77889441D02*
X88205366Y-77850737D01*
X88205366Y-77850737D02*
X88360185Y-77850737D01*
X88360185Y-77850737D02*
X88437594Y-77889441D01*
X88437594Y-77889441D02*
X88476299Y-77966851D01*
X88476299Y-77966851D02*
X88476299Y-78044260D01*
X88476299Y-78044260D02*
X88089252Y-78121670D01*
X88940757Y-78392603D02*
X88863347Y-78353899D01*
X88863347Y-78353899D02*
X88824642Y-78276489D01*
X88824642Y-78276489D02*
X88824642Y-77579803D01*
X89598737Y-78392603D02*
X89598737Y-77579803D01*
X89598737Y-78353899D02*
X89521328Y-78392603D01*
X89521328Y-78392603D02*
X89366509Y-78392603D01*
X89366509Y-78392603D02*
X89289099Y-78353899D01*
X89289099Y-78353899D02*
X89250394Y-78315194D01*
X89250394Y-78315194D02*
X89211690Y-78237784D01*
X89211690Y-78237784D02*
X89211690Y-78005556D01*
X89211690Y-78005556D02*
X89250394Y-77928146D01*
X89250394Y-77928146D02*
X89289099Y-77889441D01*
X89289099Y-77889441D02*
X89366509Y-77850737D01*
X89366509Y-77850737D02*
X89521328Y-77850737D01*
X89521328Y-77850737D02*
X89598737Y-77889441D01*
X91755082Y-110657213D02*
X91793786Y-110618508D01*
X91793786Y-110618508D02*
X91871196Y-110579803D01*
X91871196Y-110579803D02*
X92064720Y-110579803D01*
X92064720Y-110579803D02*
X92142129Y-110618508D01*
X92142129Y-110618508D02*
X92180834Y-110657213D01*
X92180834Y-110657213D02*
X92219539Y-110734622D01*
X92219539Y-110734622D02*
X92219539Y-110812032D01*
X92219539Y-110812032D02*
X92180834Y-110928146D01*
X92180834Y-110928146D02*
X91716377Y-111392603D01*
X91716377Y-111392603D02*
X92219539Y-111392603D01*
X92722700Y-110579803D02*
X92800110Y-110579803D01*
X92800110Y-110579803D02*
X92877519Y-110618508D01*
X92877519Y-110618508D02*
X92916224Y-110657213D01*
X92916224Y-110657213D02*
X92954929Y-110734622D01*
X92954929Y-110734622D02*
X92993634Y-110889441D01*
X92993634Y-110889441D02*
X92993634Y-111082965D01*
X92993634Y-111082965D02*
X92954929Y-111237784D01*
X92954929Y-111237784D02*
X92916224Y-111315194D01*
X92916224Y-111315194D02*
X92877519Y-111353899D01*
X92877519Y-111353899D02*
X92800110Y-111392603D01*
X92800110Y-111392603D02*
X92722700Y-111392603D01*
X92722700Y-111392603D02*
X92645291Y-111353899D01*
X92645291Y-111353899D02*
X92606586Y-111315194D01*
X92606586Y-111315194D02*
X92567881Y-111237784D01*
X92567881Y-111237784D02*
X92529177Y-111082965D01*
X92529177Y-111082965D02*
X92529177Y-110889441D01*
X92529177Y-110889441D02*
X92567881Y-110734622D01*
X92567881Y-110734622D02*
X92606586Y-110657213D01*
X92606586Y-110657213D02*
X92645291Y-110618508D01*
X92645291Y-110618508D02*
X92722700Y-110579803D01*
X93303272Y-110657213D02*
X93341976Y-110618508D01*
X93341976Y-110618508D02*
X93419386Y-110579803D01*
X93419386Y-110579803D02*
X93612910Y-110579803D01*
X93612910Y-110579803D02*
X93690319Y-110618508D01*
X93690319Y-110618508D02*
X93729024Y-110657213D01*
X93729024Y-110657213D02*
X93767729Y-110734622D01*
X93767729Y-110734622D02*
X93767729Y-110812032D01*
X93767729Y-110812032D02*
X93729024Y-110928146D01*
X93729024Y-110928146D02*
X93264567Y-111392603D01*
X93264567Y-111392603D02*
X93767729Y-111392603D01*
X94503119Y-110579803D02*
X94116071Y-110579803D01*
X94116071Y-110579803D02*
X94077367Y-110966851D01*
X94077367Y-110966851D02*
X94116071Y-110928146D01*
X94116071Y-110928146D02*
X94193481Y-110889441D01*
X94193481Y-110889441D02*
X94387005Y-110889441D01*
X94387005Y-110889441D02*
X94464414Y-110928146D01*
X94464414Y-110928146D02*
X94503119Y-110966851D01*
X94503119Y-110966851D02*
X94541824Y-111044260D01*
X94541824Y-111044260D02*
X94541824Y-111237784D01*
X94541824Y-111237784D02*
X94503119Y-111315194D01*
X94503119Y-111315194D02*
X94464414Y-111353899D01*
X94464414Y-111353899D02*
X94387005Y-111392603D01*
X94387005Y-111392603D02*
X94193481Y-111392603D01*
X94193481Y-111392603D02*
X94116071Y-111353899D01*
X94116071Y-111353899D02*
X94077367Y-111315194D01*
X95393328Y-110579803D02*
X95664261Y-111392603D01*
X95664261Y-111392603D02*
X95935195Y-110579803D01*
X96631881Y-111392603D02*
X96167424Y-111392603D01*
X96399652Y-111392603D02*
X96399652Y-110579803D01*
X96399652Y-110579803D02*
X96322243Y-110695918D01*
X96322243Y-110695918D02*
X96244833Y-110773327D01*
X96244833Y-110773327D02*
X96167424Y-110812032D01*
X87793786Y-109892603D02*
X87793786Y-109079803D01*
X87793786Y-109079803D02*
X88103424Y-109079803D01*
X88103424Y-109079803D02*
X88180834Y-109118508D01*
X88180834Y-109118508D02*
X88219539Y-109157213D01*
X88219539Y-109157213D02*
X88258243Y-109234622D01*
X88258243Y-109234622D02*
X88258243Y-109350737D01*
X88258243Y-109350737D02*
X88219539Y-109428146D01*
X88219539Y-109428146D02*
X88180834Y-109466851D01*
X88180834Y-109466851D02*
X88103424Y-109505556D01*
X88103424Y-109505556D02*
X87793786Y-109505556D01*
X89071043Y-109815194D02*
X89032339Y-109853899D01*
X89032339Y-109853899D02*
X88916224Y-109892603D01*
X88916224Y-109892603D02*
X88838815Y-109892603D01*
X88838815Y-109892603D02*
X88722701Y-109853899D01*
X88722701Y-109853899D02*
X88645291Y-109776489D01*
X88645291Y-109776489D02*
X88606586Y-109699079D01*
X88606586Y-109699079D02*
X88567882Y-109544260D01*
X88567882Y-109544260D02*
X88567882Y-109428146D01*
X88567882Y-109428146D02*
X88606586Y-109273327D01*
X88606586Y-109273327D02*
X88645291Y-109195918D01*
X88645291Y-109195918D02*
X88722701Y-109118508D01*
X88722701Y-109118508D02*
X88838815Y-109079803D01*
X88838815Y-109079803D02*
X88916224Y-109079803D01*
X88916224Y-109079803D02*
X89032339Y-109118508D01*
X89032339Y-109118508D02*
X89071043Y-109157213D01*
X89690320Y-109466851D02*
X89806434Y-109505556D01*
X89806434Y-109505556D02*
X89845139Y-109544260D01*
X89845139Y-109544260D02*
X89883843Y-109621670D01*
X89883843Y-109621670D02*
X89883843Y-109737784D01*
X89883843Y-109737784D02*
X89845139Y-109815194D01*
X89845139Y-109815194D02*
X89806434Y-109853899D01*
X89806434Y-109853899D02*
X89729024Y-109892603D01*
X89729024Y-109892603D02*
X89419386Y-109892603D01*
X89419386Y-109892603D02*
X89419386Y-109079803D01*
X89419386Y-109079803D02*
X89690320Y-109079803D01*
X89690320Y-109079803D02*
X89767729Y-109118508D01*
X89767729Y-109118508D02*
X89806434Y-109157213D01*
X89806434Y-109157213D02*
X89845139Y-109234622D01*
X89845139Y-109234622D02*
X89845139Y-109312032D01*
X89845139Y-109312032D02*
X89806434Y-109389441D01*
X89806434Y-109389441D02*
X89767729Y-109428146D01*
X89767729Y-109428146D02*
X89690320Y-109466851D01*
X89690320Y-109466851D02*
X89419386Y-109466851D01*
X90812758Y-109660375D02*
X91199805Y-109660375D01*
X90735348Y-109892603D02*
X91006281Y-109079803D01*
X91006281Y-109079803D02*
X91277215Y-109892603D01*
X91548148Y-109892603D02*
X91548148Y-109350737D01*
X91548148Y-109505556D02*
X91586853Y-109428146D01*
X91586853Y-109428146D02*
X91625558Y-109389441D01*
X91625558Y-109389441D02*
X91702967Y-109350737D01*
X91702967Y-109350737D02*
X91780377Y-109350737D01*
X92399653Y-109892603D02*
X92399653Y-109079803D01*
X92399653Y-109853899D02*
X92322244Y-109892603D01*
X92322244Y-109892603D02*
X92167425Y-109892603D01*
X92167425Y-109892603D02*
X92090015Y-109853899D01*
X92090015Y-109853899D02*
X92051310Y-109815194D01*
X92051310Y-109815194D02*
X92012606Y-109737784D01*
X92012606Y-109737784D02*
X92012606Y-109505556D01*
X92012606Y-109505556D02*
X92051310Y-109428146D01*
X92051310Y-109428146D02*
X92090015Y-109389441D01*
X92090015Y-109389441D02*
X92167425Y-109350737D01*
X92167425Y-109350737D02*
X92322244Y-109350737D01*
X92322244Y-109350737D02*
X92399653Y-109389441D01*
X93135043Y-109350737D02*
X93135043Y-109892603D01*
X92786700Y-109350737D02*
X92786700Y-109776489D01*
X92786700Y-109776489D02*
X92825405Y-109853899D01*
X92825405Y-109853899D02*
X92902815Y-109892603D01*
X92902815Y-109892603D02*
X93018929Y-109892603D01*
X93018929Y-109892603D02*
X93096338Y-109853899D01*
X93096338Y-109853899D02*
X93135043Y-109815194D01*
X93522090Y-109892603D02*
X93522090Y-109350737D01*
X93522090Y-109079803D02*
X93483386Y-109118508D01*
X93483386Y-109118508D02*
X93522090Y-109157213D01*
X93522090Y-109157213D02*
X93560795Y-109118508D01*
X93560795Y-109118508D02*
X93522090Y-109079803D01*
X93522090Y-109079803D02*
X93522090Y-109157213D01*
X93909138Y-109350737D02*
X93909138Y-109892603D01*
X93909138Y-109428146D02*
X93947843Y-109389441D01*
X93947843Y-109389441D02*
X94025253Y-109350737D01*
X94025253Y-109350737D02*
X94141367Y-109350737D01*
X94141367Y-109350737D02*
X94218776Y-109389441D01*
X94218776Y-109389441D02*
X94257481Y-109466851D01*
X94257481Y-109466851D02*
X94257481Y-109892603D01*
X94760643Y-109892603D02*
X94683233Y-109853899D01*
X94683233Y-109853899D02*
X94644528Y-109815194D01*
X94644528Y-109815194D02*
X94605824Y-109737784D01*
X94605824Y-109737784D02*
X94605824Y-109505556D01*
X94605824Y-109505556D02*
X94644528Y-109428146D01*
X94644528Y-109428146D02*
X94683233Y-109389441D01*
X94683233Y-109389441D02*
X94760643Y-109350737D01*
X94760643Y-109350737D02*
X94876757Y-109350737D01*
X94876757Y-109350737D02*
X94954166Y-109389441D01*
X94954166Y-109389441D02*
X94992871Y-109428146D01*
X94992871Y-109428146D02*
X95031576Y-109505556D01*
X95031576Y-109505556D02*
X95031576Y-109737784D01*
X95031576Y-109737784D02*
X94992871Y-109815194D01*
X94992871Y-109815194D02*
X94954166Y-109853899D01*
X94954166Y-109853899D02*
X94876757Y-109892603D01*
X94876757Y-109892603D02*
X94760643Y-109892603D01*
X96424947Y-109892603D02*
X95960490Y-109892603D01*
X96192718Y-109892603D02*
X96192718Y-109079803D01*
X96192718Y-109079803D02*
X96115309Y-109195918D01*
X96115309Y-109195918D02*
X96037899Y-109273327D01*
X96037899Y-109273327D02*
X95960490Y-109312032D01*
X73293786Y-111892603D02*
X73293786Y-111079803D01*
X73293786Y-111079803D02*
X73564720Y-111660375D01*
X73564720Y-111660375D02*
X73835653Y-111079803D01*
X73835653Y-111079803D02*
X73835653Y-111892603D01*
X74183996Y-111660375D02*
X74571043Y-111660375D01*
X74106586Y-111892603D02*
X74377519Y-111079803D01*
X74377519Y-111079803D02*
X74648453Y-111892603D01*
X74841977Y-111079803D02*
X75383843Y-111892603D01*
X75383843Y-111079803D02*
X74841977Y-111892603D01*
X75616072Y-111079803D02*
X76119234Y-111079803D01*
X76119234Y-111079803D02*
X75848300Y-111389441D01*
X75848300Y-111389441D02*
X75964415Y-111389441D01*
X75964415Y-111389441D02*
X76041824Y-111428146D01*
X76041824Y-111428146D02*
X76080529Y-111466851D01*
X76080529Y-111466851D02*
X76119234Y-111544260D01*
X76119234Y-111544260D02*
X76119234Y-111737784D01*
X76119234Y-111737784D02*
X76080529Y-111815194D01*
X76080529Y-111815194D02*
X76041824Y-111853899D01*
X76041824Y-111853899D02*
X75964415Y-111892603D01*
X75964415Y-111892603D02*
X75732186Y-111892603D01*
X75732186Y-111892603D02*
X75654777Y-111853899D01*
X75654777Y-111853899D02*
X75616072Y-111815194D01*
X76622395Y-111079803D02*
X76699805Y-111079803D01*
X76699805Y-111079803D02*
X76777214Y-111118508D01*
X76777214Y-111118508D02*
X76815919Y-111157213D01*
X76815919Y-111157213D02*
X76854624Y-111234622D01*
X76854624Y-111234622D02*
X76893329Y-111389441D01*
X76893329Y-111389441D02*
X76893329Y-111582965D01*
X76893329Y-111582965D02*
X76854624Y-111737784D01*
X76854624Y-111737784D02*
X76815919Y-111815194D01*
X76815919Y-111815194D02*
X76777214Y-111853899D01*
X76777214Y-111853899D02*
X76699805Y-111892603D01*
X76699805Y-111892603D02*
X76622395Y-111892603D01*
X76622395Y-111892603D02*
X76544986Y-111853899D01*
X76544986Y-111853899D02*
X76506281Y-111815194D01*
X76506281Y-111815194D02*
X76467576Y-111737784D01*
X76467576Y-111737784D02*
X76428872Y-111582965D01*
X76428872Y-111582965D02*
X76428872Y-111389441D01*
X76428872Y-111389441D02*
X76467576Y-111234622D01*
X76467576Y-111234622D02*
X76506281Y-111157213D01*
X76506281Y-111157213D02*
X76544986Y-111118508D01*
X76544986Y-111118508D02*
X76622395Y-111079803D01*
X77667424Y-111892603D02*
X77202967Y-111892603D01*
X77435195Y-111892603D02*
X77435195Y-111079803D01*
X77435195Y-111079803D02*
X77357786Y-111195918D01*
X77357786Y-111195918D02*
X77280376Y-111273327D01*
X77280376Y-111273327D02*
X77202967Y-111312032D01*
X78170585Y-111079803D02*
X78247995Y-111079803D01*
X78247995Y-111079803D02*
X78325404Y-111118508D01*
X78325404Y-111118508D02*
X78364109Y-111157213D01*
X78364109Y-111157213D02*
X78402814Y-111234622D01*
X78402814Y-111234622D02*
X78441519Y-111389441D01*
X78441519Y-111389441D02*
X78441519Y-111582965D01*
X78441519Y-111582965D02*
X78402814Y-111737784D01*
X78402814Y-111737784D02*
X78364109Y-111815194D01*
X78364109Y-111815194D02*
X78325404Y-111853899D01*
X78325404Y-111853899D02*
X78247995Y-111892603D01*
X78247995Y-111892603D02*
X78170585Y-111892603D01*
X78170585Y-111892603D02*
X78093176Y-111853899D01*
X78093176Y-111853899D02*
X78054471Y-111815194D01*
X78054471Y-111815194D02*
X78015766Y-111737784D01*
X78015766Y-111737784D02*
X77977062Y-111582965D01*
X77977062Y-111582965D02*
X77977062Y-111389441D01*
X77977062Y-111389441D02*
X78015766Y-111234622D01*
X78015766Y-111234622D02*
X78054471Y-111157213D01*
X78054471Y-111157213D02*
X78093176Y-111118508D01*
X78093176Y-111118508D02*
X78170585Y-111079803D01*
X78751157Y-111157213D02*
X78789861Y-111118508D01*
X78789861Y-111118508D02*
X78867271Y-111079803D01*
X78867271Y-111079803D02*
X79060795Y-111079803D01*
X79060795Y-111079803D02*
X79138204Y-111118508D01*
X79138204Y-111118508D02*
X79176909Y-111157213D01*
X79176909Y-111157213D02*
X79215614Y-111234622D01*
X79215614Y-111234622D02*
X79215614Y-111312032D01*
X79215614Y-111312032D02*
X79176909Y-111428146D01*
X79176909Y-111428146D02*
X78712452Y-111892603D01*
X78712452Y-111892603D02*
X79215614Y-111892603D01*
X71255082Y-86353899D02*
X71371196Y-86392603D01*
X71371196Y-86392603D02*
X71564720Y-86392603D01*
X71564720Y-86392603D02*
X71642129Y-86353899D01*
X71642129Y-86353899D02*
X71680834Y-86315194D01*
X71680834Y-86315194D02*
X71719539Y-86237784D01*
X71719539Y-86237784D02*
X71719539Y-86160375D01*
X71719539Y-86160375D02*
X71680834Y-86082965D01*
X71680834Y-86082965D02*
X71642129Y-86044260D01*
X71642129Y-86044260D02*
X71564720Y-86005556D01*
X71564720Y-86005556D02*
X71409901Y-85966851D01*
X71409901Y-85966851D02*
X71332491Y-85928146D01*
X71332491Y-85928146D02*
X71293786Y-85889441D01*
X71293786Y-85889441D02*
X71255082Y-85812032D01*
X71255082Y-85812032D02*
X71255082Y-85734622D01*
X71255082Y-85734622D02*
X71293786Y-85657213D01*
X71293786Y-85657213D02*
X71332491Y-85618508D01*
X71332491Y-85618508D02*
X71409901Y-85579803D01*
X71409901Y-85579803D02*
X71603424Y-85579803D01*
X71603424Y-85579803D02*
X71719539Y-85618508D01*
X72029177Y-86353899D02*
X72145291Y-86392603D01*
X72145291Y-86392603D02*
X72338815Y-86392603D01*
X72338815Y-86392603D02*
X72416224Y-86353899D01*
X72416224Y-86353899D02*
X72454929Y-86315194D01*
X72454929Y-86315194D02*
X72493634Y-86237784D01*
X72493634Y-86237784D02*
X72493634Y-86160375D01*
X72493634Y-86160375D02*
X72454929Y-86082965D01*
X72454929Y-86082965D02*
X72416224Y-86044260D01*
X72416224Y-86044260D02*
X72338815Y-86005556D01*
X72338815Y-86005556D02*
X72183996Y-85966851D01*
X72183996Y-85966851D02*
X72106586Y-85928146D01*
X72106586Y-85928146D02*
X72067881Y-85889441D01*
X72067881Y-85889441D02*
X72029177Y-85812032D01*
X72029177Y-85812032D02*
X72029177Y-85734622D01*
X72029177Y-85734622D02*
X72067881Y-85657213D01*
X72067881Y-85657213D02*
X72106586Y-85618508D01*
X72106586Y-85618508D02*
X72183996Y-85579803D01*
X72183996Y-85579803D02*
X72377519Y-85579803D01*
X72377519Y-85579803D02*
X72493634Y-85618508D01*
X72841976Y-86392603D02*
X72841976Y-85579803D01*
X72841976Y-85579803D02*
X73035500Y-85579803D01*
X73035500Y-85579803D02*
X73151614Y-85618508D01*
X73151614Y-85618508D02*
X73229024Y-85695918D01*
X73229024Y-85695918D02*
X73267729Y-85773327D01*
X73267729Y-85773327D02*
X73306433Y-85928146D01*
X73306433Y-85928146D02*
X73306433Y-86044260D01*
X73306433Y-86044260D02*
X73267729Y-86199079D01*
X73267729Y-86199079D02*
X73229024Y-86276489D01*
X73229024Y-86276489D02*
X73151614Y-86353899D01*
X73151614Y-86353899D02*
X73035500Y-86392603D01*
X73035500Y-86392603D02*
X72841976Y-86392603D01*
X74080529Y-86392603D02*
X73616072Y-86392603D01*
X73848300Y-86392603D02*
X73848300Y-85579803D01*
X73848300Y-85579803D02*
X73770891Y-85695918D01*
X73770891Y-85695918D02*
X73693481Y-85773327D01*
X73693481Y-85773327D02*
X73616072Y-85812032D01*
X74351462Y-85579803D02*
X74854624Y-85579803D01*
X74854624Y-85579803D02*
X74583690Y-85889441D01*
X74583690Y-85889441D02*
X74699805Y-85889441D01*
X74699805Y-85889441D02*
X74777214Y-85928146D01*
X74777214Y-85928146D02*
X74815919Y-85966851D01*
X74815919Y-85966851D02*
X74854624Y-86044260D01*
X74854624Y-86044260D02*
X74854624Y-86237784D01*
X74854624Y-86237784D02*
X74815919Y-86315194D01*
X74815919Y-86315194D02*
X74777214Y-86353899D01*
X74777214Y-86353899D02*
X74699805Y-86392603D01*
X74699805Y-86392603D02*
X74467576Y-86392603D01*
X74467576Y-86392603D02*
X74390167Y-86353899D01*
X74390167Y-86353899D02*
X74351462Y-86315194D01*
X75357785Y-85579803D02*
X75435195Y-85579803D01*
X75435195Y-85579803D02*
X75512604Y-85618508D01*
X75512604Y-85618508D02*
X75551309Y-85657213D01*
X75551309Y-85657213D02*
X75590014Y-85734622D01*
X75590014Y-85734622D02*
X75628719Y-85889441D01*
X75628719Y-85889441D02*
X75628719Y-86082965D01*
X75628719Y-86082965D02*
X75590014Y-86237784D01*
X75590014Y-86237784D02*
X75551309Y-86315194D01*
X75551309Y-86315194D02*
X75512604Y-86353899D01*
X75512604Y-86353899D02*
X75435195Y-86392603D01*
X75435195Y-86392603D02*
X75357785Y-86392603D01*
X75357785Y-86392603D02*
X75280376Y-86353899D01*
X75280376Y-86353899D02*
X75241671Y-86315194D01*
X75241671Y-86315194D02*
X75202966Y-86237784D01*
X75202966Y-86237784D02*
X75164262Y-86082965D01*
X75164262Y-86082965D02*
X75164262Y-85889441D01*
X75164262Y-85889441D02*
X75202966Y-85734622D01*
X75202966Y-85734622D02*
X75241671Y-85657213D01*
X75241671Y-85657213D02*
X75280376Y-85618508D01*
X75280376Y-85618508D02*
X75357785Y-85579803D01*
X76325404Y-85579803D02*
X76170585Y-85579803D01*
X76170585Y-85579803D02*
X76093176Y-85618508D01*
X76093176Y-85618508D02*
X76054471Y-85657213D01*
X76054471Y-85657213D02*
X75977061Y-85773327D01*
X75977061Y-85773327D02*
X75938357Y-85928146D01*
X75938357Y-85928146D02*
X75938357Y-86237784D01*
X75938357Y-86237784D02*
X75977061Y-86315194D01*
X75977061Y-86315194D02*
X76015766Y-86353899D01*
X76015766Y-86353899D02*
X76093176Y-86392603D01*
X76093176Y-86392603D02*
X76247995Y-86392603D01*
X76247995Y-86392603D02*
X76325404Y-86353899D01*
X76325404Y-86353899D02*
X76364109Y-86315194D01*
X76364109Y-86315194D02*
X76402814Y-86237784D01*
X76402814Y-86237784D02*
X76402814Y-86044260D01*
X76402814Y-86044260D02*
X76364109Y-85966851D01*
X76364109Y-85966851D02*
X76325404Y-85928146D01*
X76325404Y-85928146D02*
X76247995Y-85889441D01*
X76247995Y-85889441D02*
X76093176Y-85889441D01*
X76093176Y-85889441D02*
X76015766Y-85928146D01*
X76015766Y-85928146D02*
X75977061Y-85966851D01*
X75977061Y-85966851D02*
X75938357Y-86044260D01*
X106755082Y-104160375D02*
X107142129Y-104160375D01*
X106677672Y-104392603D02*
X106948605Y-103579803D01*
X106948605Y-103579803D02*
X107219539Y-104392603D01*
X107490472Y-104392603D02*
X107490472Y-103850737D01*
X107490472Y-104005556D02*
X107529177Y-103928146D01*
X107529177Y-103928146D02*
X107567882Y-103889441D01*
X107567882Y-103889441D02*
X107645291Y-103850737D01*
X107645291Y-103850737D02*
X107722701Y-103850737D01*
X108341977Y-104392603D02*
X108341977Y-103579803D01*
X108341977Y-104353899D02*
X108264568Y-104392603D01*
X108264568Y-104392603D02*
X108109749Y-104392603D01*
X108109749Y-104392603D02*
X108032339Y-104353899D01*
X108032339Y-104353899D02*
X107993634Y-104315194D01*
X107993634Y-104315194D02*
X107954930Y-104237784D01*
X107954930Y-104237784D02*
X107954930Y-104005556D01*
X107954930Y-104005556D02*
X107993634Y-103928146D01*
X107993634Y-103928146D02*
X108032339Y-103889441D01*
X108032339Y-103889441D02*
X108109749Y-103850737D01*
X108109749Y-103850737D02*
X108264568Y-103850737D01*
X108264568Y-103850737D02*
X108341977Y-103889441D01*
X109077367Y-103850737D02*
X109077367Y-104392603D01*
X108729024Y-103850737D02*
X108729024Y-104276489D01*
X108729024Y-104276489D02*
X108767729Y-104353899D01*
X108767729Y-104353899D02*
X108845139Y-104392603D01*
X108845139Y-104392603D02*
X108961253Y-104392603D01*
X108961253Y-104392603D02*
X109038662Y-104353899D01*
X109038662Y-104353899D02*
X109077367Y-104315194D01*
X109464414Y-104392603D02*
X109464414Y-103850737D01*
X109464414Y-103579803D02*
X109425710Y-103618508D01*
X109425710Y-103618508D02*
X109464414Y-103657213D01*
X109464414Y-103657213D02*
X109503119Y-103618508D01*
X109503119Y-103618508D02*
X109464414Y-103579803D01*
X109464414Y-103579803D02*
X109464414Y-103657213D01*
X109851462Y-103850737D02*
X109851462Y-104392603D01*
X109851462Y-103928146D02*
X109890167Y-103889441D01*
X109890167Y-103889441D02*
X109967577Y-103850737D01*
X109967577Y-103850737D02*
X110083691Y-103850737D01*
X110083691Y-103850737D02*
X110161100Y-103889441D01*
X110161100Y-103889441D02*
X110199805Y-103966851D01*
X110199805Y-103966851D02*
X110199805Y-104392603D01*
X110702967Y-104392603D02*
X110625557Y-104353899D01*
X110625557Y-104353899D02*
X110586852Y-104315194D01*
X110586852Y-104315194D02*
X110548148Y-104237784D01*
X110548148Y-104237784D02*
X110548148Y-104005556D01*
X110548148Y-104005556D02*
X110586852Y-103928146D01*
X110586852Y-103928146D02*
X110625557Y-103889441D01*
X110625557Y-103889441D02*
X110702967Y-103850737D01*
X110702967Y-103850737D02*
X110819081Y-103850737D01*
X110819081Y-103850737D02*
X110896490Y-103889441D01*
X110896490Y-103889441D02*
X110935195Y-103928146D01*
X110935195Y-103928146D02*
X110973900Y-104005556D01*
X110973900Y-104005556D02*
X110973900Y-104237784D01*
X110973900Y-104237784D02*
X110935195Y-104315194D01*
X110935195Y-104315194D02*
X110896490Y-104353899D01*
X110896490Y-104353899D02*
X110819081Y-104392603D01*
X110819081Y-104392603D02*
X110702967Y-104392603D01*
X111941518Y-104392603D02*
X111941518Y-103579803D01*
X111941518Y-103579803D02*
X112405975Y-104392603D01*
X112405975Y-104392603D02*
X112405975Y-103579803D01*
X113141366Y-104392603D02*
X113141366Y-103966851D01*
X113141366Y-103966851D02*
X113102661Y-103889441D01*
X113102661Y-103889441D02*
X113025252Y-103850737D01*
X113025252Y-103850737D02*
X112870433Y-103850737D01*
X112870433Y-103850737D02*
X112793023Y-103889441D01*
X113141366Y-104353899D02*
X113063957Y-104392603D01*
X113063957Y-104392603D02*
X112870433Y-104392603D01*
X112870433Y-104392603D02*
X112793023Y-104353899D01*
X112793023Y-104353899D02*
X112754319Y-104276489D01*
X112754319Y-104276489D02*
X112754319Y-104199079D01*
X112754319Y-104199079D02*
X112793023Y-104121670D01*
X112793023Y-104121670D02*
X112870433Y-104082965D01*
X112870433Y-104082965D02*
X113063957Y-104082965D01*
X113063957Y-104082965D02*
X113141366Y-104044260D01*
X113528413Y-103850737D02*
X113528413Y-104392603D01*
X113528413Y-103928146D02*
X113567118Y-103889441D01*
X113567118Y-103889441D02*
X113644528Y-103850737D01*
X113644528Y-103850737D02*
X113760642Y-103850737D01*
X113760642Y-103850737D02*
X113838051Y-103889441D01*
X113838051Y-103889441D02*
X113876756Y-103966851D01*
X113876756Y-103966851D02*
X113876756Y-104392603D01*
X114379918Y-104392603D02*
X114302508Y-104353899D01*
X114302508Y-104353899D02*
X114263803Y-104315194D01*
X114263803Y-104315194D02*
X114225099Y-104237784D01*
X114225099Y-104237784D02*
X114225099Y-104005556D01*
X114225099Y-104005556D02*
X114263803Y-103928146D01*
X114263803Y-103928146D02*
X114302508Y-103889441D01*
X114302508Y-103889441D02*
X114379918Y-103850737D01*
X114379918Y-103850737D02*
X114496032Y-103850737D01*
X114496032Y-103850737D02*
X114573441Y-103889441D01*
X114573441Y-103889441D02*
X114612146Y-103928146D01*
X114612146Y-103928146D02*
X114650851Y-104005556D01*
X114650851Y-104005556D02*
X114650851Y-104237784D01*
X114650851Y-104237784D02*
X114612146Y-104315194D01*
X114612146Y-104315194D02*
X114573441Y-104353899D01*
X114573441Y-104353899D02*
X114496032Y-104392603D01*
X114496032Y-104392603D02*
X114379918Y-104392603D01*
D11*
X136074819Y-84976666D02*
X135598628Y-85309999D01*
X136074819Y-85548094D02*
X135074819Y-85548094D01*
X135074819Y-85548094D02*
X135074819Y-85167142D01*
X135074819Y-85167142D02*
X135122438Y-85071904D01*
X135122438Y-85071904D02*
X135170057Y-85024285D01*
X135170057Y-85024285D02*
X135265295Y-84976666D01*
X135265295Y-84976666D02*
X135408152Y-84976666D01*
X135408152Y-84976666D02*
X135503390Y-85024285D01*
X135503390Y-85024285D02*
X135551009Y-85071904D01*
X135551009Y-85071904D02*
X135598628Y-85167142D01*
X135598628Y-85167142D02*
X135598628Y-85548094D01*
X135074819Y-84643332D02*
X135074819Y-84024285D01*
X135074819Y-84024285D02*
X135455771Y-84357618D01*
X135455771Y-84357618D02*
X135455771Y-84214761D01*
X135455771Y-84214761D02*
X135503390Y-84119523D01*
X135503390Y-84119523D02*
X135551009Y-84071904D01*
X135551009Y-84071904D02*
X135646247Y-84024285D01*
X135646247Y-84024285D02*
X135884342Y-84024285D01*
X135884342Y-84024285D02*
X135979580Y-84071904D01*
X135979580Y-84071904D02*
X136027200Y-84119523D01*
X136027200Y-84119523D02*
X136074819Y-84214761D01*
X136074819Y-84214761D02*
X136074819Y-84500475D01*
X136074819Y-84500475D02*
X136027200Y-84595713D01*
X136027200Y-84595713D02*
X135979580Y-84643332D01*
X123359580Y-107416666D02*
X123407200Y-107464285D01*
X123407200Y-107464285D02*
X123454819Y-107607142D01*
X123454819Y-107607142D02*
X123454819Y-107702380D01*
X123454819Y-107702380D02*
X123407200Y-107845237D01*
X123407200Y-107845237D02*
X123311961Y-107940475D01*
X123311961Y-107940475D02*
X123216723Y-107988094D01*
X123216723Y-107988094D02*
X123026247Y-108035713D01*
X123026247Y-108035713D02*
X122883390Y-108035713D01*
X122883390Y-108035713D02*
X122692914Y-107988094D01*
X122692914Y-107988094D02*
X122597676Y-107940475D01*
X122597676Y-107940475D02*
X122502438Y-107845237D01*
X122502438Y-107845237D02*
X122454819Y-107702380D01*
X122454819Y-107702380D02*
X122454819Y-107607142D01*
X122454819Y-107607142D02*
X122502438Y-107464285D01*
X122502438Y-107464285D02*
X122550057Y-107416666D01*
X123454819Y-106464285D02*
X123454819Y-107035713D01*
X123454819Y-106749999D02*
X122454819Y-106749999D01*
X122454819Y-106749999D02*
X122597676Y-106845237D01*
X122597676Y-106845237D02*
X122692914Y-106940475D01*
X122692914Y-106940475D02*
X122740533Y-107035713D01*
X142845238Y-102681009D02*
X142988095Y-102728628D01*
X142988095Y-102728628D02*
X143035714Y-102776247D01*
X143035714Y-102776247D02*
X143083333Y-102871485D01*
X143083333Y-102871485D02*
X143083333Y-103014342D01*
X143083333Y-103014342D02*
X143035714Y-103109580D01*
X143035714Y-103109580D02*
X142988095Y-103157200D01*
X142988095Y-103157200D02*
X142892857Y-103204819D01*
X142892857Y-103204819D02*
X142511905Y-103204819D01*
X142511905Y-103204819D02*
X142511905Y-102204819D01*
X142511905Y-102204819D02*
X142845238Y-102204819D01*
X142845238Y-102204819D02*
X142940476Y-102252438D01*
X142940476Y-102252438D02*
X142988095Y-102300057D01*
X142988095Y-102300057D02*
X143035714Y-102395295D01*
X143035714Y-102395295D02*
X143035714Y-102490533D01*
X143035714Y-102490533D02*
X142988095Y-102585771D01*
X142988095Y-102585771D02*
X142940476Y-102633390D01*
X142940476Y-102633390D02*
X142845238Y-102681009D01*
X142845238Y-102681009D02*
X142511905Y-102681009D01*
X143416667Y-102204819D02*
X144035714Y-102204819D01*
X144035714Y-102204819D02*
X143702381Y-102585771D01*
X143702381Y-102585771D02*
X143845238Y-102585771D01*
X143845238Y-102585771D02*
X143940476Y-102633390D01*
X143940476Y-102633390D02*
X143988095Y-102681009D01*
X143988095Y-102681009D02*
X144035714Y-102776247D01*
X144035714Y-102776247D02*
X144035714Y-103014342D01*
X144035714Y-103014342D02*
X143988095Y-103109580D01*
X143988095Y-103109580D02*
X143940476Y-103157200D01*
X143940476Y-103157200D02*
X143845238Y-103204819D01*
X143845238Y-103204819D02*
X143559524Y-103204819D01*
X143559524Y-103204819D02*
X143464286Y-103157200D01*
X143464286Y-103157200D02*
X143416667Y-103109580D01*
X123609580Y-84416666D02*
X123657200Y-84464285D01*
X123657200Y-84464285D02*
X123704819Y-84607142D01*
X123704819Y-84607142D02*
X123704819Y-84702380D01*
X123704819Y-84702380D02*
X123657200Y-84845237D01*
X123657200Y-84845237D02*
X123561961Y-84940475D01*
X123561961Y-84940475D02*
X123466723Y-84988094D01*
X123466723Y-84988094D02*
X123276247Y-85035713D01*
X123276247Y-85035713D02*
X123133390Y-85035713D01*
X123133390Y-85035713D02*
X122942914Y-84988094D01*
X122942914Y-84988094D02*
X122847676Y-84940475D01*
X122847676Y-84940475D02*
X122752438Y-84845237D01*
X122752438Y-84845237D02*
X122704819Y-84702380D01*
X122704819Y-84702380D02*
X122704819Y-84607142D01*
X122704819Y-84607142D02*
X122752438Y-84464285D01*
X122752438Y-84464285D02*
X122800057Y-84416666D01*
X122704819Y-84083332D02*
X122704819Y-83464285D01*
X122704819Y-83464285D02*
X123085771Y-83797618D01*
X123085771Y-83797618D02*
X123085771Y-83654761D01*
X123085771Y-83654761D02*
X123133390Y-83559523D01*
X123133390Y-83559523D02*
X123181009Y-83511904D01*
X123181009Y-83511904D02*
X123276247Y-83464285D01*
X123276247Y-83464285D02*
X123514342Y-83464285D01*
X123514342Y-83464285D02*
X123609580Y-83511904D01*
X123609580Y-83511904D02*
X123657200Y-83559523D01*
X123657200Y-83559523D02*
X123704819Y-83654761D01*
X123704819Y-83654761D02*
X123704819Y-83940475D01*
X123704819Y-83940475D02*
X123657200Y-84035713D01*
X123657200Y-84035713D02*
X123609580Y-84083332D01*
X142595238Y-79681009D02*
X142738095Y-79728628D01*
X142738095Y-79728628D02*
X142785714Y-79776247D01*
X142785714Y-79776247D02*
X142833333Y-79871485D01*
X142833333Y-79871485D02*
X142833333Y-80014342D01*
X142833333Y-80014342D02*
X142785714Y-80109580D01*
X142785714Y-80109580D02*
X142738095Y-80157200D01*
X142738095Y-80157200D02*
X142642857Y-80204819D01*
X142642857Y-80204819D02*
X142261905Y-80204819D01*
X142261905Y-80204819D02*
X142261905Y-79204819D01*
X142261905Y-79204819D02*
X142595238Y-79204819D01*
X142595238Y-79204819D02*
X142690476Y-79252438D01*
X142690476Y-79252438D02*
X142738095Y-79300057D01*
X142738095Y-79300057D02*
X142785714Y-79395295D01*
X142785714Y-79395295D02*
X142785714Y-79490533D01*
X142785714Y-79490533D02*
X142738095Y-79585771D01*
X142738095Y-79585771D02*
X142690476Y-79633390D01*
X142690476Y-79633390D02*
X142595238Y-79681009D01*
X142595238Y-79681009D02*
X142261905Y-79681009D01*
X143785714Y-80204819D02*
X143214286Y-80204819D01*
X143500000Y-80204819D02*
X143500000Y-79204819D01*
X143500000Y-79204819D02*
X143404762Y-79347676D01*
X143404762Y-79347676D02*
X143309524Y-79442914D01*
X143309524Y-79442914D02*
X143214286Y-79490533D01*
X136324819Y-107976666D02*
X135848628Y-108309999D01*
X136324819Y-108548094D02*
X135324819Y-108548094D01*
X135324819Y-108548094D02*
X135324819Y-108167142D01*
X135324819Y-108167142D02*
X135372438Y-108071904D01*
X135372438Y-108071904D02*
X135420057Y-108024285D01*
X135420057Y-108024285D02*
X135515295Y-107976666D01*
X135515295Y-107976666D02*
X135658152Y-107976666D01*
X135658152Y-107976666D02*
X135753390Y-108024285D01*
X135753390Y-108024285D02*
X135801009Y-108071904D01*
X135801009Y-108071904D02*
X135848628Y-108167142D01*
X135848628Y-108167142D02*
X135848628Y-108548094D01*
X136324819Y-107024285D02*
X136324819Y-107595713D01*
X136324819Y-107309999D02*
X135324819Y-107309999D01*
X135324819Y-107309999D02*
X135467676Y-107405237D01*
X135467676Y-107405237D02*
X135562914Y-107500475D01*
X135562914Y-107500475D02*
X135610533Y-107595713D01*
D12*
X96238095Y-96457419D02*
X96238095Y-97266942D01*
X96238095Y-97266942D02*
X96285714Y-97362180D01*
X96285714Y-97362180D02*
X96333333Y-97409800D01*
X96333333Y-97409800D02*
X96428571Y-97457419D01*
X96428571Y-97457419D02*
X96619047Y-97457419D01*
X96619047Y-97457419D02*
X96714285Y-97409800D01*
X96714285Y-97409800D02*
X96761904Y-97362180D01*
X96761904Y-97362180D02*
X96809523Y-97266942D01*
X96809523Y-97266942D02*
X96809523Y-96457419D01*
X97238095Y-96552657D02*
X97285714Y-96505038D01*
X97285714Y-96505038D02*
X97380952Y-96457419D01*
X97380952Y-96457419D02*
X97619047Y-96457419D01*
X97619047Y-96457419D02*
X97714285Y-96505038D01*
X97714285Y-96505038D02*
X97761904Y-96552657D01*
X97761904Y-96552657D02*
X97809523Y-96647895D01*
X97809523Y-96647895D02*
X97809523Y-96743133D01*
X97809523Y-96743133D02*
X97761904Y-96885990D01*
X97761904Y-96885990D02*
X97190476Y-97457419D01*
X97190476Y-97457419D02*
X97809523Y-97457419D01*
X85715200Y-72176265D02*
X85667580Y-72319122D01*
X85667580Y-72319122D02*
X85667580Y-72557217D01*
X85667580Y-72557217D02*
X85715200Y-72652455D01*
X85715200Y-72652455D02*
X85762819Y-72700074D01*
X85762819Y-72700074D02*
X85858057Y-72747693D01*
X85858057Y-72747693D02*
X85953295Y-72747693D01*
X85953295Y-72747693D02*
X86048533Y-72700074D01*
X86048533Y-72700074D02*
X86096152Y-72652455D01*
X86096152Y-72652455D02*
X86143771Y-72557217D01*
X86143771Y-72557217D02*
X86191390Y-72366741D01*
X86191390Y-72366741D02*
X86239009Y-72271503D01*
X86239009Y-72271503D02*
X86286628Y-72223884D01*
X86286628Y-72223884D02*
X86381866Y-72176265D01*
X86381866Y-72176265D02*
X86477104Y-72176265D01*
X86477104Y-72176265D02*
X86572342Y-72223884D01*
X86572342Y-72223884D02*
X86619961Y-72271503D01*
X86619961Y-72271503D02*
X86667580Y-72366741D01*
X86667580Y-72366741D02*
X86667580Y-72604836D01*
X86667580Y-72604836D02*
X86619961Y-72747693D01*
X85762819Y-73747693D02*
X85715200Y-73700074D01*
X85715200Y-73700074D02*
X85667580Y-73557217D01*
X85667580Y-73557217D02*
X85667580Y-73461979D01*
X85667580Y-73461979D02*
X85715200Y-73319122D01*
X85715200Y-73319122D02*
X85810438Y-73223884D01*
X85810438Y-73223884D02*
X85905676Y-73176265D01*
X85905676Y-73176265D02*
X86096152Y-73128646D01*
X86096152Y-73128646D02*
X86239009Y-73128646D01*
X86239009Y-73128646D02*
X86429485Y-73176265D01*
X86429485Y-73176265D02*
X86524723Y-73223884D01*
X86524723Y-73223884D02*
X86619961Y-73319122D01*
X86619961Y-73319122D02*
X86667580Y-73461979D01*
X86667580Y-73461979D02*
X86667580Y-73557217D01*
X86667580Y-73557217D02*
X86619961Y-73700074D01*
X86619961Y-73700074D02*
X86572342Y-73747693D01*
X85667580Y-74652455D02*
X85667580Y-74176265D01*
X85667580Y-74176265D02*
X86667580Y-74176265D01*
X76459961Y-72747693D02*
X76507580Y-72652455D01*
X76507580Y-72652455D02*
X76507580Y-72509598D01*
X76507580Y-72509598D02*
X76459961Y-72366741D01*
X76459961Y-72366741D02*
X76364723Y-72271503D01*
X76364723Y-72271503D02*
X76269485Y-72223884D01*
X76269485Y-72223884D02*
X76079009Y-72176265D01*
X76079009Y-72176265D02*
X75936152Y-72176265D01*
X75936152Y-72176265D02*
X75745676Y-72223884D01*
X75745676Y-72223884D02*
X75650438Y-72271503D01*
X75650438Y-72271503D02*
X75555200Y-72366741D01*
X75555200Y-72366741D02*
X75507580Y-72509598D01*
X75507580Y-72509598D02*
X75507580Y-72604836D01*
X75507580Y-72604836D02*
X75555200Y-72747693D01*
X75555200Y-72747693D02*
X75602819Y-72795312D01*
X75602819Y-72795312D02*
X75936152Y-72795312D01*
X75936152Y-72795312D02*
X75936152Y-72604836D01*
X75507580Y-73223884D02*
X76507580Y-73223884D01*
X76507580Y-73223884D02*
X75507580Y-73795312D01*
X75507580Y-73795312D02*
X76507580Y-73795312D01*
X75507580Y-74271503D02*
X76507580Y-74271503D01*
X76507580Y-74271503D02*
X76507580Y-74509598D01*
X76507580Y-74509598D02*
X76459961Y-74652455D01*
X76459961Y-74652455D02*
X76364723Y-74747693D01*
X76364723Y-74747693D02*
X76269485Y-74795312D01*
X76269485Y-74795312D02*
X76079009Y-74842931D01*
X76079009Y-74842931D02*
X75936152Y-74842931D01*
X75936152Y-74842931D02*
X75745676Y-74795312D01*
X75745676Y-74795312D02*
X75650438Y-74747693D01*
X75650438Y-74747693D02*
X75555200Y-74652455D01*
X75555200Y-74652455D02*
X75507580Y-74509598D01*
X75507580Y-74509598D02*
X75507580Y-74271503D01*
X81587580Y-72081027D02*
X80587580Y-72414360D01*
X80587580Y-72414360D02*
X81587580Y-72747693D01*
X80682819Y-73652455D02*
X80635200Y-73604836D01*
X80635200Y-73604836D02*
X80587580Y-73461979D01*
X80587580Y-73461979D02*
X80587580Y-73366741D01*
X80587580Y-73366741D02*
X80635200Y-73223884D01*
X80635200Y-73223884D02*
X80730438Y-73128646D01*
X80730438Y-73128646D02*
X80825676Y-73081027D01*
X80825676Y-73081027D02*
X81016152Y-73033408D01*
X81016152Y-73033408D02*
X81159009Y-73033408D01*
X81159009Y-73033408D02*
X81349485Y-73081027D01*
X81349485Y-73081027D02*
X81444723Y-73128646D01*
X81444723Y-73128646D02*
X81539961Y-73223884D01*
X81539961Y-73223884D02*
X81587580Y-73366741D01*
X81587580Y-73366741D02*
X81587580Y-73461979D01*
X81587580Y-73461979D02*
X81539961Y-73604836D01*
X81539961Y-73604836D02*
X81492342Y-73652455D01*
X80682819Y-74652455D02*
X80635200Y-74604836D01*
X80635200Y-74604836D02*
X80587580Y-74461979D01*
X80587580Y-74461979D02*
X80587580Y-74366741D01*
X80587580Y-74366741D02*
X80635200Y-74223884D01*
X80635200Y-74223884D02*
X80730438Y-74128646D01*
X80730438Y-74128646D02*
X80825676Y-74081027D01*
X80825676Y-74081027D02*
X81016152Y-74033408D01*
X81016152Y-74033408D02*
X81159009Y-74033408D01*
X81159009Y-74033408D02*
X81349485Y-74081027D01*
X81349485Y-74081027D02*
X81444723Y-74128646D01*
X81444723Y-74128646D02*
X81539961Y-74223884D01*
X81539961Y-74223884D02*
X81587580Y-74366741D01*
X81587580Y-74366741D02*
X81587580Y-74461979D01*
X81587580Y-74461979D02*
X81539961Y-74604836D01*
X81539961Y-74604836D02*
X81492342Y-74652455D01*
X90795200Y-72176265D02*
X90747580Y-72319122D01*
X90747580Y-72319122D02*
X90747580Y-72557217D01*
X90747580Y-72557217D02*
X90795200Y-72652455D01*
X90795200Y-72652455D02*
X90842819Y-72700074D01*
X90842819Y-72700074D02*
X90938057Y-72747693D01*
X90938057Y-72747693D02*
X91033295Y-72747693D01*
X91033295Y-72747693D02*
X91128533Y-72700074D01*
X91128533Y-72700074D02*
X91176152Y-72652455D01*
X91176152Y-72652455D02*
X91223771Y-72557217D01*
X91223771Y-72557217D02*
X91271390Y-72366741D01*
X91271390Y-72366741D02*
X91319009Y-72271503D01*
X91319009Y-72271503D02*
X91366628Y-72223884D01*
X91366628Y-72223884D02*
X91461866Y-72176265D01*
X91461866Y-72176265D02*
X91557104Y-72176265D01*
X91557104Y-72176265D02*
X91652342Y-72223884D01*
X91652342Y-72223884D02*
X91699961Y-72271503D01*
X91699961Y-72271503D02*
X91747580Y-72366741D01*
X91747580Y-72366741D02*
X91747580Y-72604836D01*
X91747580Y-72604836D02*
X91699961Y-72747693D01*
X90747580Y-73176265D02*
X91747580Y-73176265D01*
X91747580Y-73176265D02*
X91747580Y-73414360D01*
X91747580Y-73414360D02*
X91699961Y-73557217D01*
X91699961Y-73557217D02*
X91604723Y-73652455D01*
X91604723Y-73652455D02*
X91509485Y-73700074D01*
X91509485Y-73700074D02*
X91319009Y-73747693D01*
X91319009Y-73747693D02*
X91176152Y-73747693D01*
X91176152Y-73747693D02*
X90985676Y-73700074D01*
X90985676Y-73700074D02*
X90890438Y-73652455D01*
X90890438Y-73652455D02*
X90795200Y-73557217D01*
X90795200Y-73557217D02*
X90747580Y-73414360D01*
X90747580Y-73414360D02*
X90747580Y-73176265D01*
X91033295Y-74128646D02*
X91033295Y-74604836D01*
X90747580Y-74033408D02*
X91747580Y-74366741D01*
X91747580Y-74366741D02*
X90747580Y-74700074D01*
X84238095Y-115457419D02*
X84238095Y-116266942D01*
X84238095Y-116266942D02*
X84285714Y-116362180D01*
X84285714Y-116362180D02*
X84333333Y-116409800D01*
X84333333Y-116409800D02*
X84428571Y-116457419D01*
X84428571Y-116457419D02*
X84619047Y-116457419D01*
X84619047Y-116457419D02*
X84714285Y-116409800D01*
X84714285Y-116409800D02*
X84761904Y-116362180D01*
X84761904Y-116362180D02*
X84809523Y-116266942D01*
X84809523Y-116266942D02*
X84809523Y-115457419D01*
X85809523Y-116457419D02*
X85238095Y-116457419D01*
X85523809Y-116457419D02*
X85523809Y-115457419D01*
X85523809Y-115457419D02*
X85428571Y-115600276D01*
X85428571Y-115600276D02*
X85333333Y-115695514D01*
X85333333Y-115695514D02*
X85238095Y-115743133D01*
D11*
X81130180Y-106193922D02*
X80130180Y-106527255D01*
X80130180Y-106527255D02*
X81130180Y-106860588D01*
X80225419Y-107765350D02*
X80177800Y-107717731D01*
X80177800Y-107717731D02*
X80130180Y-107574874D01*
X80130180Y-107574874D02*
X80130180Y-107479636D01*
X80130180Y-107479636D02*
X80177800Y-107336779D01*
X80177800Y-107336779D02*
X80273038Y-107241541D01*
X80273038Y-107241541D02*
X80368276Y-107193922D01*
X80368276Y-107193922D02*
X80558752Y-107146303D01*
X80558752Y-107146303D02*
X80701609Y-107146303D01*
X80701609Y-107146303D02*
X80892085Y-107193922D01*
X80892085Y-107193922D02*
X80987323Y-107241541D01*
X80987323Y-107241541D02*
X81082561Y-107336779D01*
X81082561Y-107336779D02*
X81130180Y-107479636D01*
X81130180Y-107479636D02*
X81130180Y-107574874D01*
X81130180Y-107574874D02*
X81082561Y-107717731D01*
X81082561Y-107717731D02*
X81034942Y-107765350D01*
X80225419Y-108765350D02*
X80177800Y-108717731D01*
X80177800Y-108717731D02*
X80130180Y-108574874D01*
X80130180Y-108574874D02*
X80130180Y-108479636D01*
X80130180Y-108479636D02*
X80177800Y-108336779D01*
X80177800Y-108336779D02*
X80273038Y-108241541D01*
X80273038Y-108241541D02*
X80368276Y-108193922D01*
X80368276Y-108193922D02*
X80558752Y-108146303D01*
X80558752Y-108146303D02*
X80701609Y-108146303D01*
X80701609Y-108146303D02*
X80892085Y-108193922D01*
X80892085Y-108193922D02*
X80987323Y-108241541D01*
X80987323Y-108241541D02*
X81082561Y-108336779D01*
X81082561Y-108336779D02*
X81130180Y-108479636D01*
X81130180Y-108479636D02*
X81130180Y-108574874D01*
X81130180Y-108574874D02*
X81082561Y-108717731D01*
X81082561Y-108717731D02*
X81034942Y-108765350D01*
X75177800Y-106289160D02*
X75130180Y-106432017D01*
X75130180Y-106432017D02*
X75130180Y-106670112D01*
X75130180Y-106670112D02*
X75177800Y-106765350D01*
X75177800Y-106765350D02*
X75225419Y-106812969D01*
X75225419Y-106812969D02*
X75320657Y-106860588D01*
X75320657Y-106860588D02*
X75415895Y-106860588D01*
X75415895Y-106860588D02*
X75511133Y-106812969D01*
X75511133Y-106812969D02*
X75558752Y-106765350D01*
X75558752Y-106765350D02*
X75606371Y-106670112D01*
X75606371Y-106670112D02*
X75653990Y-106479636D01*
X75653990Y-106479636D02*
X75701609Y-106384398D01*
X75701609Y-106384398D02*
X75749228Y-106336779D01*
X75749228Y-106336779D02*
X75844466Y-106289160D01*
X75844466Y-106289160D02*
X75939704Y-106289160D01*
X75939704Y-106289160D02*
X76034942Y-106336779D01*
X76034942Y-106336779D02*
X76082561Y-106384398D01*
X76082561Y-106384398D02*
X76130180Y-106479636D01*
X76130180Y-106479636D02*
X76130180Y-106717731D01*
X76130180Y-106717731D02*
X76082561Y-106860588D01*
X75225419Y-107860588D02*
X75177800Y-107812969D01*
X75177800Y-107812969D02*
X75130180Y-107670112D01*
X75130180Y-107670112D02*
X75130180Y-107574874D01*
X75130180Y-107574874D02*
X75177800Y-107432017D01*
X75177800Y-107432017D02*
X75273038Y-107336779D01*
X75273038Y-107336779D02*
X75368276Y-107289160D01*
X75368276Y-107289160D02*
X75558752Y-107241541D01*
X75558752Y-107241541D02*
X75701609Y-107241541D01*
X75701609Y-107241541D02*
X75892085Y-107289160D01*
X75892085Y-107289160D02*
X75987323Y-107336779D01*
X75987323Y-107336779D02*
X76082561Y-107432017D01*
X76082561Y-107432017D02*
X76130180Y-107574874D01*
X76130180Y-107574874D02*
X76130180Y-107670112D01*
X76130180Y-107670112D02*
X76082561Y-107812969D01*
X76082561Y-107812969D02*
X76034942Y-107860588D01*
X75130180Y-108765350D02*
X75130180Y-108289160D01*
X75130180Y-108289160D02*
X76130180Y-108289160D01*
X72677800Y-106289160D02*
X72630180Y-106432017D01*
X72630180Y-106432017D02*
X72630180Y-106670112D01*
X72630180Y-106670112D02*
X72677800Y-106765350D01*
X72677800Y-106765350D02*
X72725419Y-106812969D01*
X72725419Y-106812969D02*
X72820657Y-106860588D01*
X72820657Y-106860588D02*
X72915895Y-106860588D01*
X72915895Y-106860588D02*
X73011133Y-106812969D01*
X73011133Y-106812969D02*
X73058752Y-106765350D01*
X73058752Y-106765350D02*
X73106371Y-106670112D01*
X73106371Y-106670112D02*
X73153990Y-106479636D01*
X73153990Y-106479636D02*
X73201609Y-106384398D01*
X73201609Y-106384398D02*
X73249228Y-106336779D01*
X73249228Y-106336779D02*
X73344466Y-106289160D01*
X73344466Y-106289160D02*
X73439704Y-106289160D01*
X73439704Y-106289160D02*
X73534942Y-106336779D01*
X73534942Y-106336779D02*
X73582561Y-106384398D01*
X73582561Y-106384398D02*
X73630180Y-106479636D01*
X73630180Y-106479636D02*
X73630180Y-106717731D01*
X73630180Y-106717731D02*
X73582561Y-106860588D01*
X72630180Y-107289160D02*
X73630180Y-107289160D01*
X73630180Y-107289160D02*
X73630180Y-107527255D01*
X73630180Y-107527255D02*
X73582561Y-107670112D01*
X73582561Y-107670112D02*
X73487323Y-107765350D01*
X73487323Y-107765350D02*
X73392085Y-107812969D01*
X73392085Y-107812969D02*
X73201609Y-107860588D01*
X73201609Y-107860588D02*
X73058752Y-107860588D01*
X73058752Y-107860588D02*
X72868276Y-107812969D01*
X72868276Y-107812969D02*
X72773038Y-107765350D01*
X72773038Y-107765350D02*
X72677800Y-107670112D01*
X72677800Y-107670112D02*
X72630180Y-107527255D01*
X72630180Y-107527255D02*
X72630180Y-107289160D01*
X72915895Y-108241541D02*
X72915895Y-108717731D01*
X72630180Y-108146303D02*
X73630180Y-108479636D01*
X73630180Y-108479636D02*
X72630180Y-108812969D01*
X70130180Y-106336779D02*
X71130180Y-106336779D01*
X70130180Y-106812969D02*
X71130180Y-106812969D01*
X71130180Y-106812969D02*
X70130180Y-107384397D01*
X70130180Y-107384397D02*
X71130180Y-107384397D01*
X71130180Y-107717731D02*
X71130180Y-108289159D01*
X70130180Y-108003445D02*
X71130180Y-108003445D01*
X78582561Y-106860588D02*
X78630180Y-106765350D01*
X78630180Y-106765350D02*
X78630180Y-106622493D01*
X78630180Y-106622493D02*
X78582561Y-106479636D01*
X78582561Y-106479636D02*
X78487323Y-106384398D01*
X78487323Y-106384398D02*
X78392085Y-106336779D01*
X78392085Y-106336779D02*
X78201609Y-106289160D01*
X78201609Y-106289160D02*
X78058752Y-106289160D01*
X78058752Y-106289160D02*
X77868276Y-106336779D01*
X77868276Y-106336779D02*
X77773038Y-106384398D01*
X77773038Y-106384398D02*
X77677800Y-106479636D01*
X77677800Y-106479636D02*
X77630180Y-106622493D01*
X77630180Y-106622493D02*
X77630180Y-106717731D01*
X77630180Y-106717731D02*
X77677800Y-106860588D01*
X77677800Y-106860588D02*
X77725419Y-106908207D01*
X77725419Y-106908207D02*
X78058752Y-106908207D01*
X78058752Y-106908207D02*
X78058752Y-106717731D01*
X77630180Y-107336779D02*
X78630180Y-107336779D01*
X78630180Y-107336779D02*
X77630180Y-107908207D01*
X77630180Y-107908207D02*
X78630180Y-107908207D01*
X77630180Y-108384398D02*
X78630180Y-108384398D01*
X78630180Y-108384398D02*
X78630180Y-108622493D01*
X78630180Y-108622493D02*
X78582561Y-108765350D01*
X78582561Y-108765350D02*
X78487323Y-108860588D01*
X78487323Y-108860588D02*
X78392085Y-108908207D01*
X78392085Y-108908207D02*
X78201609Y-108955826D01*
X78201609Y-108955826D02*
X78058752Y-108955826D01*
X78058752Y-108955826D02*
X77868276Y-108908207D01*
X77868276Y-108908207D02*
X77773038Y-108860588D01*
X77773038Y-108860588D02*
X77677800Y-108765350D01*
X77677800Y-108765350D02*
X77630180Y-108622493D01*
X77630180Y-108622493D02*
X77630180Y-108384398D01*
X142595238Y-91681009D02*
X142738095Y-91728628D01*
X142738095Y-91728628D02*
X142785714Y-91776247D01*
X142785714Y-91776247D02*
X142833333Y-91871485D01*
X142833333Y-91871485D02*
X142833333Y-92014342D01*
X142833333Y-92014342D02*
X142785714Y-92109580D01*
X142785714Y-92109580D02*
X142738095Y-92157200D01*
X142738095Y-92157200D02*
X142642857Y-92204819D01*
X142642857Y-92204819D02*
X142261905Y-92204819D01*
X142261905Y-92204819D02*
X142261905Y-91204819D01*
X142261905Y-91204819D02*
X142595238Y-91204819D01*
X142595238Y-91204819D02*
X142690476Y-91252438D01*
X142690476Y-91252438D02*
X142738095Y-91300057D01*
X142738095Y-91300057D02*
X142785714Y-91395295D01*
X142785714Y-91395295D02*
X142785714Y-91490533D01*
X142785714Y-91490533D02*
X142738095Y-91585771D01*
X142738095Y-91585771D02*
X142690476Y-91633390D01*
X142690476Y-91633390D02*
X142595238Y-91681009D01*
X142595238Y-91681009D02*
X142261905Y-91681009D01*
X143214286Y-91300057D02*
X143261905Y-91252438D01*
X143261905Y-91252438D02*
X143357143Y-91204819D01*
X143357143Y-91204819D02*
X143595238Y-91204819D01*
X143595238Y-91204819D02*
X143690476Y-91252438D01*
X143690476Y-91252438D02*
X143738095Y-91300057D01*
X143738095Y-91300057D02*
X143785714Y-91395295D01*
X143785714Y-91395295D02*
X143785714Y-91490533D01*
X143785714Y-91490533D02*
X143738095Y-91633390D01*
X143738095Y-91633390D02*
X143166667Y-92204819D01*
X143166667Y-92204819D02*
X143785714Y-92204819D01*
X127333333Y-71584819D02*
X127000000Y-71108628D01*
X126761905Y-71584819D02*
X126761905Y-70584819D01*
X126761905Y-70584819D02*
X127142857Y-70584819D01*
X127142857Y-70584819D02*
X127238095Y-70632438D01*
X127238095Y-70632438D02*
X127285714Y-70680057D01*
X127285714Y-70680057D02*
X127333333Y-70775295D01*
X127333333Y-70775295D02*
X127333333Y-70918152D01*
X127333333Y-70918152D02*
X127285714Y-71013390D01*
X127285714Y-71013390D02*
X127238095Y-71061009D01*
X127238095Y-71061009D02*
X127142857Y-71108628D01*
X127142857Y-71108628D02*
X126761905Y-71108628D01*
X128190476Y-70918152D02*
X128190476Y-71584819D01*
X127952381Y-70537200D02*
X127714286Y-71251485D01*
X127714286Y-71251485D02*
X128333333Y-71251485D01*
X136324819Y-96166666D02*
X135848628Y-96499999D01*
X136324819Y-96738094D02*
X135324819Y-96738094D01*
X135324819Y-96738094D02*
X135324819Y-96357142D01*
X135324819Y-96357142D02*
X135372438Y-96261904D01*
X135372438Y-96261904D02*
X135420057Y-96214285D01*
X135420057Y-96214285D02*
X135515295Y-96166666D01*
X135515295Y-96166666D02*
X135658152Y-96166666D01*
X135658152Y-96166666D02*
X135753390Y-96214285D01*
X135753390Y-96214285D02*
X135801009Y-96261904D01*
X135801009Y-96261904D02*
X135848628Y-96357142D01*
X135848628Y-96357142D02*
X135848628Y-96738094D01*
X135420057Y-95785713D02*
X135372438Y-95738094D01*
X135372438Y-95738094D02*
X135324819Y-95642856D01*
X135324819Y-95642856D02*
X135324819Y-95404761D01*
X135324819Y-95404761D02*
X135372438Y-95309523D01*
X135372438Y-95309523D02*
X135420057Y-95261904D01*
X135420057Y-95261904D02*
X135515295Y-95214285D01*
X135515295Y-95214285D02*
X135610533Y-95214285D01*
X135610533Y-95214285D02*
X135753390Y-95261904D01*
X135753390Y-95261904D02*
X136324819Y-95833332D01*
X136324819Y-95833332D02*
X136324819Y-95214285D01*
X138256905Y-69994819D02*
X138256905Y-68994819D01*
X138256905Y-68994819D02*
X138495000Y-68994819D01*
X138495000Y-68994819D02*
X138637857Y-69042438D01*
X138637857Y-69042438D02*
X138733095Y-69137676D01*
X138733095Y-69137676D02*
X138780714Y-69232914D01*
X138780714Y-69232914D02*
X138828333Y-69423390D01*
X138828333Y-69423390D02*
X138828333Y-69566247D01*
X138828333Y-69566247D02*
X138780714Y-69756723D01*
X138780714Y-69756723D02*
X138733095Y-69851961D01*
X138733095Y-69851961D02*
X138637857Y-69947200D01*
X138637857Y-69947200D02*
X138495000Y-69994819D01*
X138495000Y-69994819D02*
X138256905Y-69994819D01*
X139780714Y-69994819D02*
X139209286Y-69994819D01*
X139495000Y-69994819D02*
X139495000Y-68994819D01*
X139495000Y-68994819D02*
X139399762Y-69137676D01*
X139399762Y-69137676D02*
X139304524Y-69232914D01*
X139304524Y-69232914D02*
X139209286Y-69280533D01*
X123859580Y-95666666D02*
X123907200Y-95714285D01*
X123907200Y-95714285D02*
X123954819Y-95857142D01*
X123954819Y-95857142D02*
X123954819Y-95952380D01*
X123954819Y-95952380D02*
X123907200Y-96095237D01*
X123907200Y-96095237D02*
X123811961Y-96190475D01*
X123811961Y-96190475D02*
X123716723Y-96238094D01*
X123716723Y-96238094D02*
X123526247Y-96285713D01*
X123526247Y-96285713D02*
X123383390Y-96285713D01*
X123383390Y-96285713D02*
X123192914Y-96238094D01*
X123192914Y-96238094D02*
X123097676Y-96190475D01*
X123097676Y-96190475D02*
X123002438Y-96095237D01*
X123002438Y-96095237D02*
X122954819Y-95952380D01*
X122954819Y-95952380D02*
X122954819Y-95857142D01*
X122954819Y-95857142D02*
X123002438Y-95714285D01*
X123002438Y-95714285D02*
X123050057Y-95666666D01*
X123050057Y-95285713D02*
X123002438Y-95238094D01*
X123002438Y-95238094D02*
X122954819Y-95142856D01*
X122954819Y-95142856D02*
X122954819Y-94904761D01*
X122954819Y-94904761D02*
X123002438Y-94809523D01*
X123002438Y-94809523D02*
X123050057Y-94761904D01*
X123050057Y-94761904D02*
X123145295Y-94714285D01*
X123145295Y-94714285D02*
X123240533Y-94714285D01*
X123240533Y-94714285D02*
X123383390Y-94761904D01*
X123383390Y-94761904D02*
X123954819Y-95333332D01*
X123954819Y-95333332D02*
X123954819Y-94714285D01*
X109405714Y-114249104D02*
X109881904Y-114249104D01*
X109310476Y-114534819D02*
X109643809Y-113534819D01*
X109643809Y-113534819D02*
X109977142Y-114534819D01*
X110834285Y-114534819D02*
X110262857Y-114534819D01*
X110548571Y-114534819D02*
X110548571Y-113534819D01*
X110548571Y-113534819D02*
X110453333Y-113677676D01*
X110453333Y-113677676D02*
X110358095Y-113772914D01*
X110358095Y-113772914D02*
X110262857Y-113820533D01*
X111381904Y-73985180D02*
X111381904Y-73175657D01*
X111381904Y-73175657D02*
X111334285Y-73080419D01*
X111334285Y-73080419D02*
X111286666Y-73032800D01*
X111286666Y-73032800D02*
X111191428Y-72985180D01*
X111191428Y-72985180D02*
X111000952Y-72985180D01*
X111000952Y-72985180D02*
X110905714Y-73032800D01*
X110905714Y-73032800D02*
X110858095Y-73080419D01*
X110858095Y-73080419D02*
X110810476Y-73175657D01*
X110810476Y-73175657D02*
X110810476Y-73985180D01*
X110381904Y-73032800D02*
X110239047Y-72985180D01*
X110239047Y-72985180D02*
X110000952Y-72985180D01*
X110000952Y-72985180D02*
X109905714Y-73032800D01*
X109905714Y-73032800D02*
X109858095Y-73080419D01*
X109858095Y-73080419D02*
X109810476Y-73175657D01*
X109810476Y-73175657D02*
X109810476Y-73270895D01*
X109810476Y-73270895D02*
X109858095Y-73366133D01*
X109858095Y-73366133D02*
X109905714Y-73413752D01*
X109905714Y-73413752D02*
X110000952Y-73461371D01*
X110000952Y-73461371D02*
X110191428Y-73508990D01*
X110191428Y-73508990D02*
X110286666Y-73556609D01*
X110286666Y-73556609D02*
X110334285Y-73604228D01*
X110334285Y-73604228D02*
X110381904Y-73699466D01*
X110381904Y-73699466D02*
X110381904Y-73794704D01*
X110381904Y-73794704D02*
X110334285Y-73889942D01*
X110334285Y-73889942D02*
X110286666Y-73937561D01*
X110286666Y-73937561D02*
X110191428Y-73985180D01*
X110191428Y-73985180D02*
X109953333Y-73985180D01*
X109953333Y-73985180D02*
X109810476Y-73937561D01*
X109048571Y-73508990D02*
X108905714Y-73461371D01*
X108905714Y-73461371D02*
X108858095Y-73413752D01*
X108858095Y-73413752D02*
X108810476Y-73318514D01*
X108810476Y-73318514D02*
X108810476Y-73175657D01*
X108810476Y-73175657D02*
X108858095Y-73080419D01*
X108858095Y-73080419D02*
X108905714Y-73032800D01*
X108905714Y-73032800D02*
X109000952Y-72985180D01*
X109000952Y-72985180D02*
X109381904Y-72985180D01*
X109381904Y-72985180D02*
X109381904Y-73985180D01*
X109381904Y-73985180D02*
X109048571Y-73985180D01*
X109048571Y-73985180D02*
X108953333Y-73937561D01*
X108953333Y-73937561D02*
X108905714Y-73889942D01*
X108905714Y-73889942D02*
X108858095Y-73794704D01*
X108858095Y-73794704D02*
X108858095Y-73699466D01*
X108858095Y-73699466D02*
X108905714Y-73604228D01*
X108905714Y-73604228D02*
X108953333Y-73556609D01*
X108953333Y-73556609D02*
X109048571Y-73508990D01*
X109048571Y-73508990D02*
X109381904Y-73508990D01*
D13*
X131880000Y-88080000D02*
X132210000Y-88080000D01*
X134620000Y-88080000D02*
X134290000Y-88080000D01*
X131880000Y-81540000D02*
X131880000Y-88080000D01*
X132210000Y-81540000D02*
X131880000Y-81540000D01*
X134290000Y-81540000D02*
X134620000Y-81540000D01*
X134620000Y-81540000D02*
X134620000Y-88080000D01*
X124130000Y-109720000D02*
X124130000Y-104780000D01*
X124460000Y-109720000D02*
X124130000Y-109720000D01*
X126870000Y-109720000D02*
X126540000Y-109720000D01*
X124130000Y-104780000D02*
X124460000Y-104780000D01*
X126540000Y-104780000D02*
X126870000Y-104780000D01*
X126870000Y-104780000D02*
X126870000Y-109720000D01*
X139750000Y-106250000D02*
X139750000Y-107750000D01*
X141000000Y-110250000D02*
X145500000Y-110250000D01*
X145500000Y-103750000D02*
X141000000Y-103750000D01*
X146750000Y-107750000D02*
X146750000Y-106250000D01*
X124380000Y-86720000D02*
X124380000Y-81780000D01*
X124710000Y-86720000D02*
X124380000Y-86720000D01*
X127120000Y-86720000D02*
X126790000Y-86720000D01*
X124380000Y-81780000D02*
X124710000Y-81780000D01*
X126790000Y-81780000D02*
X127120000Y-81780000D01*
X127120000Y-81780000D02*
X127120000Y-86720000D01*
X139500000Y-83250000D02*
X139500000Y-84750000D01*
X140750000Y-87250000D02*
X145250000Y-87250000D01*
X145250000Y-80750000D02*
X140750000Y-80750000D01*
X146500000Y-84750000D02*
X146500000Y-83250000D01*
X132130000Y-111080000D02*
X132460000Y-111080000D01*
X134870000Y-111080000D02*
X134540000Y-111080000D01*
X132130000Y-104540000D02*
X132130000Y-111080000D01*
X132460000Y-104540000D02*
X132130000Y-104540000D01*
X134540000Y-104540000D02*
X134870000Y-104540000D01*
X134870000Y-104540000D02*
X134870000Y-111080000D01*
D12*
X69000000Y-67000000D02*
X97000000Y-67000000D01*
X97000000Y-95000000D01*
X69000000Y-95000000D01*
X69000000Y-67000000D01*
X68500000Y-102000000D02*
X82500000Y-102000000D01*
X82500000Y-116000000D01*
X68500000Y-116000000D01*
X68500000Y-102000000D01*
X82500000Y-116000000D02*
X68500000Y-116000000D01*
X82500000Y-102000000D02*
X82500000Y-116000000D01*
X68500000Y-116000000D02*
X68500000Y-102000000D01*
X68500000Y-102000000D02*
X82500000Y-102000000D01*
D13*
X146500000Y-96750000D02*
X146500000Y-95250000D01*
X145250000Y-92750000D02*
X140750000Y-92750000D01*
X140750000Y-99250000D02*
X145250000Y-99250000D01*
X139500000Y-95250000D02*
X139500000Y-96750000D01*
X130770000Y-74870000D02*
X130770000Y-74540000D01*
X130770000Y-72130000D02*
X130770000Y-72460000D01*
X124230000Y-74870000D02*
X130770000Y-74870000D01*
X124230000Y-74540000D02*
X124230000Y-74870000D01*
X124230000Y-72460000D02*
X124230000Y-72130000D01*
X124230000Y-72130000D02*
X130770000Y-72130000D01*
X132130000Y-99270000D02*
X132460000Y-99270000D01*
X134870000Y-99270000D02*
X134540000Y-99270000D01*
X132130000Y-92730000D02*
X132130000Y-99270000D01*
X132460000Y-92730000D02*
X132130000Y-92730000D01*
X134540000Y-92730000D02*
X134870000Y-92730000D01*
X134870000Y-92730000D02*
X134870000Y-99270000D01*
X141495000Y-73500000D02*
G75*
G02*
X136495000Y-73500000I-2500000J0D01*
G01*
X136495000Y-73500000D02*
G75*
G02*
X141495000Y-73500000I2500000J0D01*
G01*
X141985000Y-73500000D02*
G75*
G02*
X136435000Y-75044830I-2990000J0D01*
G01*
X136435000Y-71955170D02*
G75*
G02*
X141985000Y-73500000I2560000J-1544830D01*
G01*
X136435000Y-71955000D02*
X136435000Y-75045000D01*
X127370000Y-93030000D02*
X127370000Y-97970000D01*
X127040000Y-93030000D02*
X127370000Y-93030000D01*
X124630000Y-93030000D02*
X124960000Y-93030000D01*
X127370000Y-97970000D02*
X127040000Y-97970000D01*
X124960000Y-97970000D02*
X124630000Y-97970000D01*
X124630000Y-97970000D02*
X124630000Y-93030000D01*
X119140000Y-112940000D02*
X119140000Y-110270000D01*
X119140000Y-107730000D02*
X119140000Y-69500000D01*
X119140000Y-69500000D02*
X114060000Y-69500000D01*
X116470000Y-110270000D02*
X119140000Y-110270000D01*
X116470000Y-107730000D02*
X119140000Y-107730000D01*
X116470000Y-107730000D02*
X116470000Y-110270000D01*
X116470000Y-107730000D02*
X116470000Y-72170000D01*
X116470000Y-72170000D02*
X119140000Y-72170000D01*
X114060000Y-77380000D02*
X106180000Y-77380000D01*
X114060000Y-66960000D02*
X114060000Y-77380000D01*
X106180000Y-77380000D02*
X106180000Y-66960000D01*
X106180000Y-66960000D02*
X114060000Y-66960000D01*
X103770000Y-110270000D02*
X103770000Y-72170000D01*
X103770000Y-110270000D02*
X101100000Y-110270000D01*
X103770000Y-72170000D02*
X101100000Y-72170000D01*
X101100000Y-112940000D02*
X119140000Y-112940000D01*
X101100000Y-69500000D02*
X106180000Y-69500000D01*
X101100000Y-69500000D02*
X101100000Y-112940000D01*
M02*
