G04 #@! TF.GenerationSoftware,KiCad,Pcbnew,9.0.3*
G04 #@! TF.CreationDate,2025-09-07T18:19:37+02:00*
G04 #@! TF.ProjectId,Design1,44657369-676e-4312-9e6b-696361645f70,rev?*
G04 #@! TF.SameCoordinates,Original*
G04 #@! TF.FileFunction,Soldermask,Top*
G04 #@! TF.FilePolarity,Negative*
%FSLAX46Y46*%
G04 Gerber Fmt 4.6, Leading zero omitted, Abs format (unit mm)*
G04 Created by KiCad (PCBNEW 9.0.3) date 2025-09-07 18:19:37*
%MOMM*%
%LPD*%
G01*
G04 APERTURE LIST*
G04 APERTURE END LIST*
G36*
X133732228Y-110854448D02*
G01*
X133877117Y-110914463D01*
X134007515Y-111001592D01*
X134118408Y-111112485D01*
X134205537Y-111242883D01*
X134265552Y-111387772D01*
X134296148Y-111541586D01*
X134296148Y-111698414D01*
X134265552Y-111852228D01*
X134205537Y-111997117D01*
X134118408Y-112127515D01*
X134007515Y-112238408D01*
X133877117Y-112325537D01*
X133732228Y-112385552D01*
X133578414Y-112416148D01*
X133421586Y-112416148D01*
X133267772Y-112385552D01*
X133122883Y-112325537D01*
X132992485Y-112238408D01*
X132881592Y-112127515D01*
X132794463Y-111997117D01*
X132734448Y-111852228D01*
X132703852Y-111698414D01*
X132703852Y-111541586D01*
X132734448Y-111387772D01*
X132794463Y-111242883D01*
X132881592Y-111112485D01*
X132992485Y-111001592D01*
X133122883Y-110914463D01*
X133267772Y-110854448D01*
X133421586Y-110823852D01*
X133578414Y-110823852D01*
X133732228Y-110854448D01*
G37*
G36*
X125732228Y-108984448D02*
G01*
X125877117Y-109044463D01*
X126007515Y-109131592D01*
X126118408Y-109242485D01*
X126205537Y-109372883D01*
X126265552Y-109517772D01*
X126296148Y-109671586D01*
X126296148Y-109828414D01*
X126265552Y-109982228D01*
X126205537Y-110127117D01*
X126118408Y-110257515D01*
X126007515Y-110368408D01*
X125877117Y-110455537D01*
X125732228Y-110515552D01*
X125578414Y-110546148D01*
X125421586Y-110546148D01*
X125267772Y-110515552D01*
X125122883Y-110455537D01*
X124992485Y-110368408D01*
X124881592Y-110257515D01*
X124794463Y-110127117D01*
X124734448Y-109982228D01*
X124703852Y-109828414D01*
X124703852Y-109671586D01*
X124734448Y-109517772D01*
X124794463Y-109372883D01*
X124881592Y-109242485D01*
X124992485Y-109131592D01*
X125122883Y-109044463D01*
X125267772Y-108984448D01*
X125421586Y-108953852D01*
X125578414Y-108953852D01*
X125732228Y-108984448D01*
G37*
G36*
X140290285Y-108293060D02*
G01*
X140471397Y-108368079D01*
X140634393Y-108476990D01*
X140773010Y-108615607D01*
X140881921Y-108778603D01*
X140956940Y-108959715D01*
X140995185Y-109151983D01*
X140995185Y-109348017D01*
X140956940Y-109540285D01*
X140881921Y-109721397D01*
X140773010Y-109884393D01*
X140634393Y-110023010D01*
X140471397Y-110131921D01*
X140290285Y-110206940D01*
X140098017Y-110245185D01*
X139901983Y-110245185D01*
X139709715Y-110206940D01*
X139528603Y-110131921D01*
X139365607Y-110023010D01*
X139226990Y-109884393D01*
X139118079Y-109721397D01*
X139043060Y-109540285D01*
X139004815Y-109348017D01*
X139004815Y-109151983D01*
X139043060Y-108959715D01*
X139118079Y-108778603D01*
X139226990Y-108615607D01*
X139365607Y-108476990D01*
X139528603Y-108368079D01*
X139709715Y-108293060D01*
X139901983Y-108254815D01*
X140098017Y-108254815D01*
X140290285Y-108293060D01*
G37*
G36*
X146790285Y-108293060D02*
G01*
X146971397Y-108368079D01*
X147134393Y-108476990D01*
X147273010Y-108615607D01*
X147381921Y-108778603D01*
X147456940Y-108959715D01*
X147495185Y-109151983D01*
X147495185Y-109348017D01*
X147456940Y-109540285D01*
X147381921Y-109721397D01*
X147273010Y-109884393D01*
X147134393Y-110023010D01*
X146971397Y-110131921D01*
X146790285Y-110206940D01*
X146598017Y-110245185D01*
X146401983Y-110245185D01*
X146209715Y-110206940D01*
X146028603Y-110131921D01*
X145865607Y-110023010D01*
X145726990Y-109884393D01*
X145618079Y-109721397D01*
X145543060Y-109540285D01*
X145504815Y-109348017D01*
X145504815Y-109151983D01*
X145543060Y-108959715D01*
X145618079Y-108778603D01*
X145726990Y-108615607D01*
X145865607Y-108476990D01*
X146028603Y-108368079D01*
X146209715Y-108293060D01*
X146401983Y-108254815D01*
X146598017Y-108254815D01*
X146790285Y-108293060D01*
G37*
G36*
X118540000Y-109800000D02*
G01*
X116940000Y-109800000D01*
X116940000Y-108200000D01*
X118540000Y-108200000D01*
X118540000Y-109800000D01*
G37*
G36*
X102732228Y-108234448D02*
G01*
X102877117Y-108294463D01*
X103007515Y-108381592D01*
X103118408Y-108492485D01*
X103205537Y-108622883D01*
X103265552Y-108767772D01*
X103296148Y-108921586D01*
X103296148Y-109078414D01*
X103265552Y-109232228D01*
X103205537Y-109377117D01*
X103118408Y-109507515D01*
X103007515Y-109618408D01*
X102877117Y-109705537D01*
X102732228Y-109765552D01*
X102578414Y-109796148D01*
X102421586Y-109796148D01*
X102267772Y-109765552D01*
X102122883Y-109705537D01*
X101992485Y-109618408D01*
X101881592Y-109507515D01*
X101794463Y-109377117D01*
X101734448Y-109232228D01*
X101703852Y-109078414D01*
X101703852Y-108921586D01*
X101734448Y-108767772D01*
X101794463Y-108622883D01*
X101881592Y-108492485D01*
X101992485Y-108381592D01*
X102122883Y-108294463D01*
X102267772Y-108234448D01*
X102421586Y-108203852D01*
X102578414Y-108203852D01*
X102732228Y-108234448D01*
G37*
G36*
X102732228Y-105694448D02*
G01*
X102877117Y-105754463D01*
X103007515Y-105841592D01*
X103118408Y-105952485D01*
X103205537Y-106082883D01*
X103265552Y-106227772D01*
X103296148Y-106381586D01*
X103296148Y-106538414D01*
X103265552Y-106692228D01*
X103205537Y-106837117D01*
X103118408Y-106967515D01*
X103007515Y-107078408D01*
X102877117Y-107165537D01*
X102732228Y-107225552D01*
X102578414Y-107256148D01*
X102421586Y-107256148D01*
X102267772Y-107225552D01*
X102122883Y-107165537D01*
X101992485Y-107078408D01*
X101881592Y-106967515D01*
X101794463Y-106837117D01*
X101734448Y-106692228D01*
X101703852Y-106538414D01*
X101703852Y-106381586D01*
X101734448Y-106227772D01*
X101794463Y-106082883D01*
X101881592Y-105952485D01*
X101992485Y-105841592D01*
X102122883Y-105754463D01*
X102267772Y-105694448D01*
X102421586Y-105663852D01*
X102578414Y-105663852D01*
X102732228Y-105694448D01*
G37*
G36*
X117972228Y-105694448D02*
G01*
X118117117Y-105754463D01*
X118247515Y-105841592D01*
X118358408Y-105952485D01*
X118445537Y-106082883D01*
X118505552Y-106227772D01*
X118536148Y-106381586D01*
X118536148Y-106538414D01*
X118505552Y-106692228D01*
X118445537Y-106837117D01*
X118358408Y-106967515D01*
X118247515Y-107078408D01*
X118117117Y-107165537D01*
X117972228Y-107225552D01*
X117818414Y-107256148D01*
X117661586Y-107256148D01*
X117507772Y-107225552D01*
X117362883Y-107165537D01*
X117232485Y-107078408D01*
X117121592Y-106967515D01*
X117034463Y-106837117D01*
X116974448Y-106692228D01*
X116943852Y-106538414D01*
X116943852Y-106381586D01*
X116974448Y-106227772D01*
X117034463Y-106082883D01*
X117121592Y-105952485D01*
X117232485Y-105841592D01*
X117362883Y-105754463D01*
X117507772Y-105694448D01*
X117661586Y-105663852D01*
X117818414Y-105663852D01*
X117972228Y-105694448D01*
G37*
G36*
X140290285Y-103793060D02*
G01*
X140471397Y-103868079D01*
X140634393Y-103976990D01*
X140773010Y-104115607D01*
X140881921Y-104278603D01*
X140956940Y-104459715D01*
X140995185Y-104651983D01*
X140995185Y-104848017D01*
X140956940Y-105040285D01*
X140881921Y-105221397D01*
X140773010Y-105384393D01*
X140634393Y-105523010D01*
X140471397Y-105631921D01*
X140290285Y-105706940D01*
X140098017Y-105745185D01*
X139901983Y-105745185D01*
X139709715Y-105706940D01*
X139528603Y-105631921D01*
X139365607Y-105523010D01*
X139226990Y-105384393D01*
X139118079Y-105221397D01*
X139043060Y-105040285D01*
X139004815Y-104848017D01*
X139004815Y-104651983D01*
X139043060Y-104459715D01*
X139118079Y-104278603D01*
X139226990Y-104115607D01*
X139365607Y-103976990D01*
X139528603Y-103868079D01*
X139709715Y-103793060D01*
X139901983Y-103754815D01*
X140098017Y-103754815D01*
X140290285Y-103793060D01*
G37*
G36*
X146790285Y-103793060D02*
G01*
X146971397Y-103868079D01*
X147134393Y-103976990D01*
X147273010Y-104115607D01*
X147381921Y-104278603D01*
X147456940Y-104459715D01*
X147495185Y-104651983D01*
X147495185Y-104848017D01*
X147456940Y-105040285D01*
X147381921Y-105221397D01*
X147273010Y-105384393D01*
X147134393Y-105523010D01*
X146971397Y-105631921D01*
X146790285Y-105706940D01*
X146598017Y-105745185D01*
X146401983Y-105745185D01*
X146209715Y-105706940D01*
X146028603Y-105631921D01*
X145865607Y-105523010D01*
X145726990Y-105384393D01*
X145618079Y-105221397D01*
X145543060Y-105040285D01*
X145504815Y-104848017D01*
X145504815Y-104651983D01*
X145543060Y-104459715D01*
X145618079Y-104278603D01*
X145726990Y-104115607D01*
X145865607Y-103976990D01*
X146028603Y-103868079D01*
X146209715Y-103793060D01*
X146401983Y-103754815D01*
X146598017Y-103754815D01*
X146790285Y-103793060D01*
G37*
G36*
X125732228Y-103984448D02*
G01*
X125877117Y-104044463D01*
X126007515Y-104131592D01*
X126118408Y-104242485D01*
X126205537Y-104372883D01*
X126265552Y-104517772D01*
X126296148Y-104671586D01*
X126296148Y-104828414D01*
X126265552Y-104982228D01*
X126205537Y-105127117D01*
X126118408Y-105257515D01*
X126007515Y-105368408D01*
X125877117Y-105455537D01*
X125732228Y-105515552D01*
X125578414Y-105546148D01*
X125421586Y-105546148D01*
X125267772Y-105515552D01*
X125122883Y-105455537D01*
X124992485Y-105368408D01*
X124881592Y-105257515D01*
X124794463Y-105127117D01*
X124734448Y-104982228D01*
X124703852Y-104828414D01*
X124703852Y-104671586D01*
X124734448Y-104517772D01*
X124794463Y-104372883D01*
X124881592Y-104242485D01*
X124992485Y-104131592D01*
X125122883Y-104044463D01*
X125267772Y-103984448D01*
X125421586Y-103953852D01*
X125578414Y-103953852D01*
X125732228Y-103984448D01*
G37*
G36*
X71420000Y-105190000D02*
G01*
X69420000Y-105190000D01*
X69420000Y-103190000D01*
X71420000Y-103190000D01*
X71420000Y-105190000D01*
G37*
G36*
X73250285Y-103233060D02*
G01*
X73431397Y-103308079D01*
X73594393Y-103416990D01*
X73733010Y-103555607D01*
X73841921Y-103718603D01*
X73916940Y-103899715D01*
X73955185Y-104091983D01*
X73955185Y-104288017D01*
X73916940Y-104480285D01*
X73841921Y-104661397D01*
X73733010Y-104824393D01*
X73594393Y-104963010D01*
X73431397Y-105071921D01*
X73250285Y-105146940D01*
X73058017Y-105185185D01*
X72861983Y-105185185D01*
X72669715Y-105146940D01*
X72488603Y-105071921D01*
X72325607Y-104963010D01*
X72186990Y-104824393D01*
X72078079Y-104661397D01*
X72003060Y-104480285D01*
X71964815Y-104288017D01*
X71964815Y-104091983D01*
X72003060Y-103899715D01*
X72078079Y-103718603D01*
X72186990Y-103555607D01*
X72325607Y-103416990D01*
X72488603Y-103308079D01*
X72669715Y-103233060D01*
X72861983Y-103194815D01*
X73058017Y-103194815D01*
X73250285Y-103233060D01*
G37*
G36*
X75790285Y-103233060D02*
G01*
X75971397Y-103308079D01*
X76134393Y-103416990D01*
X76273010Y-103555607D01*
X76381921Y-103718603D01*
X76456940Y-103899715D01*
X76495185Y-104091983D01*
X76495185Y-104288017D01*
X76456940Y-104480285D01*
X76381921Y-104661397D01*
X76273010Y-104824393D01*
X76134393Y-104963010D01*
X75971397Y-105071921D01*
X75790285Y-105146940D01*
X75598017Y-105185185D01*
X75401983Y-105185185D01*
X75209715Y-105146940D01*
X75028603Y-105071921D01*
X74865607Y-104963010D01*
X74726990Y-104824393D01*
X74618079Y-104661397D01*
X74543060Y-104480285D01*
X74504815Y-104288017D01*
X74504815Y-104091983D01*
X74543060Y-103899715D01*
X74618079Y-103718603D01*
X74726990Y-103555607D01*
X74865607Y-103416990D01*
X75028603Y-103308079D01*
X75209715Y-103233060D01*
X75401983Y-103194815D01*
X75598017Y-103194815D01*
X75790285Y-103233060D01*
G37*
G36*
X78330285Y-103233060D02*
G01*
X78511397Y-103308079D01*
X78674393Y-103416990D01*
X78813010Y-103555607D01*
X78921921Y-103718603D01*
X78996940Y-103899715D01*
X79035185Y-104091983D01*
X79035185Y-104288017D01*
X78996940Y-104480285D01*
X78921921Y-104661397D01*
X78813010Y-104824393D01*
X78674393Y-104963010D01*
X78511397Y-105071921D01*
X78330285Y-105146940D01*
X78138017Y-105185185D01*
X77941983Y-105185185D01*
X77749715Y-105146940D01*
X77568603Y-105071921D01*
X77405607Y-104963010D01*
X77266990Y-104824393D01*
X77158079Y-104661397D01*
X77083060Y-104480285D01*
X77044815Y-104288017D01*
X77044815Y-104091983D01*
X77083060Y-103899715D01*
X77158079Y-103718603D01*
X77266990Y-103555607D01*
X77405607Y-103416990D01*
X77568603Y-103308079D01*
X77749715Y-103233060D01*
X77941983Y-103194815D01*
X78138017Y-103194815D01*
X78330285Y-103233060D01*
G37*
G36*
X80870285Y-103233060D02*
G01*
X81051397Y-103308079D01*
X81214393Y-103416990D01*
X81353010Y-103555607D01*
X81461921Y-103718603D01*
X81536940Y-103899715D01*
X81575185Y-104091983D01*
X81575185Y-104288017D01*
X81536940Y-104480285D01*
X81461921Y-104661397D01*
X81353010Y-104824393D01*
X81214393Y-104963010D01*
X81051397Y-105071921D01*
X80870285Y-105146940D01*
X80678017Y-105185185D01*
X80481983Y-105185185D01*
X80289715Y-105146940D01*
X80108603Y-105071921D01*
X79945607Y-104963010D01*
X79806990Y-104824393D01*
X79698079Y-104661397D01*
X79623060Y-104480285D01*
X79584815Y-104288017D01*
X79584815Y-104091983D01*
X79623060Y-103899715D01*
X79698079Y-103718603D01*
X79806990Y-103555607D01*
X79945607Y-103416990D01*
X80108603Y-103308079D01*
X80289715Y-103233060D01*
X80481983Y-103194815D01*
X80678017Y-103194815D01*
X80870285Y-103233060D01*
G37*
G36*
X133732228Y-103234448D02*
G01*
X133877117Y-103294463D01*
X134007515Y-103381592D01*
X134118408Y-103492485D01*
X134205537Y-103622883D01*
X134265552Y-103767772D01*
X134296148Y-103921586D01*
X134296148Y-104078414D01*
X134265552Y-104232228D01*
X134205537Y-104377117D01*
X134118408Y-104507515D01*
X134007515Y-104618408D01*
X133877117Y-104705537D01*
X133732228Y-104765552D01*
X133578414Y-104796148D01*
X133421586Y-104796148D01*
X133267772Y-104765552D01*
X133122883Y-104705537D01*
X132992485Y-104618408D01*
X132881592Y-104507515D01*
X132794463Y-104377117D01*
X132734448Y-104232228D01*
X132703852Y-104078414D01*
X132703852Y-103921586D01*
X132734448Y-103767772D01*
X132794463Y-103622883D01*
X132881592Y-103492485D01*
X132992485Y-103381592D01*
X133122883Y-103294463D01*
X133267772Y-103234448D01*
X133421586Y-103203852D01*
X133578414Y-103203852D01*
X133732228Y-103234448D01*
G37*
G36*
X102732228Y-103154448D02*
G01*
X102877117Y-103214463D01*
X103007515Y-103301592D01*
X103118408Y-103412485D01*
X103205537Y-103542883D01*
X103265552Y-103687772D01*
X103296148Y-103841586D01*
X103296148Y-103998414D01*
X103265552Y-104152228D01*
X103205537Y-104297117D01*
X103118408Y-104427515D01*
X103007515Y-104538408D01*
X102877117Y-104625537D01*
X102732228Y-104685552D01*
X102578414Y-104716148D01*
X102421586Y-104716148D01*
X102267772Y-104685552D01*
X102122883Y-104625537D01*
X101992485Y-104538408D01*
X101881592Y-104427515D01*
X101794463Y-104297117D01*
X101734448Y-104152228D01*
X101703852Y-103998414D01*
X101703852Y-103841586D01*
X101734448Y-103687772D01*
X101794463Y-103542883D01*
X101881592Y-103412485D01*
X101992485Y-103301592D01*
X102122883Y-103214463D01*
X102267772Y-103154448D01*
X102421586Y-103123852D01*
X102578414Y-103123852D01*
X102732228Y-103154448D01*
G37*
G36*
X117972228Y-103154448D02*
G01*
X118117117Y-103214463D01*
X118247515Y-103301592D01*
X118358408Y-103412485D01*
X118445537Y-103542883D01*
X118505552Y-103687772D01*
X118536148Y-103841586D01*
X118536148Y-103998414D01*
X118505552Y-104152228D01*
X118445537Y-104297117D01*
X118358408Y-104427515D01*
X118247515Y-104538408D01*
X118117117Y-104625537D01*
X117972228Y-104685552D01*
X117818414Y-104716148D01*
X117661586Y-104716148D01*
X117507772Y-104685552D01*
X117362883Y-104625537D01*
X117232485Y-104538408D01*
X117121592Y-104427515D01*
X117034463Y-104297117D01*
X116974448Y-104152228D01*
X116943852Y-103998414D01*
X116943852Y-103841586D01*
X116974448Y-103687772D01*
X117034463Y-103542883D01*
X117121592Y-103412485D01*
X117232485Y-103301592D01*
X117362883Y-103214463D01*
X117507772Y-103154448D01*
X117661586Y-103123852D01*
X117818414Y-103123852D01*
X117972228Y-103154448D01*
G37*
G36*
X102732228Y-100614448D02*
G01*
X102877117Y-100674463D01*
X103007515Y-100761592D01*
X103118408Y-100872485D01*
X103205537Y-101002883D01*
X103265552Y-101147772D01*
X103296148Y-101301586D01*
X103296148Y-101458414D01*
X103265552Y-101612228D01*
X103205537Y-101757117D01*
X103118408Y-101887515D01*
X103007515Y-101998408D01*
X102877117Y-102085537D01*
X102732228Y-102145552D01*
X102578414Y-102176148D01*
X102421586Y-102176148D01*
X102267772Y-102145552D01*
X102122883Y-102085537D01*
X101992485Y-101998408D01*
X101881592Y-101887515D01*
X101794463Y-101757117D01*
X101734448Y-101612228D01*
X101703852Y-101458414D01*
X101703852Y-101301586D01*
X101734448Y-101147772D01*
X101794463Y-101002883D01*
X101881592Y-100872485D01*
X101992485Y-100761592D01*
X102122883Y-100674463D01*
X102267772Y-100614448D01*
X102421586Y-100583852D01*
X102578414Y-100583852D01*
X102732228Y-100614448D01*
G37*
G36*
X117972228Y-100614448D02*
G01*
X118117117Y-100674463D01*
X118247515Y-100761592D01*
X118358408Y-100872485D01*
X118445537Y-101002883D01*
X118505552Y-101147772D01*
X118536148Y-101301586D01*
X118536148Y-101458414D01*
X118505552Y-101612228D01*
X118445537Y-101757117D01*
X118358408Y-101887515D01*
X118247515Y-101998408D01*
X118117117Y-102085537D01*
X117972228Y-102145552D01*
X117818414Y-102176148D01*
X117661586Y-102176148D01*
X117507772Y-102145552D01*
X117362883Y-102085537D01*
X117232485Y-101998408D01*
X117121592Y-101887515D01*
X117034463Y-101757117D01*
X116974448Y-101612228D01*
X116943852Y-101458414D01*
X116943852Y-101301586D01*
X116974448Y-101147772D01*
X117034463Y-101002883D01*
X117121592Y-100872485D01*
X117232485Y-100761592D01*
X117362883Y-100674463D01*
X117507772Y-100614448D01*
X117661586Y-100583852D01*
X117818414Y-100583852D01*
X117972228Y-100614448D01*
G37*
G36*
X133732228Y-99044448D02*
G01*
X133877117Y-99104463D01*
X134007515Y-99191592D01*
X134118408Y-99302485D01*
X134205537Y-99432883D01*
X134265552Y-99577772D01*
X134296148Y-99731586D01*
X134296148Y-99888414D01*
X134265552Y-100042228D01*
X134205537Y-100187117D01*
X134118408Y-100317515D01*
X134007515Y-100428408D01*
X133877117Y-100515537D01*
X133732228Y-100575552D01*
X133578414Y-100606148D01*
X133421586Y-100606148D01*
X133267772Y-100575552D01*
X133122883Y-100515537D01*
X132992485Y-100428408D01*
X132881592Y-100317515D01*
X132794463Y-100187117D01*
X132734448Y-100042228D01*
X132703852Y-99888414D01*
X132703852Y-99731586D01*
X132734448Y-99577772D01*
X132794463Y-99432883D01*
X132881592Y-99302485D01*
X132992485Y-99191592D01*
X133122883Y-99104463D01*
X133267772Y-99044448D01*
X133421586Y-99013852D01*
X133578414Y-99013852D01*
X133732228Y-99044448D01*
G37*
G36*
X102732228Y-98074448D02*
G01*
X102877117Y-98134463D01*
X103007515Y-98221592D01*
X103118408Y-98332485D01*
X103205537Y-98462883D01*
X103265552Y-98607772D01*
X103296148Y-98761586D01*
X103296148Y-98918414D01*
X103265552Y-99072228D01*
X103205537Y-99217117D01*
X103118408Y-99347515D01*
X103007515Y-99458408D01*
X102877117Y-99545537D01*
X102732228Y-99605552D01*
X102578414Y-99636148D01*
X102421586Y-99636148D01*
X102267772Y-99605552D01*
X102122883Y-99545537D01*
X101992485Y-99458408D01*
X101881592Y-99347515D01*
X101794463Y-99217117D01*
X101734448Y-99072228D01*
X101703852Y-98918414D01*
X101703852Y-98761586D01*
X101734448Y-98607772D01*
X101794463Y-98462883D01*
X101881592Y-98332485D01*
X101992485Y-98221592D01*
X102122883Y-98134463D01*
X102267772Y-98074448D01*
X102421586Y-98043852D01*
X102578414Y-98043852D01*
X102732228Y-98074448D01*
G37*
G36*
X117972228Y-98074448D02*
G01*
X118117117Y-98134463D01*
X118247515Y-98221592D01*
X118358408Y-98332485D01*
X118445537Y-98462883D01*
X118505552Y-98607772D01*
X118536148Y-98761586D01*
X118536148Y-98918414D01*
X118505552Y-99072228D01*
X118445537Y-99217117D01*
X118358408Y-99347515D01*
X118247515Y-99458408D01*
X118117117Y-99545537D01*
X117972228Y-99605552D01*
X117818414Y-99636148D01*
X117661586Y-99636148D01*
X117507772Y-99605552D01*
X117362883Y-99545537D01*
X117232485Y-99458408D01*
X117121592Y-99347515D01*
X117034463Y-99217117D01*
X116974448Y-99072228D01*
X116943852Y-98918414D01*
X116943852Y-98761586D01*
X116974448Y-98607772D01*
X117034463Y-98462883D01*
X117121592Y-98332485D01*
X117232485Y-98221592D01*
X117362883Y-98134463D01*
X117507772Y-98074448D01*
X117661586Y-98043852D01*
X117818414Y-98043852D01*
X117972228Y-98074448D01*
G37*
G36*
X140040285Y-97293060D02*
G01*
X140221397Y-97368079D01*
X140384393Y-97476990D01*
X140523010Y-97615607D01*
X140631921Y-97778603D01*
X140706940Y-97959715D01*
X140745185Y-98151983D01*
X140745185Y-98348017D01*
X140706940Y-98540285D01*
X140631921Y-98721397D01*
X140523010Y-98884393D01*
X140384393Y-99023010D01*
X140221397Y-99131921D01*
X140040285Y-99206940D01*
X139848017Y-99245185D01*
X139651983Y-99245185D01*
X139459715Y-99206940D01*
X139278603Y-99131921D01*
X139115607Y-99023010D01*
X138976990Y-98884393D01*
X138868079Y-98721397D01*
X138793060Y-98540285D01*
X138754815Y-98348017D01*
X138754815Y-98151983D01*
X138793060Y-97959715D01*
X138868079Y-97778603D01*
X138976990Y-97615607D01*
X139115607Y-97476990D01*
X139278603Y-97368079D01*
X139459715Y-97293060D01*
X139651983Y-97254815D01*
X139848017Y-97254815D01*
X140040285Y-97293060D01*
G37*
G36*
X146540285Y-97293060D02*
G01*
X146721397Y-97368079D01*
X146884393Y-97476990D01*
X147023010Y-97615607D01*
X147131921Y-97778603D01*
X147206940Y-97959715D01*
X147245185Y-98151983D01*
X147245185Y-98348017D01*
X147206940Y-98540285D01*
X147131921Y-98721397D01*
X147023010Y-98884393D01*
X146884393Y-99023010D01*
X146721397Y-99131921D01*
X146540285Y-99206940D01*
X146348017Y-99245185D01*
X146151983Y-99245185D01*
X145959715Y-99206940D01*
X145778603Y-99131921D01*
X145615607Y-99023010D01*
X145476990Y-98884393D01*
X145368079Y-98721397D01*
X145293060Y-98540285D01*
X145254815Y-98348017D01*
X145254815Y-98151983D01*
X145293060Y-97959715D01*
X145368079Y-97778603D01*
X145476990Y-97615607D01*
X145615607Y-97476990D01*
X145778603Y-97368079D01*
X145959715Y-97293060D01*
X146151983Y-97254815D01*
X146348017Y-97254815D01*
X146540285Y-97293060D01*
G37*
G36*
X126232228Y-97234448D02*
G01*
X126377117Y-97294463D01*
X126507515Y-97381592D01*
X126618408Y-97492485D01*
X126705537Y-97622883D01*
X126765552Y-97767772D01*
X126796148Y-97921586D01*
X126796148Y-98078414D01*
X126765552Y-98232228D01*
X126705537Y-98377117D01*
X126618408Y-98507515D01*
X126507515Y-98618408D01*
X126377117Y-98705537D01*
X126232228Y-98765552D01*
X126078414Y-98796148D01*
X125921586Y-98796148D01*
X125767772Y-98765552D01*
X125622883Y-98705537D01*
X125492485Y-98618408D01*
X125381592Y-98507515D01*
X125294463Y-98377117D01*
X125234448Y-98232228D01*
X125203852Y-98078414D01*
X125203852Y-97921586D01*
X125234448Y-97767772D01*
X125294463Y-97622883D01*
X125381592Y-97492485D01*
X125492485Y-97381592D01*
X125622883Y-97294463D01*
X125767772Y-97234448D01*
X125921586Y-97203852D01*
X126078414Y-97203852D01*
X126232228Y-97234448D01*
G37*
G36*
X102732228Y-95534448D02*
G01*
X102877117Y-95594463D01*
X103007515Y-95681592D01*
X103118408Y-95792485D01*
X103205537Y-95922883D01*
X103265552Y-96067772D01*
X103296148Y-96221586D01*
X103296148Y-96378414D01*
X103265552Y-96532228D01*
X103205537Y-96677117D01*
X103118408Y-96807515D01*
X103007515Y-96918408D01*
X102877117Y-97005537D01*
X102732228Y-97065552D01*
X102578414Y-97096148D01*
X102421586Y-97096148D01*
X102267772Y-97065552D01*
X102122883Y-97005537D01*
X101992485Y-96918408D01*
X101881592Y-96807515D01*
X101794463Y-96677117D01*
X101734448Y-96532228D01*
X101703852Y-96378414D01*
X101703852Y-96221586D01*
X101734448Y-96067772D01*
X101794463Y-95922883D01*
X101881592Y-95792485D01*
X101992485Y-95681592D01*
X102122883Y-95594463D01*
X102267772Y-95534448D01*
X102421586Y-95503852D01*
X102578414Y-95503852D01*
X102732228Y-95534448D01*
G37*
G36*
X117972228Y-95534448D02*
G01*
X118117117Y-95594463D01*
X118247515Y-95681592D01*
X118358408Y-95792485D01*
X118445537Y-95922883D01*
X118505552Y-96067772D01*
X118536148Y-96221586D01*
X118536148Y-96378414D01*
X118505552Y-96532228D01*
X118445537Y-96677117D01*
X118358408Y-96807515D01*
X118247515Y-96918408D01*
X118117117Y-97005537D01*
X117972228Y-97065552D01*
X117818414Y-97096148D01*
X117661586Y-97096148D01*
X117507772Y-97065552D01*
X117362883Y-97005537D01*
X117232485Y-96918408D01*
X117121592Y-96807515D01*
X117034463Y-96677117D01*
X116974448Y-96532228D01*
X116943852Y-96378414D01*
X116943852Y-96221586D01*
X116974448Y-96067772D01*
X117034463Y-95922883D01*
X117121592Y-95792485D01*
X117232485Y-95681592D01*
X117362883Y-95594463D01*
X117507772Y-95534448D01*
X117661586Y-95503852D01*
X117818414Y-95503852D01*
X117972228Y-95534448D01*
G37*
G36*
X140040285Y-92793060D02*
G01*
X140221397Y-92868079D01*
X140384393Y-92976990D01*
X140523010Y-93115607D01*
X140631921Y-93278603D01*
X140706940Y-93459715D01*
X140745185Y-93651983D01*
X140745185Y-93848017D01*
X140706940Y-94040285D01*
X140631921Y-94221397D01*
X140523010Y-94384393D01*
X140384393Y-94523010D01*
X140221397Y-94631921D01*
X140040285Y-94706940D01*
X139848017Y-94745185D01*
X139651983Y-94745185D01*
X139459715Y-94706940D01*
X139278603Y-94631921D01*
X139115607Y-94523010D01*
X138976990Y-94384393D01*
X138868079Y-94221397D01*
X138793060Y-94040285D01*
X138754815Y-93848017D01*
X138754815Y-93651983D01*
X138793060Y-93459715D01*
X138868079Y-93278603D01*
X138976990Y-93115607D01*
X139115607Y-92976990D01*
X139278603Y-92868079D01*
X139459715Y-92793060D01*
X139651983Y-92754815D01*
X139848017Y-92754815D01*
X140040285Y-92793060D01*
G37*
G36*
X146540285Y-92793060D02*
G01*
X146721397Y-92868079D01*
X146884393Y-92976990D01*
X147023010Y-93115607D01*
X147131921Y-93278603D01*
X147206940Y-93459715D01*
X147245185Y-93651983D01*
X147245185Y-93848017D01*
X147206940Y-94040285D01*
X147131921Y-94221397D01*
X147023010Y-94384393D01*
X146884393Y-94523010D01*
X146721397Y-94631921D01*
X146540285Y-94706940D01*
X146348017Y-94745185D01*
X146151983Y-94745185D01*
X145959715Y-94706940D01*
X145778603Y-94631921D01*
X145615607Y-94523010D01*
X145476990Y-94384393D01*
X145368079Y-94221397D01*
X145293060Y-94040285D01*
X145254815Y-93848017D01*
X145254815Y-93651983D01*
X145293060Y-93459715D01*
X145368079Y-93278603D01*
X145476990Y-93115607D01*
X145615607Y-92976990D01*
X145778603Y-92868079D01*
X145959715Y-92793060D01*
X146151983Y-92754815D01*
X146348017Y-92754815D01*
X146540285Y-92793060D01*
G37*
G36*
X102732228Y-92994448D02*
G01*
X102877117Y-93054463D01*
X103007515Y-93141592D01*
X103118408Y-93252485D01*
X103205537Y-93382883D01*
X103265552Y-93527772D01*
X103296148Y-93681586D01*
X103296148Y-93838414D01*
X103265552Y-93992228D01*
X103205537Y-94137117D01*
X103118408Y-94267515D01*
X103007515Y-94378408D01*
X102877117Y-94465537D01*
X102732228Y-94525552D01*
X102578414Y-94556148D01*
X102421586Y-94556148D01*
X102267772Y-94525552D01*
X102122883Y-94465537D01*
X101992485Y-94378408D01*
X101881592Y-94267515D01*
X101794463Y-94137117D01*
X101734448Y-93992228D01*
X101703852Y-93838414D01*
X101703852Y-93681586D01*
X101734448Y-93527772D01*
X101794463Y-93382883D01*
X101881592Y-93252485D01*
X101992485Y-93141592D01*
X102122883Y-93054463D01*
X102267772Y-92994448D01*
X102421586Y-92963852D01*
X102578414Y-92963852D01*
X102732228Y-92994448D01*
G37*
G36*
X117972228Y-92994448D02*
G01*
X118117117Y-93054463D01*
X118247515Y-93141592D01*
X118358408Y-93252485D01*
X118445537Y-93382883D01*
X118505552Y-93527772D01*
X118536148Y-93681586D01*
X118536148Y-93838414D01*
X118505552Y-93992228D01*
X118445537Y-94137117D01*
X118358408Y-94267515D01*
X118247515Y-94378408D01*
X118117117Y-94465537D01*
X117972228Y-94525552D01*
X117818414Y-94556148D01*
X117661586Y-94556148D01*
X117507772Y-94525552D01*
X117362883Y-94465537D01*
X117232485Y-94378408D01*
X117121592Y-94267515D01*
X117034463Y-94137117D01*
X116974448Y-93992228D01*
X116943852Y-93838414D01*
X116943852Y-93681586D01*
X116974448Y-93527772D01*
X117034463Y-93382883D01*
X117121592Y-93252485D01*
X117232485Y-93141592D01*
X117362883Y-93054463D01*
X117507772Y-92994448D01*
X117661586Y-92963852D01*
X117818414Y-92963852D01*
X117972228Y-92994448D01*
G37*
G36*
X126232228Y-92234448D02*
G01*
X126377117Y-92294463D01*
X126507515Y-92381592D01*
X126618408Y-92492485D01*
X126705537Y-92622883D01*
X126765552Y-92767772D01*
X126796148Y-92921586D01*
X126796148Y-93078414D01*
X126765552Y-93232228D01*
X126705537Y-93377117D01*
X126618408Y-93507515D01*
X126507515Y-93618408D01*
X126377117Y-93705537D01*
X126232228Y-93765552D01*
X126078414Y-93796148D01*
X125921586Y-93796148D01*
X125767772Y-93765552D01*
X125622883Y-93705537D01*
X125492485Y-93618408D01*
X125381592Y-93507515D01*
X125294463Y-93377117D01*
X125234448Y-93232228D01*
X125203852Y-93078414D01*
X125203852Y-92921586D01*
X125234448Y-92767772D01*
X125294463Y-92622883D01*
X125381592Y-92492485D01*
X125492485Y-92381592D01*
X125622883Y-92294463D01*
X125767772Y-92234448D01*
X125921586Y-92203852D01*
X126078414Y-92203852D01*
X126232228Y-92234448D01*
G37*
G36*
X133732228Y-91424448D02*
G01*
X133877117Y-91484463D01*
X134007515Y-91571592D01*
X134118408Y-91682485D01*
X134205537Y-91812883D01*
X134265552Y-91957772D01*
X134296148Y-92111586D01*
X134296148Y-92268414D01*
X134265552Y-92422228D01*
X134205537Y-92567117D01*
X134118408Y-92697515D01*
X134007515Y-92808408D01*
X133877117Y-92895537D01*
X133732228Y-92955552D01*
X133578414Y-92986148D01*
X133421586Y-92986148D01*
X133267772Y-92955552D01*
X133122883Y-92895537D01*
X132992485Y-92808408D01*
X132881592Y-92697515D01*
X132794463Y-92567117D01*
X132734448Y-92422228D01*
X132703852Y-92268414D01*
X132703852Y-92111586D01*
X132734448Y-91957772D01*
X132794463Y-91812883D01*
X132881592Y-91682485D01*
X132992485Y-91571592D01*
X133122883Y-91484463D01*
X133267772Y-91424448D01*
X133421586Y-91393852D01*
X133578414Y-91393852D01*
X133732228Y-91424448D01*
G37*
G36*
X102732228Y-90454448D02*
G01*
X102877117Y-90514463D01*
X103007515Y-90601592D01*
X103118408Y-90712485D01*
X103205537Y-90842883D01*
X103265552Y-90987772D01*
X103296148Y-91141586D01*
X103296148Y-91298414D01*
X103265552Y-91452228D01*
X103205537Y-91597117D01*
X103118408Y-91727515D01*
X103007515Y-91838408D01*
X102877117Y-91925537D01*
X102732228Y-91985552D01*
X102578414Y-92016148D01*
X102421586Y-92016148D01*
X102267772Y-91985552D01*
X102122883Y-91925537D01*
X101992485Y-91838408D01*
X101881592Y-91727515D01*
X101794463Y-91597117D01*
X101734448Y-91452228D01*
X101703852Y-91298414D01*
X101703852Y-91141586D01*
X101734448Y-90987772D01*
X101794463Y-90842883D01*
X101881592Y-90712485D01*
X101992485Y-90601592D01*
X102122883Y-90514463D01*
X102267772Y-90454448D01*
X102421586Y-90423852D01*
X102578414Y-90423852D01*
X102732228Y-90454448D01*
G37*
G36*
X117972228Y-90454448D02*
G01*
X118117117Y-90514463D01*
X118247515Y-90601592D01*
X118358408Y-90712485D01*
X118445537Y-90842883D01*
X118505552Y-90987772D01*
X118536148Y-91141586D01*
X118536148Y-91298414D01*
X118505552Y-91452228D01*
X118445537Y-91597117D01*
X118358408Y-91727515D01*
X118247515Y-91838408D01*
X118117117Y-91925537D01*
X117972228Y-91985552D01*
X117818414Y-92016148D01*
X117661586Y-92016148D01*
X117507772Y-91985552D01*
X117362883Y-91925537D01*
X117232485Y-91838408D01*
X117121592Y-91727515D01*
X117034463Y-91597117D01*
X116974448Y-91452228D01*
X116943852Y-91298414D01*
X116943852Y-91141586D01*
X116974448Y-90987772D01*
X117034463Y-90842883D01*
X117121592Y-90712485D01*
X117232485Y-90601592D01*
X117362883Y-90514463D01*
X117507772Y-90454448D01*
X117661586Y-90423852D01*
X117818414Y-90423852D01*
X117972228Y-90454448D01*
G37*
G36*
X102732228Y-87914448D02*
G01*
X102877117Y-87974463D01*
X103007515Y-88061592D01*
X103118408Y-88172485D01*
X103205537Y-88302883D01*
X103265552Y-88447772D01*
X103296148Y-88601586D01*
X103296148Y-88758414D01*
X103265552Y-88912228D01*
X103205537Y-89057117D01*
X103118408Y-89187515D01*
X103007515Y-89298408D01*
X102877117Y-89385537D01*
X102732228Y-89445552D01*
X102578414Y-89476148D01*
X102421586Y-89476148D01*
X102267772Y-89445552D01*
X102122883Y-89385537D01*
X101992485Y-89298408D01*
X101881592Y-89187515D01*
X101794463Y-89057117D01*
X101734448Y-88912228D01*
X101703852Y-88758414D01*
X101703852Y-88601586D01*
X101734448Y-88447772D01*
X101794463Y-88302883D01*
X101881592Y-88172485D01*
X101992485Y-88061592D01*
X102122883Y-87974463D01*
X102267772Y-87914448D01*
X102421586Y-87883852D01*
X102578414Y-87883852D01*
X102732228Y-87914448D01*
G37*
G36*
X117972228Y-87914448D02*
G01*
X118117117Y-87974463D01*
X118247515Y-88061592D01*
X118358408Y-88172485D01*
X118445537Y-88302883D01*
X118505552Y-88447772D01*
X118536148Y-88601586D01*
X118536148Y-88758414D01*
X118505552Y-88912228D01*
X118445537Y-89057117D01*
X118358408Y-89187515D01*
X118247515Y-89298408D01*
X118117117Y-89385537D01*
X117972228Y-89445552D01*
X117818414Y-89476148D01*
X117661586Y-89476148D01*
X117507772Y-89445552D01*
X117362883Y-89385537D01*
X117232485Y-89298408D01*
X117121592Y-89187515D01*
X117034463Y-89057117D01*
X116974448Y-88912228D01*
X116943852Y-88758414D01*
X116943852Y-88601586D01*
X116974448Y-88447772D01*
X117034463Y-88302883D01*
X117121592Y-88172485D01*
X117232485Y-88061592D01*
X117362883Y-87974463D01*
X117507772Y-87914448D01*
X117661586Y-87883852D01*
X117818414Y-87883852D01*
X117972228Y-87914448D01*
G37*
G36*
X133482228Y-87854448D02*
G01*
X133627117Y-87914463D01*
X133757515Y-88001592D01*
X133868408Y-88112485D01*
X133955537Y-88242883D01*
X134015552Y-88387772D01*
X134046148Y-88541586D01*
X134046148Y-88698414D01*
X134015552Y-88852228D01*
X133955537Y-88997117D01*
X133868408Y-89127515D01*
X133757515Y-89238408D01*
X133627117Y-89325537D01*
X133482228Y-89385552D01*
X133328414Y-89416148D01*
X133171586Y-89416148D01*
X133017772Y-89385552D01*
X132872883Y-89325537D01*
X132742485Y-89238408D01*
X132631592Y-89127515D01*
X132544463Y-88997117D01*
X132484448Y-88852228D01*
X132453852Y-88698414D01*
X132453852Y-88541586D01*
X132484448Y-88387772D01*
X132544463Y-88242883D01*
X132631592Y-88112485D01*
X132742485Y-88001592D01*
X132872883Y-87914463D01*
X133017772Y-87854448D01*
X133171586Y-87823852D01*
X133328414Y-87823852D01*
X133482228Y-87854448D01*
G37*
G36*
X125982228Y-85984448D02*
G01*
X126127117Y-86044463D01*
X126257515Y-86131592D01*
X126368408Y-86242485D01*
X126455537Y-86372883D01*
X126515552Y-86517772D01*
X126546148Y-86671586D01*
X126546148Y-86828414D01*
X126515552Y-86982228D01*
X126455537Y-87127117D01*
X126368408Y-87257515D01*
X126257515Y-87368408D01*
X126127117Y-87455537D01*
X125982228Y-87515552D01*
X125828414Y-87546148D01*
X125671586Y-87546148D01*
X125517772Y-87515552D01*
X125372883Y-87455537D01*
X125242485Y-87368408D01*
X125131592Y-87257515D01*
X125044463Y-87127117D01*
X124984448Y-86982228D01*
X124953852Y-86828414D01*
X124953852Y-86671586D01*
X124984448Y-86517772D01*
X125044463Y-86372883D01*
X125131592Y-86242485D01*
X125242485Y-86131592D01*
X125372883Y-86044463D01*
X125517772Y-85984448D01*
X125671586Y-85953852D01*
X125828414Y-85953852D01*
X125982228Y-85984448D01*
G37*
G36*
X140040285Y-85293060D02*
G01*
X140221397Y-85368079D01*
X140384393Y-85476990D01*
X140523010Y-85615607D01*
X140631921Y-85778603D01*
X140706940Y-85959715D01*
X140745185Y-86151983D01*
X140745185Y-86348017D01*
X140706940Y-86540285D01*
X140631921Y-86721397D01*
X140523010Y-86884393D01*
X140384393Y-87023010D01*
X140221397Y-87131921D01*
X140040285Y-87206940D01*
X139848017Y-87245185D01*
X139651983Y-87245185D01*
X139459715Y-87206940D01*
X139278603Y-87131921D01*
X139115607Y-87023010D01*
X138976990Y-86884393D01*
X138868079Y-86721397D01*
X138793060Y-86540285D01*
X138754815Y-86348017D01*
X138754815Y-86151983D01*
X138793060Y-85959715D01*
X138868079Y-85778603D01*
X138976990Y-85615607D01*
X139115607Y-85476990D01*
X139278603Y-85368079D01*
X139459715Y-85293060D01*
X139651983Y-85254815D01*
X139848017Y-85254815D01*
X140040285Y-85293060D01*
G37*
G36*
X146540285Y-85293060D02*
G01*
X146721397Y-85368079D01*
X146884393Y-85476990D01*
X147023010Y-85615607D01*
X147131921Y-85778603D01*
X147206940Y-85959715D01*
X147245185Y-86151983D01*
X147245185Y-86348017D01*
X147206940Y-86540285D01*
X147131921Y-86721397D01*
X147023010Y-86884393D01*
X146884393Y-87023010D01*
X146721397Y-87131921D01*
X146540285Y-87206940D01*
X146348017Y-87245185D01*
X146151983Y-87245185D01*
X145959715Y-87206940D01*
X145778603Y-87131921D01*
X145615607Y-87023010D01*
X145476990Y-86884393D01*
X145368079Y-86721397D01*
X145293060Y-86540285D01*
X145254815Y-86348017D01*
X145254815Y-86151983D01*
X145293060Y-85959715D01*
X145368079Y-85778603D01*
X145476990Y-85615607D01*
X145615607Y-85476990D01*
X145778603Y-85368079D01*
X145959715Y-85293060D01*
X146151983Y-85254815D01*
X146348017Y-85254815D01*
X146540285Y-85293060D01*
G37*
G36*
X102732228Y-85374448D02*
G01*
X102877117Y-85434463D01*
X103007515Y-85521592D01*
X103118408Y-85632485D01*
X103205537Y-85762883D01*
X103265552Y-85907772D01*
X103296148Y-86061586D01*
X103296148Y-86218414D01*
X103265552Y-86372228D01*
X103205537Y-86517117D01*
X103118408Y-86647515D01*
X103007515Y-86758408D01*
X102877117Y-86845537D01*
X102732228Y-86905552D01*
X102578414Y-86936148D01*
X102421586Y-86936148D01*
X102267772Y-86905552D01*
X102122883Y-86845537D01*
X101992485Y-86758408D01*
X101881592Y-86647515D01*
X101794463Y-86517117D01*
X101734448Y-86372228D01*
X101703852Y-86218414D01*
X101703852Y-86061586D01*
X101734448Y-85907772D01*
X101794463Y-85762883D01*
X101881592Y-85632485D01*
X101992485Y-85521592D01*
X102122883Y-85434463D01*
X102267772Y-85374448D01*
X102421586Y-85343852D01*
X102578414Y-85343852D01*
X102732228Y-85374448D01*
G37*
G36*
X117972228Y-85374448D02*
G01*
X118117117Y-85434463D01*
X118247515Y-85521592D01*
X118358408Y-85632485D01*
X118445537Y-85762883D01*
X118505552Y-85907772D01*
X118536148Y-86061586D01*
X118536148Y-86218414D01*
X118505552Y-86372228D01*
X118445537Y-86517117D01*
X118358408Y-86647515D01*
X118247515Y-86758408D01*
X118117117Y-86845537D01*
X117972228Y-86905552D01*
X117818414Y-86936148D01*
X117661586Y-86936148D01*
X117507772Y-86905552D01*
X117362883Y-86845537D01*
X117232485Y-86758408D01*
X117121592Y-86647515D01*
X117034463Y-86517117D01*
X116974448Y-86372228D01*
X116943852Y-86218414D01*
X116943852Y-86061586D01*
X116974448Y-85907772D01*
X117034463Y-85762883D01*
X117121592Y-85632485D01*
X117232485Y-85521592D01*
X117362883Y-85434463D01*
X117507772Y-85374448D01*
X117661586Y-85343852D01*
X117818414Y-85343852D01*
X117972228Y-85374448D01*
G37*
G36*
X102732228Y-82834448D02*
G01*
X102877117Y-82894463D01*
X103007515Y-82981592D01*
X103118408Y-83092485D01*
X103205537Y-83222883D01*
X103265552Y-83367772D01*
X103296148Y-83521586D01*
X103296148Y-83678414D01*
X103265552Y-83832228D01*
X103205537Y-83977117D01*
X103118408Y-84107515D01*
X103007515Y-84218408D01*
X102877117Y-84305537D01*
X102732228Y-84365552D01*
X102578414Y-84396148D01*
X102421586Y-84396148D01*
X102267772Y-84365552D01*
X102122883Y-84305537D01*
X101992485Y-84218408D01*
X101881592Y-84107515D01*
X101794463Y-83977117D01*
X101734448Y-83832228D01*
X101703852Y-83678414D01*
X101703852Y-83521586D01*
X101734448Y-83367772D01*
X101794463Y-83222883D01*
X101881592Y-83092485D01*
X101992485Y-82981592D01*
X102122883Y-82894463D01*
X102267772Y-82834448D01*
X102421586Y-82803852D01*
X102578414Y-82803852D01*
X102732228Y-82834448D01*
G37*
G36*
X117972228Y-82834448D02*
G01*
X118117117Y-82894463D01*
X118247515Y-82981592D01*
X118358408Y-83092485D01*
X118445537Y-83222883D01*
X118505552Y-83367772D01*
X118536148Y-83521586D01*
X118536148Y-83678414D01*
X118505552Y-83832228D01*
X118445537Y-83977117D01*
X118358408Y-84107515D01*
X118247515Y-84218408D01*
X118117117Y-84305537D01*
X117972228Y-84365552D01*
X117818414Y-84396148D01*
X117661586Y-84396148D01*
X117507772Y-84365552D01*
X117362883Y-84305537D01*
X117232485Y-84218408D01*
X117121592Y-84107515D01*
X117034463Y-83977117D01*
X116974448Y-83832228D01*
X116943852Y-83678414D01*
X116943852Y-83521586D01*
X116974448Y-83367772D01*
X117034463Y-83222883D01*
X117121592Y-83092485D01*
X117232485Y-82981592D01*
X117362883Y-82894463D01*
X117507772Y-82834448D01*
X117661586Y-82803852D01*
X117818414Y-82803852D01*
X117972228Y-82834448D01*
G37*
G36*
X140040285Y-80793060D02*
G01*
X140221397Y-80868079D01*
X140384393Y-80976990D01*
X140523010Y-81115607D01*
X140631921Y-81278603D01*
X140706940Y-81459715D01*
X140745185Y-81651983D01*
X140745185Y-81848017D01*
X140706940Y-82040285D01*
X140631921Y-82221397D01*
X140523010Y-82384393D01*
X140384393Y-82523010D01*
X140221397Y-82631921D01*
X140040285Y-82706940D01*
X139848017Y-82745185D01*
X139651983Y-82745185D01*
X139459715Y-82706940D01*
X139278603Y-82631921D01*
X139115607Y-82523010D01*
X138976990Y-82384393D01*
X138868079Y-82221397D01*
X138793060Y-82040285D01*
X138754815Y-81848017D01*
X138754815Y-81651983D01*
X138793060Y-81459715D01*
X138868079Y-81278603D01*
X138976990Y-81115607D01*
X139115607Y-80976990D01*
X139278603Y-80868079D01*
X139459715Y-80793060D01*
X139651983Y-80754815D01*
X139848017Y-80754815D01*
X140040285Y-80793060D01*
G37*
G36*
X146540285Y-80793060D02*
G01*
X146721397Y-80868079D01*
X146884393Y-80976990D01*
X147023010Y-81115607D01*
X147131921Y-81278603D01*
X147206940Y-81459715D01*
X147245185Y-81651983D01*
X147245185Y-81848017D01*
X147206940Y-82040285D01*
X147131921Y-82221397D01*
X147023010Y-82384393D01*
X146884393Y-82523010D01*
X146721397Y-82631921D01*
X146540285Y-82706940D01*
X146348017Y-82745185D01*
X146151983Y-82745185D01*
X145959715Y-82706940D01*
X145778603Y-82631921D01*
X145615607Y-82523010D01*
X145476990Y-82384393D01*
X145368079Y-82221397D01*
X145293060Y-82040285D01*
X145254815Y-81848017D01*
X145254815Y-81651983D01*
X145293060Y-81459715D01*
X145368079Y-81278603D01*
X145476990Y-81115607D01*
X145615607Y-80976990D01*
X145778603Y-80868079D01*
X145959715Y-80793060D01*
X146151983Y-80754815D01*
X146348017Y-80754815D01*
X146540285Y-80793060D01*
G37*
G36*
X125982228Y-80984448D02*
G01*
X126127117Y-81044463D01*
X126257515Y-81131592D01*
X126368408Y-81242485D01*
X126455537Y-81372883D01*
X126515552Y-81517772D01*
X126546148Y-81671586D01*
X126546148Y-81828414D01*
X126515552Y-81982228D01*
X126455537Y-82127117D01*
X126368408Y-82257515D01*
X126257515Y-82368408D01*
X126127117Y-82455537D01*
X125982228Y-82515552D01*
X125828414Y-82546148D01*
X125671586Y-82546148D01*
X125517772Y-82515552D01*
X125372883Y-82455537D01*
X125242485Y-82368408D01*
X125131592Y-82257515D01*
X125044463Y-82127117D01*
X124984448Y-81982228D01*
X124953852Y-81828414D01*
X124953852Y-81671586D01*
X124984448Y-81517772D01*
X125044463Y-81372883D01*
X125131592Y-81242485D01*
X125242485Y-81131592D01*
X125372883Y-81044463D01*
X125517772Y-80984448D01*
X125671586Y-80953852D01*
X125828414Y-80953852D01*
X125982228Y-80984448D01*
G37*
G36*
X102732228Y-80294448D02*
G01*
X102877117Y-80354463D01*
X103007515Y-80441592D01*
X103118408Y-80552485D01*
X103205537Y-80682883D01*
X103265552Y-80827772D01*
X103296148Y-80981586D01*
X103296148Y-81138414D01*
X103265552Y-81292228D01*
X103205537Y-81437117D01*
X103118408Y-81567515D01*
X103007515Y-81678408D01*
X102877117Y-81765537D01*
X102732228Y-81825552D01*
X102578414Y-81856148D01*
X102421586Y-81856148D01*
X102267772Y-81825552D01*
X102122883Y-81765537D01*
X101992485Y-81678408D01*
X101881592Y-81567515D01*
X101794463Y-81437117D01*
X101734448Y-81292228D01*
X101703852Y-81138414D01*
X101703852Y-80981586D01*
X101734448Y-80827772D01*
X101794463Y-80682883D01*
X101881592Y-80552485D01*
X101992485Y-80441592D01*
X102122883Y-80354463D01*
X102267772Y-80294448D01*
X102421586Y-80263852D01*
X102578414Y-80263852D01*
X102732228Y-80294448D01*
G37*
G36*
X117972228Y-80294448D02*
G01*
X118117117Y-80354463D01*
X118247515Y-80441592D01*
X118358408Y-80552485D01*
X118445537Y-80682883D01*
X118505552Y-80827772D01*
X118536148Y-80981586D01*
X118536148Y-81138414D01*
X118505552Y-81292228D01*
X118445537Y-81437117D01*
X118358408Y-81567515D01*
X118247515Y-81678408D01*
X118117117Y-81765537D01*
X117972228Y-81825552D01*
X117818414Y-81856148D01*
X117661586Y-81856148D01*
X117507772Y-81825552D01*
X117362883Y-81765537D01*
X117232485Y-81678408D01*
X117121592Y-81567515D01*
X117034463Y-81437117D01*
X116974448Y-81292228D01*
X116943852Y-81138414D01*
X116943852Y-80981586D01*
X116974448Y-80827772D01*
X117034463Y-80682883D01*
X117121592Y-80552485D01*
X117232485Y-80441592D01*
X117362883Y-80354463D01*
X117507772Y-80294448D01*
X117661586Y-80263852D01*
X117818414Y-80263852D01*
X117972228Y-80294448D01*
G37*
G36*
X133482228Y-80234448D02*
G01*
X133627117Y-80294463D01*
X133757515Y-80381592D01*
X133868408Y-80492485D01*
X133955537Y-80622883D01*
X134015552Y-80767772D01*
X134046148Y-80921586D01*
X134046148Y-81078414D01*
X134015552Y-81232228D01*
X133955537Y-81377117D01*
X133868408Y-81507515D01*
X133757515Y-81618408D01*
X133627117Y-81705537D01*
X133482228Y-81765552D01*
X133328414Y-81796148D01*
X133171586Y-81796148D01*
X133017772Y-81765552D01*
X132872883Y-81705537D01*
X132742485Y-81618408D01*
X132631592Y-81507515D01*
X132544463Y-81377117D01*
X132484448Y-81232228D01*
X132453852Y-81078414D01*
X132453852Y-80921586D01*
X132484448Y-80767772D01*
X132544463Y-80622883D01*
X132631592Y-80492485D01*
X132742485Y-80381592D01*
X132872883Y-80294463D01*
X133017772Y-80234448D01*
X133171586Y-80203852D01*
X133328414Y-80203852D01*
X133482228Y-80234448D01*
G37*
G36*
X102732228Y-77754448D02*
G01*
X102877117Y-77814463D01*
X103007515Y-77901592D01*
X103118408Y-78012485D01*
X103205537Y-78142883D01*
X103265552Y-78287772D01*
X103296148Y-78441586D01*
X103296148Y-78598414D01*
X103265552Y-78752228D01*
X103205537Y-78897117D01*
X103118408Y-79027515D01*
X103007515Y-79138408D01*
X102877117Y-79225537D01*
X102732228Y-79285552D01*
X102578414Y-79316148D01*
X102421586Y-79316148D01*
X102267772Y-79285552D01*
X102122883Y-79225537D01*
X101992485Y-79138408D01*
X101881592Y-79027515D01*
X101794463Y-78897117D01*
X101734448Y-78752228D01*
X101703852Y-78598414D01*
X101703852Y-78441586D01*
X101734448Y-78287772D01*
X101794463Y-78142883D01*
X101881592Y-78012485D01*
X101992485Y-77901592D01*
X102122883Y-77814463D01*
X102267772Y-77754448D01*
X102421586Y-77723852D01*
X102578414Y-77723852D01*
X102732228Y-77754448D01*
G37*
G36*
X117972228Y-77754448D02*
G01*
X118117117Y-77814463D01*
X118247515Y-77901592D01*
X118358408Y-78012485D01*
X118445537Y-78142883D01*
X118505552Y-78287772D01*
X118536148Y-78441586D01*
X118536148Y-78598414D01*
X118505552Y-78752228D01*
X118445537Y-78897117D01*
X118358408Y-79027515D01*
X118247515Y-79138408D01*
X118117117Y-79225537D01*
X117972228Y-79285552D01*
X117818414Y-79316148D01*
X117661586Y-79316148D01*
X117507772Y-79285552D01*
X117362883Y-79225537D01*
X117232485Y-79138408D01*
X117121592Y-79027515D01*
X117034463Y-78897117D01*
X116974448Y-78752228D01*
X116943852Y-78598414D01*
X116943852Y-78441586D01*
X116974448Y-78287772D01*
X117034463Y-78142883D01*
X117121592Y-78012485D01*
X117232485Y-77901592D01*
X117362883Y-77814463D01*
X117507772Y-77754448D01*
X117661586Y-77723852D01*
X117818414Y-77723852D01*
X117972228Y-77754448D01*
G37*
G36*
X102732228Y-75214448D02*
G01*
X102877117Y-75274463D01*
X103007515Y-75361592D01*
X103118408Y-75472485D01*
X103205537Y-75602883D01*
X103265552Y-75747772D01*
X103296148Y-75901586D01*
X103296148Y-76058414D01*
X103265552Y-76212228D01*
X103205537Y-76357117D01*
X103118408Y-76487515D01*
X103007515Y-76598408D01*
X102877117Y-76685537D01*
X102732228Y-76745552D01*
X102578414Y-76776148D01*
X102421586Y-76776148D01*
X102267772Y-76745552D01*
X102122883Y-76685537D01*
X101992485Y-76598408D01*
X101881592Y-76487515D01*
X101794463Y-76357117D01*
X101734448Y-76212228D01*
X101703852Y-76058414D01*
X101703852Y-75901586D01*
X101734448Y-75747772D01*
X101794463Y-75602883D01*
X101881592Y-75472485D01*
X101992485Y-75361592D01*
X102122883Y-75274463D01*
X102267772Y-75214448D01*
X102421586Y-75183852D01*
X102578414Y-75183852D01*
X102732228Y-75214448D01*
G37*
G36*
X117972228Y-75214448D02*
G01*
X118117117Y-75274463D01*
X118247515Y-75361592D01*
X118358408Y-75472485D01*
X118445537Y-75602883D01*
X118505552Y-75747772D01*
X118536148Y-75901586D01*
X118536148Y-76058414D01*
X118505552Y-76212228D01*
X118445537Y-76357117D01*
X118358408Y-76487515D01*
X118247515Y-76598408D01*
X118117117Y-76685537D01*
X117972228Y-76745552D01*
X117818414Y-76776148D01*
X117661586Y-76776148D01*
X117507772Y-76745552D01*
X117362883Y-76685537D01*
X117232485Y-76598408D01*
X117121592Y-76487515D01*
X117034463Y-76357117D01*
X116974448Y-76212228D01*
X116943852Y-76058414D01*
X116943852Y-75901586D01*
X116974448Y-75747772D01*
X117034463Y-75602883D01*
X117121592Y-75472485D01*
X117232485Y-75361592D01*
X117362883Y-75274463D01*
X117507772Y-75214448D01*
X117661586Y-75183852D01*
X117818414Y-75183852D01*
X117972228Y-75214448D01*
G37*
G36*
X138625000Y-74400000D02*
G01*
X136825000Y-74400000D01*
X136825000Y-72600000D01*
X138625000Y-72600000D01*
X138625000Y-74400000D01*
G37*
G36*
X140526256Y-72638754D02*
G01*
X140689257Y-72706271D01*
X140835954Y-72804291D01*
X140960709Y-72929046D01*
X141058729Y-73075743D01*
X141126246Y-73238744D01*
X141160666Y-73411785D01*
X141160666Y-73588215D01*
X141126246Y-73761256D01*
X141058729Y-73924257D01*
X140960709Y-74070954D01*
X140835954Y-74195709D01*
X140689257Y-74293729D01*
X140526256Y-74361246D01*
X140353215Y-74395666D01*
X140176785Y-74395666D01*
X140003744Y-74361246D01*
X139840743Y-74293729D01*
X139694046Y-74195709D01*
X139569291Y-74070954D01*
X139471271Y-73924257D01*
X139403754Y-73761256D01*
X139369334Y-73588215D01*
X139369334Y-73411785D01*
X139403754Y-73238744D01*
X139471271Y-73075743D01*
X139569291Y-72929046D01*
X139694046Y-72804291D01*
X139840743Y-72706271D01*
X140003744Y-72638754D01*
X140176785Y-72604334D01*
X140353215Y-72604334D01*
X140526256Y-72638754D01*
G37*
G36*
X123922228Y-72734448D02*
G01*
X124067117Y-72794463D01*
X124197515Y-72881592D01*
X124308408Y-72992485D01*
X124395537Y-73122883D01*
X124455552Y-73267772D01*
X124486148Y-73421586D01*
X124486148Y-73578414D01*
X124455552Y-73732228D01*
X124395537Y-73877117D01*
X124308408Y-74007515D01*
X124197515Y-74118408D01*
X124067117Y-74205537D01*
X123922228Y-74265552D01*
X123768414Y-74296148D01*
X123611586Y-74296148D01*
X123457772Y-74265552D01*
X123312883Y-74205537D01*
X123182485Y-74118408D01*
X123071592Y-74007515D01*
X122984463Y-73877117D01*
X122924448Y-73732228D01*
X122893852Y-73578414D01*
X122893852Y-73421586D01*
X122924448Y-73267772D01*
X122984463Y-73122883D01*
X123071592Y-72992485D01*
X123182485Y-72881592D01*
X123312883Y-72794463D01*
X123457772Y-72734448D01*
X123611586Y-72703852D01*
X123768414Y-72703852D01*
X123922228Y-72734448D01*
G37*
G36*
X131542228Y-72734448D02*
G01*
X131687117Y-72794463D01*
X131817515Y-72881592D01*
X131928408Y-72992485D01*
X132015537Y-73122883D01*
X132075552Y-73267772D01*
X132106148Y-73421586D01*
X132106148Y-73578414D01*
X132075552Y-73732228D01*
X132015537Y-73877117D01*
X131928408Y-74007515D01*
X131817515Y-74118408D01*
X131687117Y-74205537D01*
X131542228Y-74265552D01*
X131388414Y-74296148D01*
X131231586Y-74296148D01*
X131077772Y-74265552D01*
X130932883Y-74205537D01*
X130802485Y-74118408D01*
X130691592Y-74007515D01*
X130604463Y-73877117D01*
X130544448Y-73732228D01*
X130513852Y-73578414D01*
X130513852Y-73421586D01*
X130544448Y-73267772D01*
X130604463Y-73122883D01*
X130691592Y-72992485D01*
X130802485Y-72881592D01*
X130932883Y-72794463D01*
X131077772Y-72734448D01*
X131231586Y-72703852D01*
X131388414Y-72703852D01*
X131542228Y-72734448D01*
G37*
G36*
X102732228Y-72674448D02*
G01*
X102877117Y-72734463D01*
X103007515Y-72821592D01*
X103118408Y-72932485D01*
X103205537Y-73062883D01*
X103265552Y-73207772D01*
X103296148Y-73361586D01*
X103296148Y-73518414D01*
X103265552Y-73672228D01*
X103205537Y-73817117D01*
X103118408Y-73947515D01*
X103007515Y-74058408D01*
X102877117Y-74145537D01*
X102732228Y-74205552D01*
X102578414Y-74236148D01*
X102421586Y-74236148D01*
X102267772Y-74205552D01*
X102122883Y-74145537D01*
X101992485Y-74058408D01*
X101881592Y-73947515D01*
X101794463Y-73817117D01*
X101734448Y-73672228D01*
X101703852Y-73518414D01*
X101703852Y-73361586D01*
X101734448Y-73207772D01*
X101794463Y-73062883D01*
X101881592Y-72932485D01*
X101992485Y-72821592D01*
X102122883Y-72734463D01*
X102267772Y-72674448D01*
X102421586Y-72643852D01*
X102578414Y-72643852D01*
X102732228Y-72674448D01*
G37*
G36*
X117972228Y-72674448D02*
G01*
X118117117Y-72734463D01*
X118247515Y-72821592D01*
X118358408Y-72932485D01*
X118445537Y-73062883D01*
X118505552Y-73207772D01*
X118536148Y-73361586D01*
X118536148Y-73518414D01*
X118505552Y-73672228D01*
X118445537Y-73817117D01*
X118358408Y-73947515D01*
X118247515Y-74058408D01*
X118117117Y-74145537D01*
X117972228Y-74205552D01*
X117818414Y-74236148D01*
X117661586Y-74236148D01*
X117507772Y-74205552D01*
X117362883Y-74145537D01*
X117232485Y-74058408D01*
X117121592Y-73947515D01*
X117034463Y-73817117D01*
X116974448Y-73672228D01*
X116943852Y-73518414D01*
X116943852Y-73361586D01*
X116974448Y-73207772D01*
X117034463Y-73062883D01*
X117121592Y-72932485D01*
X117232485Y-72821592D01*
X117362883Y-72734463D01*
X117507772Y-72674448D01*
X117661586Y-72643852D01*
X117818414Y-72643852D01*
X117972228Y-72674448D01*
G37*
G36*
X75676476Y-68145090D02*
G01*
X75866008Y-68206673D01*
X76043573Y-68297147D01*
X76204799Y-68414284D01*
X76345716Y-68555201D01*
X76462853Y-68716427D01*
X76553327Y-68893992D01*
X76614910Y-69083524D01*
X76646085Y-69280357D01*
X76646085Y-69479643D01*
X76614910Y-69676476D01*
X76553327Y-69866008D01*
X76462853Y-70043573D01*
X76345716Y-70204799D01*
X76204799Y-70345716D01*
X76043573Y-70462853D01*
X75866008Y-70553327D01*
X75676476Y-70614910D01*
X75479643Y-70646085D01*
X75280357Y-70646085D01*
X75083524Y-70614910D01*
X74893992Y-70553327D01*
X74716427Y-70462853D01*
X74555201Y-70345716D01*
X74414284Y-70204799D01*
X74297147Y-70043573D01*
X74206673Y-69866008D01*
X74145090Y-69676476D01*
X74113915Y-69479643D01*
X74113915Y-69280357D01*
X74145090Y-69083524D01*
X74206673Y-68893992D01*
X74297147Y-68716427D01*
X74414284Y-68555201D01*
X74555201Y-68414284D01*
X74716427Y-68297147D01*
X74893992Y-68206673D01*
X75083524Y-68145090D01*
X75280357Y-68113915D01*
X75479643Y-68113915D01*
X75676476Y-68145090D01*
G37*
G36*
X80756476Y-68145090D02*
G01*
X80946008Y-68206673D01*
X81123573Y-68297147D01*
X81284799Y-68414284D01*
X81425716Y-68555201D01*
X81542853Y-68716427D01*
X81633327Y-68893992D01*
X81694910Y-69083524D01*
X81726085Y-69280357D01*
X81726085Y-69479643D01*
X81694910Y-69676476D01*
X81633327Y-69866008D01*
X81542853Y-70043573D01*
X81425716Y-70204799D01*
X81284799Y-70345716D01*
X81123573Y-70462853D01*
X80946008Y-70553327D01*
X80756476Y-70614910D01*
X80559643Y-70646085D01*
X80360357Y-70646085D01*
X80163524Y-70614910D01*
X79973992Y-70553327D01*
X79796427Y-70462853D01*
X79635201Y-70345716D01*
X79494284Y-70204799D01*
X79377147Y-70043573D01*
X79286673Y-69866008D01*
X79225090Y-69676476D01*
X79193915Y-69479643D01*
X79193915Y-69280357D01*
X79225090Y-69083524D01*
X79286673Y-68893992D01*
X79377147Y-68716427D01*
X79494284Y-68555201D01*
X79635201Y-68414284D01*
X79796427Y-68297147D01*
X79973992Y-68206673D01*
X80163524Y-68145090D01*
X80360357Y-68113915D01*
X80559643Y-68113915D01*
X80756476Y-68145090D01*
G37*
G36*
X85836476Y-68145090D02*
G01*
X86026008Y-68206673D01*
X86203573Y-68297147D01*
X86364799Y-68414284D01*
X86505716Y-68555201D01*
X86622853Y-68716427D01*
X86713327Y-68893992D01*
X86774910Y-69083524D01*
X86806085Y-69280357D01*
X86806085Y-69479643D01*
X86774910Y-69676476D01*
X86713327Y-69866008D01*
X86622853Y-70043573D01*
X86505716Y-70204799D01*
X86364799Y-70345716D01*
X86203573Y-70462853D01*
X86026008Y-70553327D01*
X85836476Y-70614910D01*
X85639643Y-70646085D01*
X85440357Y-70646085D01*
X85243524Y-70614910D01*
X85053992Y-70553327D01*
X84876427Y-70462853D01*
X84715201Y-70345716D01*
X84574284Y-70204799D01*
X84457147Y-70043573D01*
X84366673Y-69866008D01*
X84305090Y-69676476D01*
X84273915Y-69479643D01*
X84273915Y-69280357D01*
X84305090Y-69083524D01*
X84366673Y-68893992D01*
X84457147Y-68716427D01*
X84574284Y-68555201D01*
X84715201Y-68414284D01*
X84876427Y-68297147D01*
X85053992Y-68206673D01*
X85243524Y-68145090D01*
X85440357Y-68113915D01*
X85639643Y-68113915D01*
X85836476Y-68145090D01*
G37*
G36*
X90916476Y-68145090D02*
G01*
X91106008Y-68206673D01*
X91283573Y-68297147D01*
X91444799Y-68414284D01*
X91585716Y-68555201D01*
X91702853Y-68716427D01*
X91793327Y-68893992D01*
X91854910Y-69083524D01*
X91886085Y-69280357D01*
X91886085Y-69479643D01*
X91854910Y-69676476D01*
X91793327Y-69866008D01*
X91702853Y-70043573D01*
X91585716Y-70204799D01*
X91444799Y-70345716D01*
X91283573Y-70462853D01*
X91106008Y-70553327D01*
X90916476Y-70614910D01*
X90719643Y-70646085D01*
X90520357Y-70646085D01*
X90323524Y-70614910D01*
X90133992Y-70553327D01*
X89956427Y-70462853D01*
X89795201Y-70345716D01*
X89654284Y-70204799D01*
X89537147Y-70043573D01*
X89446673Y-69866008D01*
X89385090Y-69676476D01*
X89353915Y-69479643D01*
X89353915Y-69280357D01*
X89385090Y-69083524D01*
X89446673Y-68893992D01*
X89537147Y-68716427D01*
X89654284Y-68555201D01*
X89795201Y-68414284D01*
X89956427Y-68297147D01*
X90133992Y-68206673D01*
X90323524Y-68145090D01*
X90520357Y-68113915D01*
X90719643Y-68113915D01*
X90916476Y-68145090D01*
G37*
M02*
