M48
; DRILL file {KiCad 9.0.3} date 2025-09-07T18:18:20+0200
; FORMAT={-:-/ absolute / metric / decimal}
; #@! TF.CreationDate,2025-09-07T18:18:20+02:00
; #@! TF.GenerationSoftware,Kicad,Pcbnew,9.0.3
; #@! TF.FileFunction,Plated,1,4,PTH
FMAT,2
METRIC
; #@! TA.AperFunction,Plated,PTH,ViaDrill
T1C0.300
; #@! TA.AperFunction,Plated,PTH,ComponentDrill
T2C0.800
; #@! TA.AperFunction,Plated,PTH,ComponentDrill
T3C0.900
; #@! TA.AperFunction,Plated,PTH,ComponentDrill
T4C1.000
; #@! TA.AperFunction,Plated,PTH,ComponentDrill
T5C1.100
; #@! TA.AperFunction,Plated,PTH,ComponentDrill
T6C1.270
%
G90
G05
T1
X85.54Y-93.76
X90.5Y-91.0
X121.0Y-99.0
X121.5Y-110.0
T2
X123.69Y-73.5
X125.5Y-104.75
X125.5Y-109.75
X125.75Y-81.75
X125.75Y-86.75
X126.0Y-93.0
X126.0Y-98.0
X131.31Y-73.5
X133.25Y-81.0
X133.25Y-88.62
X133.5Y-92.19
X133.5Y-99.81
X133.5Y-104.0
X133.5Y-111.62
T3
X137.725Y-73.5
X140.265Y-73.5
T4
X102.5Y-73.44
X102.5Y-75.98
X102.5Y-78.52
X102.5Y-81.06
X102.5Y-83.6
X102.5Y-86.14
X102.5Y-88.68
X102.5Y-91.22
X102.5Y-93.76
X102.5Y-96.3
X102.5Y-98.84
X102.5Y-101.38
X102.5Y-103.92
X102.5Y-106.46
X102.5Y-109.0
X117.74Y-73.44
X117.74Y-75.98
X117.74Y-78.52
X117.74Y-81.06
X117.74Y-83.6
X117.74Y-86.14
X117.74Y-88.68
X117.74Y-91.22
X117.74Y-93.76
X117.74Y-96.3
X117.74Y-98.84
X117.74Y-101.38
X117.74Y-103.92
X117.74Y-106.46
X117.74Y-109.0
T5
X139.75Y-81.75
X139.75Y-86.25
X139.75Y-93.75
X139.75Y-98.25
X140.0Y-104.75
X140.0Y-109.25
X146.25Y-81.75
X146.25Y-86.25
X146.25Y-93.75
X146.25Y-98.25
X146.5Y-104.75
X146.5Y-109.25
T6
X70.42Y-104.19
X72.96Y-104.19
X75.38Y-69.38
X75.5Y-104.19
X78.04Y-104.19
X80.46Y-69.38
X80.58Y-104.19
X85.54Y-69.38
X90.62Y-69.38
M30
