G04 #@! TF.GenerationSoftware,KiCad,Pcbnew,9.0.3*
G04 #@! TF.CreationDate,2025-09-07T18:19:36+02:00*
G04 #@! TF.ProjectId,Design1,44657369-676e-4312-9e6b-696361645f70,rev?*
G04 #@! TF.SameCoordinates,Original*
G04 #@! TF.FileFunction,Copper,L3,Inr*
G04 #@! TF.FilePolarity,Positive*
%FSLAX46Y46*%
G04 Gerber Fmt 4.6, Leading zero omitted, Abs format (unit mm)*
G04 Created by KiCad (PCBNEW 9.0.3) date 2025-09-07 18:19:36*
%MOMM*%
%LPD*%
G01*
G04 APERTURE LIST*
G04 #@! TA.AperFunction,ComponentPad*
%ADD10C,1.600000*%
G04 #@! TD*
G04 #@! TA.AperFunction,ComponentPad*
%ADD11C,2.000000*%
G04 #@! TD*
G04 #@! TA.AperFunction,ComponentPad*
%ADD12C,2.540000*%
G04 #@! TD*
G04 #@! TA.AperFunction,ComponentPad*
%ADD13R,2.000000X2.000000*%
G04 #@! TD*
G04 #@! TA.AperFunction,ComponentPad*
%ADD14C,1.800000*%
G04 #@! TD*
G04 #@! TA.AperFunction,ComponentPad*
%ADD15R,1.800000X1.800000*%
G04 #@! TD*
G04 #@! TA.AperFunction,ComponentPad*
%ADD16R,1.600000X1.600000*%
G04 #@! TD*
G04 #@! TA.AperFunction,ComponentPad*
%ADD17O,1.600000X1.600000*%
G04 #@! TD*
G04 #@! TA.AperFunction,ViaPad*
%ADD18C,0.600000*%
G04 #@! TD*
G04 APERTURE END LIST*
D10*
X133250000Y-88620000D03*
X133250000Y-81000000D03*
X125500000Y-109750000D03*
X125500000Y-104750000D03*
D11*
X140000000Y-104750000D03*
X146500000Y-104750000D03*
X140000000Y-109250000D03*
X146500000Y-109250000D03*
D10*
X125750000Y-86750000D03*
X125750000Y-81750000D03*
D11*
X139750000Y-81750000D03*
X146250000Y-81750000D03*
X139750000Y-86250000D03*
X146250000Y-86250000D03*
D10*
X133500000Y-111620000D03*
X133500000Y-104000000D03*
D12*
X90620000Y-69380000D03*
X85540000Y-69380000D03*
X80460000Y-69380000D03*
X75380000Y-69380000D03*
D11*
X80580000Y-104190000D03*
X78040000Y-104190000D03*
X75500000Y-104190000D03*
X72960000Y-104190000D03*
D13*
X70420000Y-104190000D03*
D11*
X146250000Y-98250000D03*
X139750000Y-98250000D03*
X146250000Y-93750000D03*
X139750000Y-93750000D03*
D10*
X131310000Y-73500000D03*
X123690000Y-73500000D03*
X133500000Y-99810000D03*
X133500000Y-92190000D03*
D14*
X140265000Y-73500000D03*
D15*
X137725000Y-73500000D03*
D10*
X126000000Y-93000000D03*
X126000000Y-98000000D03*
D16*
X117740000Y-109000000D03*
D17*
X117740000Y-106460000D03*
X117740000Y-103920000D03*
X117740000Y-101380000D03*
X117740000Y-98840000D03*
X117740000Y-96300000D03*
X117740000Y-93760000D03*
X117740000Y-91220000D03*
X117740000Y-88680000D03*
X117740000Y-86140000D03*
X117740000Y-83600000D03*
X117740000Y-81060000D03*
X117740000Y-78520000D03*
X117740000Y-75980000D03*
X117740000Y-73440000D03*
X102500000Y-73440000D03*
X102500000Y-75980000D03*
X102500000Y-78520000D03*
X102500000Y-81060000D03*
X102500000Y-83600000D03*
X102500000Y-86140000D03*
X102500000Y-88680000D03*
X102500000Y-91220000D03*
X102500000Y-93760000D03*
X102500000Y-96300000D03*
X102500000Y-98840000D03*
X102500000Y-101380000D03*
X102500000Y-103920000D03*
X102500000Y-106460000D03*
X102500000Y-109000000D03*
D18*
X90500000Y-91000000D03*
X85540000Y-93760000D03*
X121500000Y-110000000D03*
X121000000Y-99000000D03*
M02*
